<svg width="133" height="216" viewBox="0 0 133 216" fill="none" xmlns="http://www.w3.org/2000/svg">
    <g clip-path="url(#clip0_148_214)">
    <path d="M182.35 84.0448C195.437 125.274 172.593 169.29 131.414 182.346C90.1843 195.434 46.1687 172.591 33.1136 131.413C20.0264 90.1844 42.8178 46.2002 84.0483 33.1128C125.194 20.0048 169.262 42.8149 182.35 84.0448Z" fill="url(#paint0_linear_148_214)"/>
    <path d="M134.367 79.8788C130.219 70.22 120.548 69.5628 109.318 72.0918L104.933 58.1967L96.517 60.862L100.813 74.3803C98.5972 75.0977 96.3288 75.8472 94.0924 76.6488L89.7639 63.0784L81.3475 65.7436L85.7522 79.5545C83.9126 80.1837 82.1251 80.7809 80.3897 81.346L80.3577 81.2939L68.711 85.0132L71.5927 94.0148C71.5927 94.0148 77.7807 91.9307 77.7086 92.0469C81.1272 90.9487 82.8666 92.608 83.7243 94.2351L88.7181 110.054C88.9586 109.978 89.2512 109.87 89.66 109.833C89.3674 109.942 89.0748 110.05 88.7502 110.106L95.756 132.229C95.9364 133.339 95.8322 135.271 93.4796 136C93.5958 136.073 87.3637 137.968 87.3637 137.968L88.8787 148.601L99.8881 145.13C101.948 144.509 103.924 143.868 105.932 143.279L110.381 157.278L118.797 154.613L114.412 140.718C116.713 140.02 119.013 139.323 121.178 138.637L125.582 152.448L133.999 149.783L129.55 135.784C143.497 130.433 152.298 123.724 149.248 110.013C146.847 98.992 140.275 95.7818 131.594 96.383C135.766 92.307 137.405 86.9165 134.367 79.8788ZM132.071 113.617C135.409 124.061 117.078 128.59 111.358 130.385L105.463 111.817C111.182 110.022 128.632 102.659 132.071 113.617ZM119.839 88.6039C122.853 98.1706 107.543 101.774 102.786 103.265L97.455 86.4318C102.212 84.9409 116.684 78.6926 119.839 88.6039Z" fill="white"/>
    </g>
    <defs>
    <linearGradient id="paint0_linear_148_214" x1="66.634" y1="41.0306" x2="148.726" y2="174.429" gradientUnits="userSpaceOnUse">
    <stop stop-color="#F9AA4B"/>
    <stop offset="1" stop-color="#F7931A"/>
    </linearGradient>
    <clipPath id="clip0_148_214">
    <rect width="156.612" height="156.612" fill="white" transform="translate(0 82.0808) rotate(-31.6079)"/>
    </clipPath>
    </defs>
    </svg>