<svg xmlns="http://www.w3.org/2000/svg" width="22" height="23" viewBox="0 0 22 23" fill="none">
    <path
        d="M9.23201 3.42008L9.23239 3.41977C10.2108 2.63396 11.7843 2.63822 12.7781 3.42982C12.7783 3.42992 12.7784 3.43003 12.7785 3.43013L18.7784 8.22998C18.7789 8.23042 18.7795 8.23086 18.78 8.23131C19.1189 8.50822 19.4146 8.94369 19.6058 9.44403C19.7968 9.94396 19.8672 10.466 19.8014 10.8984L18.6475 17.8036C18.6474 17.8041 18.6473 17.8046 18.6472 17.8051C18.4217 19.0988 17.1608 20.1666 15.8585 20.1666H6.1418C4.81982 20.1666 3.58766 19.1251 3.36227 17.8147C3.36221 17.8144 3.36215 17.814 3.36209 17.8137L2.20746 10.9042L2.20726 10.903C2.13345 10.4676 2.19947 9.94454 2.39002 9.44486C2.58055 8.94523 2.87982 8.51026 3.22697 8.23328L3.22784 8.23258L9.23201 3.42008ZM11.0001 18.1874C11.6521 18.1874 12.1876 17.6519 12.1876 16.9999V14.2499C12.1876 13.598 11.6521 13.0624 11.0001 13.0624C10.3482 13.0624 9.81263 13.598 9.81263 14.2499V16.9999C9.81263 17.6519 10.3482 18.1874 11.0001 18.1874Z"
        fill="lightslategray" stroke="lightslategray" />
</svg>