<svg width="22" height="23" viewBox="0 0 22 23" fill="none" xmlns="http://www.w3.org/2000/svg">
    <path d="M7.79232 17.9166H7.33398C3.66732 17.9166 1.83398 16.9999 1.83398 12.4166V7.83325C1.83398 4.16659 3.66732 2.33325 7.33398 2.33325H14.6673C18.334 2.33325 20.1673 4.16659 20.1673 7.83325V12.4166C20.1673 16.0833 18.334 17.9166 14.6673 17.9166H14.209C13.9248 17.9166 13.6498 18.0541 13.4757 18.2833L12.1007 20.1166C11.4957 20.9233 10.5057 20.9233 9.90065 20.1166L8.52565 18.2833C8.37898 18.0816 8.03982 17.9166 7.79232 17.9166Z" stroke="#596780" stroke-width="2" stroke-miterlimit="10" stroke-linecap="round" stroke-linejoin="round"/>
    <path d="M14.6642 10.5833H14.6725" stroke="#596780" stroke-width="2" stroke-linecap="round" stroke-linejoin="round"/>
    <path d="M10.9963 10.5833H11.0045" stroke="#596780" stroke-width="2" stroke-linecap="round" stroke-linejoin="round"/>
    <path d="M7.3283 10.5833H7.33653" stroke="#596780" stroke-width="2" stroke-linecap="round" stroke-linejoin="round"/>
    </svg>