<svg xmlns="http://www.w3.org/2000/svg"
    xmlns:xlink="http://www.w3.org/1999/xlink" viewBox="0,0,256,256" width="48px" height="48px" fill-rule="nonzero">
    <g fill="none" fill-rule="nonzero" stroke="none" stroke-width="none" stroke-linecap="none" stroke-linejoin="none" stroke-miterlimit="10" stroke-dasharray="" stroke-dashoffset="0" font-family="none" font-weight="none" font-size="none" text-anchor="none" style="mix-blend-mode: normal">
        <g transform="scale(5.33333,5.33333)">
            <path d="M32.9,10.6c-4.5,0.4 -8.3,3.6 -9.8,7.9c-0.8,2.4 -0.7,4.6 -0.2,6.6l-12.1,12.1c-0.2,0.2 -0.3,0.4 -0.3,0.7v6.6c0,0.6 0.4,1 1,1h6c0.6,0 1,-0.4 1,-1v-3h4c0.6,0 1,-0.4 1,-1v-4h4c0.6,0 1,-0.4 1,-1v-3.4c2.1,1.2 4.7,1.7 7.4,1.3c4.7,-0.7 8.6,-4.5 9.4,-9.2c1.4,-7.7 -4.9,-14.4 -12.4,-13.6z" fill="#94d82d" stroke="none" stroke-width="1" stroke-linecap="butt" stroke-linejoin="miter"/>
            <circle cx="32" cy="16" r="3" fill="#18193f" stroke="none" stroke-width="1" stroke-linecap="butt" stroke-linejoin="miter"/>
            <path d="M41.3,15.7c-1.1,-5.2 -5.7,-9.2 -11.3,-9.2c-6.4,0 -11.5,5.1 -11.5,11.5c0,1.1 0.2,2.1 0.4,3.1l-4.4,4.4" fill="none" stroke="#18193f" stroke-width="3" stroke-linecap="round" stroke-linejoin="round"/>
            <path d="M10.6,29.4l-3.8,3.8c-0.2,0.2 -0.3,0.4 -0.3,0.7v6.6c0,0.6 0.4,1 1,1h6c0.6,0 1,-0.4 1,-1v-3h4c0.6,0 1,-0.4 1,-1v-4h4c0.6,0 1,-0.4 1,-1v-3.4c1.6,0.9 3.5,1.4 5.5,1.4c3.9,0 7.3,-1.9 9.4,-4.8" fill="none" stroke="#18193f" stroke-width="3" stroke-linecap="round" stroke-linejoin="round"/>
        </g>
    </g>
</svg>