<svg xmlns="http://www.w3.org/2000/svg"
    xmlns:xlink="http://www.w3.org/1999/xlink" viewBox="0,0,256,256" width="48px" height="48px" fill-rule="nonzero">
    <g fill="none" fill-rule="nonzero" stroke="none" stroke-width="none" stroke-linecap="none" stroke-linejoin="none" stroke-miterlimit="10" stroke-dasharray="" stroke-dashoffset="0" font-family="none" font-weight="none" font-size="none" text-anchor="none" style="mix-blend-mode: normal">
        <g transform="scale(5.33333,5.33333)">
            <path d="M26.4,9.1c-6.4,0.7 -11.6,5.9 -12.3,12.3c-0.7,5.9 2.4,11.2 7.1,13.8v2.8c0,1.4 1.1,2.5 2.5,2.5h-0.3v3.5c0,1.4 1.1,2.5 2.5,2.5h4.1c1.4,0 2.5,-1.1 2.5,-2.5v-3.5h-0.3c1.4,0 2.5,-1.1 2.5,-2.5v-2.8c4.3,-2.4 7.3,-7 7.3,-12.2c0,-8.3 -7.2,-14.8 -15.6,-13.9z" fill="#45c583" stroke="none" stroke-width="1" stroke-linecap="butt" stroke-linejoin="miter"/>
            <path d="M37.7,21.5c0.2,-0.8 0.2,-1.7 0.2,-2.6c0,-8.2 -7.1,-14.8 -15.5,-13.9c-2.4,0.3 -4.7,1.2 -6.6,2.5" fill="none" stroke="#18193f" stroke-width="3" stroke-linecap="round" stroke-linejoin="round"/>
            <path d="M11.5,12.8c-0.7,1.4 -1.2,3 -1.4,4.6c-0.7,5.9 2.4,11.2 7.1,13.8v2.8c0,1.4 1.1,2.5 2.5,2.5h8.4c1.4,0 2.5,-1.1 2.5,-2.5v-2.8c1.8,-1 3.3,-2.3 4.5,-3.9" fill="none" stroke="#18193f" stroke-width="3" stroke-linecap="round" stroke-linejoin="round"/>
            <path d="M26,42.5h-4c-1.4,0 -2.5,-1.1 -2.5,-2.5v-3.5h9v3.5c0,1.4 -1.1,2.5 -2.5,2.5z" fill="none" stroke="#18193f" stroke-width="3" stroke-linecap="round" stroke-linejoin="round"/>
        </g>
    </g>
</svg>