<svg xmlns="http://www.w3.org/2000/svg"
    xmlns:xlink="http://www.w3.org/1999/xlink" viewBox="0,0,256,256" width="48px" height="48px" fill-rule="nonzero">
    <g fill="none" fill-rule="nonzero" stroke="none" stroke-width="none" stroke-linecap="none" stroke-linejoin="none" stroke-miterlimit="10" stroke-dasharray="" stroke-dashoffset="0" font-family="none" font-weight="none" font-size="none" text-anchor="none" style="mix-blend-mode: normal">
        <g transform="scale(5.33333,5.33333)">
            <path d="M45,11h-33c-0.6,0 -1,0.4 -1,1v6c0,0.6 0.4,1 1,1h1v24c0,1.7 1.3,3 3,3h25c1.7,0 3,-1.3 3,-3v-24h1c0.6,0 1,-0.4 1,-1v-6c0,-0.6 -0.4,-1 -1,-1z" fill="#fa5252" stroke="none" stroke-width="1" stroke-linecap="butt" stroke-linejoin="miter"/>
            <path d="M37.2,6.5h3.3c0.6,0 1,0.4 1,1v6c0,0.6 -0.4,1 -1,1h-33c-0.6,0 -1,-0.4 -1,-1v-6c0,-0.6 0.4,-1 1,-1h23" fill="none" stroke="#18193f" stroke-width="3" stroke-linecap="round" stroke-linejoin="round"/>
            <path d="M39.5,34.4v4.1c0,1.7 -1.3,3 -3,3h-25c-1.7,0 -3,-1.3 -3,-3v-17.3" fill="none" stroke="#18193f" stroke-width="3" stroke-linecap="round" stroke-linejoin="round"/>
            <path d="M39.5,14.5v21.4" fill="none" stroke="#18193f" stroke-width="3" stroke-linecap="round" stroke-linejoin="round"/>
            <path d="M19.5,21.5h9" fill="none" stroke="#18193f" stroke-width="3" stroke-linecap="round" stroke-linejoin="round"/>
        </g>
    </g>
</svg>