<svg xmlns="http://www.w3.org/2000/svg" width="554" height="324" viewBox="0 0 554 324" fill="none">
    <g filter="url(#filter0_d)">
        <rect x="48" y="207" width="310" height="65" rx="3.73297" fill="white"/>
    </g>
    <path d="M82.3437 248.994L83.6057 243.945H86.3247C88.412 243.952 90.2328 242.529 90.7309 240.502L82.3437 248.994ZM82.3437 248.994C82.2663 249.304 81.9874 249.522 81.6674 249.522M82.3437 248.994L87.1391 236.223M87.1391 236.223C86.8431 238.249 85.1095 239.753 83.0619 239.762H80.2731M87.1391 236.223L87.3344 234.881M87.1391 236.223L87.8288 234.955M80.2731 239.762C79.9531 239.762 79.6743 239.98 79.5968 240.29L77.5053 248.656M80.2731 239.762L80.2732 240.262L83.0619 240.262L83.0639 240.262C85.359 240.252 87.3021 238.566 87.6339 236.295L87.6339 236.295L87.8288 234.955M80.2731 239.762V240.262C80.1827 240.262 80.1039 240.323 80.082 240.411L80.0819 240.411L77.9904 248.777M77.5053 248.656C77.4121 249.03 77.6394 249.408 78.013 249.502C78.0681 249.515 78.1247 249.522 78.1815 249.522H81.6674M77.5053 248.656L77.9904 248.777M77.5053 248.656L77.9903 248.778L77.9904 248.777M81.6674 249.522L81.6673 249.022M81.6674 249.522V249.022C81.7579 249.022 81.8367 248.961 81.8586 248.873L81.8587 248.873L83.1206 243.824L83.2153 243.445H83.6057H86.3247H86.3264C88.1828 243.451 89.8023 242.186 90.2454 240.383L90.2458 240.381L90.7603 238.319L90.7624 238.311L90.7647 238.302C91.0767 237.21 90.7792 236.034 89.9857 235.221M81.6673 249.022L87.8029 234.324C87.5543 234.407 87.3732 234.622 87.3344 234.881M81.6673 249.022H78.1815H81.6673ZM89.9857 235.221C89.9877 235.223 89.9897 235.225 89.9917 235.227L90.3365 234.865L89.9796 235.215C89.9816 235.217 89.9837 235.219 89.9857 235.221ZM89.9857 235.221C89.4469 234.712 88.6686 234.548 87.9697 234.795L87.9614 234.798L87.9614 234.798C87.8912 234.821 87.8402 234.882 87.8289 234.955L87.8291 234.953L87.3344 234.881M87.3344 234.881L87.8288 234.955M87.8288 234.955L78.134 249.016L78.013 249.501L78.1339 249.016C78.0282 248.99 77.9641 248.883 77.9904 248.777" fill="#03A9F4" stroke="#D8D8D8"/>
    <path d="M85.3788 230.5C86.2527 230.499 87.0841 230.876 87.6589 231.534C88.2377 232.201 88.4993 233.086 88.3762 233.96C88.3762 233.96 88.3761 233.961 88.3761 233.961L88.0279 236.342L88.0278 236.342C87.6686 238.811 85.557 240.645 83.0626 240.655H80.8201H80.4297L80.335 241.034L79.0717 246.083L79.0716 246.083C79.0497 246.171 78.9709 246.232 78.8804 246.233C78.8804 246.233 78.8804 246.233 78.8803 246.233H74.6973C74.6856 246.233 74.6738 246.231 74.6623 246.229C74.5551 246.21 74.484 246.107 74.5032 246C74.5032 246 74.5033 246 74.5033 246L77.292 230.663L77.2921 230.662C77.309 230.568 77.3907 230.5 77.4861 230.5L85.3783 230.5L85.3788 230.5Z" fill="#283593" stroke="#D8D8D8"/>
    <path d="M103.54 244C103.447 244 103.372 243.972 103.316 243.916C103.26 243.851 103.232 243.771 103.232 243.678V234.536C103.232 234.433 103.26 234.354 103.316 234.298C103.372 234.233 103.447 234.2 103.54 234.2H107.082C108.137 234.2 108.963 234.457 109.56 234.97C110.167 235.474 110.47 236.211 110.47 237.182C110.47 238.153 110.167 238.89 109.56 239.394C108.963 239.898 108.137 240.15 107.082 240.15H104.562V243.678C104.562 243.771 104.529 243.851 104.464 243.916C104.408 243.972 104.333 244 104.24 244H103.54ZM107.012 239.016C108.421 239.016 109.126 238.405 109.126 237.182C109.126 236.585 108.949 236.127 108.594 235.81C108.249 235.493 107.721 235.334 107.012 235.334H104.562V239.016H107.012ZM113.898 244.14C113.441 244.14 113.016 244.047 112.624 243.86C112.241 243.673 111.933 243.421 111.7 243.104C111.476 242.777 111.364 242.418 111.364 242.026C111.364 241.41 111.616 240.906 112.12 240.514C112.624 240.122 113.31 239.861 114.178 239.73L116.278 239.436V239.03C116.278 238.069 115.723 237.588 114.612 237.588C114.183 237.588 113.837 237.677 113.576 237.854C113.315 238.022 113.123 238.223 113.002 238.456C112.965 238.549 112.923 238.615 112.876 238.652C112.839 238.68 112.783 238.694 112.708 238.694H112.162C112.078 238.694 112.003 238.666 111.938 238.61C111.882 238.545 111.854 238.47 111.854 238.386C111.854 238.171 111.952 237.924 112.148 237.644C112.353 237.355 112.666 237.107 113.086 236.902C113.506 236.687 114.019 236.58 114.626 236.58C115.671 236.58 116.418 236.823 116.866 237.308C117.323 237.793 117.552 238.4 117.552 239.128V243.678C117.552 243.771 117.519 243.851 117.454 243.916C117.398 243.972 117.323 244 117.23 244H116.614C116.521 244 116.446 243.972 116.39 243.916C116.334 243.851 116.306 243.771 116.306 243.678V243.062C116.101 243.37 115.802 243.627 115.41 243.832C115.018 244.037 114.514 244.14 113.898 244.14ZM114.178 243.118C114.794 243.118 115.298 242.917 115.69 242.516C116.082 242.115 116.278 241.531 116.278 240.766V240.374L114.64 240.612C113.968 240.705 113.459 240.864 113.114 241.088C112.769 241.312 112.596 241.592 112.596 241.928C112.596 242.311 112.75 242.605 113.058 242.81C113.375 243.015 113.749 243.118 114.178 243.118ZM120.703 246.66C120.619 246.66 120.549 246.632 120.493 246.576C120.437 246.52 120.409 246.455 120.409 246.38C120.409 246.352 120.432 246.268 120.479 246.128L121.571 243.566L118.897 237.252C118.841 237.14 118.813 237.061 118.813 237.014C118.822 236.93 118.855 236.86 118.911 236.804C118.967 236.748 119.032 236.72 119.107 236.72H119.751C119.9 236.72 120.012 236.795 120.087 236.944L122.243 242.096L124.455 236.944C124.53 236.795 124.642 236.72 124.791 236.72H125.421C125.496 236.72 125.561 236.748 125.617 236.804C125.673 236.86 125.701 236.925 125.701 237C125.701 237.065 125.678 237.149 125.631 237.252L121.669 246.436C121.622 246.511 121.571 246.567 121.515 246.604C121.468 246.641 121.403 246.66 121.319 246.66H120.703ZM127.603 244C127.509 244 127.435 243.972 127.379 243.916C127.323 243.851 127.295 243.771 127.295 243.678V234.536C127.295 234.433 127.323 234.354 127.379 234.298C127.435 234.233 127.509 234.2 127.603 234.2H131.145C132.199 234.2 133.025 234.457 133.623 234.97C134.229 235.474 134.533 236.211 134.533 237.182C134.533 238.153 134.229 238.89 133.623 239.394C133.025 239.898 132.199 240.15 131.145 240.15H128.625V243.678C128.625 243.771 128.592 243.851 128.527 243.916C128.471 243.972 128.396 244 128.303 244H127.603ZM131.075 239.016C132.484 239.016 133.189 238.405 133.189 237.182C133.189 236.585 133.011 236.127 132.657 235.81C132.311 235.493 131.784 235.334 131.075 235.334H128.625V239.016H131.075ZM137.961 244.14C137.503 244.14 137.079 244.047 136.687 243.86C136.304 243.673 135.996 243.421 135.763 243.104C135.539 242.777 135.427 242.418 135.427 242.026C135.427 241.41 135.679 240.906 136.183 240.514C136.687 240.122 137.373 239.861 138.241 239.73L140.341 239.436V239.03C140.341 238.069 139.785 237.588 138.675 237.588C138.245 237.588 137.9 237.677 137.639 237.854C137.377 238.022 137.186 238.223 137.065 238.456C137.027 238.549 136.985 238.615 136.939 238.652C136.901 238.68 136.845 238.694 136.771 238.694H136.225C136.141 238.694 136.066 238.666 136.001 238.61C135.945 238.545 135.917 238.47 135.917 238.386C135.917 238.171 136.015 237.924 136.211 237.644C136.416 237.355 136.729 237.107 137.149 236.902C137.569 236.687 138.082 236.58 138.689 236.58C139.734 236.58 140.481 236.823 140.929 237.308C141.386 237.793 141.615 238.4 141.615 239.128V243.678C141.615 243.771 141.582 243.851 141.517 243.916C141.461 243.972 141.386 244 141.293 244H140.677C140.583 244 140.509 243.972 140.453 243.916C140.397 243.851 140.369 243.771 140.369 243.678V243.062C140.163 243.37 139.865 243.627 139.473 243.832C139.081 244.037 138.577 244.14 137.961 244.14ZM138.241 243.118C138.857 243.118 139.361 242.917 139.753 242.516C140.145 242.115 140.341 241.531 140.341 240.766V240.374L138.703 240.612C138.031 240.705 137.522 240.864 137.177 241.088C136.831 241.312 136.659 241.592 136.659 241.928C136.659 242.311 136.813 242.605 137.121 242.81C137.438 243.015 137.811 243.118 138.241 243.118ZM143.978 244C143.884 244 143.805 243.972 143.74 243.916C143.684 243.851 143.656 243.771 143.656 243.678V234.382C143.656 234.279 143.684 234.2 143.74 234.144C143.805 234.088 143.884 234.06 143.978 234.06H144.594C144.687 234.06 144.762 234.093 144.818 234.158C144.883 234.214 144.916 234.289 144.916 234.382V243.678C144.916 243.771 144.883 243.851 144.818 243.916C144.762 243.972 144.687 244 144.594 244H143.978Z" fill="#666666"/>
    <g filter="url(#filter1_d)">
        <rect x="198" y="126" width="308" height="65" rx="3.73297" fill="white"/>
    </g>
    <path d="M215.73 150H233.024C233.976 150 234.754 150.778 234.754 151.73V153.805C234.754 154.756 233.976 155.534 233.024 155.534H215.73C214.778 155.534 214 154.756 214 153.805V151.729C214 150.778 214.778 150 215.73 150Z" fill="#A86A3F"/>
    <path d="M233.716 167.296H215.73C214.778 167.296 214 166.518 214 165.566V153.114H233.716C234.668 153.114 235.446 153.892 235.446 154.844V165.566C235.446 166.518 234.667 167.296 233.716 167.296ZM215.384 153.114H214V151.73C214 152.491 214.623 153.114 215.384 153.114Z" fill="#C47E4D"/>
    <path d="M235.446 162.971H232.679C231.347 162.971 230.258 161.882 230.258 160.55C230.258 159.218 231.347 158.129 232.679 158.129H235.446C235.827 158.129 236.138 158.44 236.138 158.821V162.28C236.138 162.66 235.827 162.971 235.446 162.971Z" fill="#A86A3F"/>
    <path d="M232.68 159.166C233.441 159.166 234.064 159.789 234.064 160.55C234.064 161.311 233.441 161.933 232.68 161.933C231.92 161.933 231.297 161.311 231.297 160.55C231.297 159.789 231.92 159.166 232.68 159.166Z" fill="#EFC75E"/>
    <path d="M233.026 161.587C232.265 161.587 231.643 160.965 231.643 160.204C231.643 159.91 231.729 159.633 231.885 159.408C231.522 159.65 231.297 160.065 231.297 160.55C231.297 161.311 231.919 161.933 232.68 161.933C233.147 161.933 233.563 161.691 233.822 161.345C233.597 161.501 233.32 161.587 233.026 161.587Z" fill="#D7B354"/>
    <path d="M233.716 166.603H215.73C214.778 166.603 214 165.824 214 164.873V165.565C214 166.516 214.778 167.294 215.73 167.294H233.716C234.668 167.294 235.446 166.516 235.446 165.565V164.873C235.446 165.824 234.667 166.603 233.716 166.603Z" fill="#B27245"/>
    <path d="M233.716 153.114H215.384C214.623 153.114 214 152.491 214 151.73V152.422C214 153.183 214.623 153.806 215.384 153.806H233.716C234.668 153.806 235.446 154.584 235.446 155.535V154.844C235.446 153.892 234.667 153.114 233.716 153.114Z" fill="#CA8B5F"/>
    <path d="M246.884 163C246.651 163 246.506 162.879 246.45 162.636L244.644 153.634L244.616 153.48C244.616 153.405 244.644 153.34 244.7 153.284C244.756 153.228 244.821 153.2 244.896 153.2H245.582C245.778 153.2 245.89 153.279 245.918 153.438L247.36 160.746L248.914 155.706C248.97 155.482 249.115 155.37 249.348 155.37H249.838C250.062 155.37 250.211 155.482 250.286 155.706L251.826 160.746L253.268 153.438C253.296 153.279 253.413 153.2 253.618 153.2H254.29C254.365 153.2 254.43 153.228 254.486 153.284C254.542 153.34 254.57 153.405 254.57 153.48C254.57 153.536 254.565 153.587 254.556 153.634L252.736 162.636C252.689 162.879 252.545 163 252.302 163H251.798C251.565 163 251.411 162.883 251.336 162.65L249.6 157.26L247.85 162.65C247.785 162.883 247.635 163 247.402 163H246.884ZM257.935 163.14C257.478 163.14 257.053 163.047 256.661 162.86C256.278 162.673 255.97 162.421 255.737 162.104C255.513 161.777 255.401 161.418 255.401 161.026C255.401 160.41 255.653 159.906 256.157 159.514C256.661 159.122 257.347 158.861 258.215 158.73L260.315 158.436V158.03C260.315 157.069 259.76 156.588 258.649 156.588C258.22 156.588 257.874 156.677 257.613 156.854C257.352 157.022 257.16 157.223 257.039 157.456C257.002 157.549 256.96 157.615 256.913 157.652C256.876 157.68 256.82 157.694 256.745 157.694H256.199C256.115 157.694 256.04 157.666 255.975 157.61C255.919 157.545 255.891 157.47 255.891 157.386C255.891 157.171 255.989 156.924 256.185 156.644C256.39 156.355 256.703 156.107 257.123 155.902C257.543 155.687 258.056 155.58 258.663 155.58C259.708 155.58 260.455 155.823 260.903 156.308C261.36 156.793 261.589 157.4 261.589 158.128V162.678C261.589 162.771 261.556 162.851 261.491 162.916C261.435 162.972 261.36 163 261.267 163H260.651C260.558 163 260.483 162.972 260.427 162.916C260.371 162.851 260.343 162.771 260.343 162.678V162.062C260.138 162.37 259.839 162.627 259.447 162.832C259.055 163.037 258.551 163.14 257.935 163.14ZM258.215 162.118C258.831 162.118 259.335 161.917 259.727 161.516C260.119 161.115 260.315 160.531 260.315 159.766V159.374L258.677 159.612C258.005 159.705 257.496 159.864 257.151 160.088C256.806 160.312 256.633 160.592 256.633 160.928C256.633 161.311 256.787 161.605 257.095 161.81C257.412 162.015 257.786 162.118 258.215 162.118ZM263.952 163C263.859 163 263.78 162.972 263.714 162.916C263.658 162.851 263.63 162.771 263.63 162.678V153.382C263.63 153.279 263.658 153.2 263.714 153.144C263.78 153.088 263.859 153.06 263.952 153.06H264.568C264.662 153.06 264.736 153.093 264.792 153.158C264.858 153.214 264.89 153.289 264.89 153.382V162.678C264.89 162.771 264.858 162.851 264.792 162.916C264.736 162.972 264.662 163 264.568 163H263.952ZM267.329 163C267.236 163 267.157 162.972 267.091 162.916C267.035 162.851 267.007 162.771 267.007 162.678V153.382C267.007 153.279 267.035 153.2 267.091 153.144C267.157 153.088 267.236 153.06 267.329 153.06H267.945C268.039 153.06 268.113 153.093 268.169 153.158C268.235 153.214 268.267 153.289 268.267 153.382V162.678C268.267 162.771 268.235 162.851 268.169 162.916C268.113 162.972 268.039 163 267.945 163H267.329ZM273.254 163.14C272.302 163.14 271.542 162.846 270.972 162.258C270.403 161.661 270.09 160.849 270.034 159.822L270.02 159.346L270.034 158.884C270.09 157.876 270.403 157.073 270.972 156.476C271.542 155.879 272.302 155.58 273.254 155.58C274.281 155.58 275.074 155.907 275.634 156.56C276.204 157.213 276.488 158.1 276.488 159.22V159.472C276.488 159.565 276.456 159.645 276.39 159.71C276.334 159.766 276.26 159.794 276.166 159.794H271.308V159.92C271.336 160.527 271.523 161.045 271.868 161.474C272.214 161.903 272.671 162.118 273.24 162.118C273.679 162.118 274.034 162.034 274.304 161.866C274.584 161.689 274.794 161.507 274.934 161.32C275.018 161.208 275.084 161.143 275.13 161.124C275.177 161.096 275.256 161.082 275.368 161.082H275.984C276.068 161.082 276.138 161.105 276.194 161.152C276.26 161.199 276.292 161.259 276.292 161.334C276.292 161.539 276.166 161.787 275.914 162.076C275.662 162.365 275.303 162.617 274.836 162.832C274.379 163.037 273.852 163.14 273.254 163.14ZM275.214 158.842V158.8C275.214 158.147 275.037 157.615 274.682 157.204C274.328 156.793 273.852 156.588 273.254 156.588C272.648 156.588 272.172 156.793 271.826 157.204C271.481 157.615 271.308 158.147 271.308 158.8V158.842H275.214ZM280.95 163C279.503 163 278.78 162.183 278.78 160.55V156.798H277.674C277.58 156.798 277.506 156.77 277.45 156.714C277.394 156.658 277.366 156.583 277.366 156.49V156.042C277.366 155.949 277.394 155.874 277.45 155.818C277.506 155.753 277.58 155.72 277.674 155.72H278.78V153.382C278.78 153.289 278.808 153.214 278.864 153.158C278.92 153.093 278.994 153.06 279.088 153.06H279.704C279.797 153.06 279.872 153.093 279.928 153.158C279.993 153.214 280.026 153.289 280.026 153.382V155.72H281.762C281.855 155.72 281.93 155.753 281.986 155.818C282.051 155.874 282.084 155.949 282.084 156.042V156.49C282.084 156.583 282.051 156.658 281.986 156.714C281.93 156.77 281.855 156.798 281.762 156.798H280.026V160.452C280.026 160.928 280.1 161.287 280.25 161.53C280.408 161.773 280.674 161.894 281.048 161.894H281.902C281.995 161.894 282.07 161.927 282.126 161.992C282.182 162.048 282.21 162.123 282.21 162.216V162.678C282.21 162.771 282.182 162.851 282.126 162.916C282.07 162.972 281.995 163 281.902 163H280.95Z" fill="#666666"/>
    <path d="M407.185 164C407.091 164 407.017 163.972 406.961 163.916C406.905 163.851 406.877 163.771 406.877 163.678V154.536C406.877 154.433 406.905 154.354 406.961 154.298C407.017 154.233 407.091 154.2 407.185 154.2H411.007C411.996 154.2 412.743 154.438 413.247 154.914C413.751 155.39 414.003 156.011 414.003 156.776C414.003 157.299 413.881 157.737 413.639 158.092C413.396 158.437 413.111 158.689 412.785 158.848C413.186 159.044 413.522 159.347 413.793 159.758C414.063 160.169 414.199 160.64 414.199 161.172C414.199 161.695 414.077 162.171 413.835 162.6C413.601 163.029 413.251 163.37 412.785 163.622C412.318 163.874 411.763 164 411.119 164H407.185ZM410.797 158.358C411.403 158.358 411.865 158.223 412.183 157.952C412.5 157.672 412.659 157.285 412.659 156.79C412.659 156.305 412.5 155.936 412.183 155.684C411.875 155.432 411.413 155.306 410.797 155.306H408.193V158.358H410.797ZM410.937 162.894C411.534 162.894 412.001 162.735 412.337 162.418C412.682 162.091 412.855 161.676 412.855 161.172C412.855 160.659 412.682 160.243 412.337 159.926C412.001 159.609 411.534 159.45 410.937 159.45H408.193V162.894H410.937ZM418.048 164.14C417.591 164.14 417.166 164.047 416.774 163.86C416.392 163.673 416.084 163.421 415.85 163.104C415.626 162.777 415.514 162.418 415.514 162.026C415.514 161.41 415.766 160.906 416.27 160.514C416.774 160.122 417.46 159.861 418.328 159.73L420.428 159.436V159.03C420.428 158.069 419.873 157.588 418.762 157.588C418.333 157.588 417.988 157.677 417.726 157.854C417.465 158.022 417.274 158.223 417.152 158.456C417.115 158.549 417.073 158.615 417.026 158.652C416.989 158.68 416.933 158.694 416.858 158.694H416.312C416.228 158.694 416.154 158.666 416.088 158.61C416.032 158.545 416.004 158.47 416.004 158.386C416.004 158.171 416.102 157.924 416.298 157.644C416.504 157.355 416.816 157.107 417.236 156.902C417.656 156.687 418.17 156.58 418.776 156.58C419.822 156.58 420.568 156.823 421.016 157.308C421.474 157.793 421.702 158.4 421.702 159.128V163.678C421.702 163.771 421.67 163.851 421.604 163.916C421.548 163.972 421.474 164 421.38 164H420.764C420.671 164 420.596 163.972 420.54 163.916C420.484 163.851 420.456 163.771 420.456 163.678V163.062C420.251 163.37 419.952 163.627 419.56 163.832C419.168 164.037 418.664 164.14 418.048 164.14ZM418.328 163.118C418.944 163.118 419.448 162.917 419.84 162.516C420.232 162.115 420.428 161.531 420.428 160.766V160.374L418.79 160.612C418.118 160.705 417.61 160.864 417.264 161.088C416.919 161.312 416.746 161.592 416.746 161.928C416.746 162.311 416.9 162.605 417.208 162.81C417.526 163.015 417.899 163.118 418.328 163.118ZM424.066 164C423.972 164 423.893 163.972 423.828 163.916C423.772 163.851 423.744 163.771 423.744 163.678V154.382C423.744 154.279 423.772 154.2 423.828 154.144C423.893 154.088 423.972 154.06 424.066 154.06H424.682C424.775 154.06 424.85 154.093 424.906 154.158C424.971 154.214 425.004 154.289 425.004 154.382V163.678C425.004 163.771 424.971 163.851 424.906 163.916C424.85 163.972 424.775 164 424.682 164H424.066ZM429.123 164.14C428.665 164.14 428.241 164.047 427.849 163.86C427.466 163.673 427.158 163.421 426.925 163.104C426.701 162.777 426.589 162.418 426.589 162.026C426.589 161.41 426.841 160.906 427.345 160.514C427.849 160.122 428.535 159.861 429.403 159.73L431.503 159.436V159.03C431.503 158.069 430.947 157.588 429.837 157.588C429.407 157.588 429.062 157.677 428.801 157.854C428.539 158.022 428.348 158.223 428.227 158.456C428.189 158.549 428.147 158.615 428.101 158.652C428.063 158.68 428.007 158.694 427.933 158.694H427.387C427.303 158.694 427.228 158.666 427.163 158.61C427.107 158.545 427.079 158.47 427.079 158.386C427.079 158.171 427.177 157.924 427.373 157.644C427.578 157.355 427.891 157.107 428.311 156.902C428.731 156.687 429.244 156.58 429.851 156.58C430.896 156.58 431.643 156.823 432.091 157.308C432.548 157.793 432.777 158.4 432.777 159.128V163.678C432.777 163.771 432.744 163.851 432.679 163.916C432.623 163.972 432.548 164 432.455 164H431.839C431.745 164 431.671 163.972 431.615 163.916C431.559 163.851 431.531 163.771 431.531 163.678V163.062C431.325 163.37 431.027 163.627 430.635 163.832C430.243 164.037 429.739 164.14 429.123 164.14ZM429.403 163.118C430.019 163.118 430.523 162.917 430.915 162.516C431.307 162.115 431.503 161.531 431.503 160.766V160.374L429.865 160.612C429.193 160.705 428.684 160.864 428.339 161.088C427.993 161.312 427.821 161.592 427.821 161.928C427.821 162.311 427.975 162.605 428.283 162.81C428.6 163.015 428.973 163.118 429.403 163.118ZM435.126 164C435.033 164 434.953 163.972 434.888 163.916C434.832 163.851 434.804 163.771 434.804 163.678V157.042C434.804 156.949 434.832 156.874 434.888 156.818C434.953 156.753 435.033 156.72 435.126 156.72H435.728C435.831 156.72 435.91 156.748 435.966 156.804C436.022 156.86 436.05 156.939 436.05 157.042V157.658C436.33 157.313 436.652 157.047 437.016 156.86C437.389 156.673 437.851 156.58 438.402 156.58C439.298 156.58 439.993 156.869 440.488 157.448C440.983 158.017 441.23 158.773 441.23 159.716V163.678C441.23 163.771 441.197 163.851 441.132 163.916C441.076 163.972 441.001 164 440.908 164H440.264C440.171 164 440.091 163.972 440.026 163.916C439.97 163.851 439.942 163.771 439.942 163.678V159.8C439.942 159.128 439.779 158.605 439.452 158.232C439.125 157.859 438.659 157.672 438.052 157.672C437.455 157.672 436.979 157.863 436.624 158.246C436.269 158.619 436.092 159.137 436.092 159.8V163.678C436.092 163.771 436.059 163.851 435.994 163.916C435.938 163.972 435.863 164 435.77 164H435.126ZM446.165 164.14C445.166 164.14 444.387 163.86 443.827 163.3C443.267 162.731 442.973 161.937 442.945 160.92L442.931 160.36L442.945 159.8C442.973 158.783 443.267 157.994 443.827 157.434C444.387 156.865 445.166 156.58 446.165 156.58C446.837 156.58 447.402 156.701 447.859 156.944C448.326 157.177 448.671 157.471 448.895 157.826C449.128 158.181 449.254 158.535 449.273 158.89C449.282 158.974 449.25 159.049 449.175 159.114C449.11 159.179 449.035 159.212 448.951 159.212H448.335C448.242 159.212 448.172 159.193 448.125 159.156C448.078 159.109 448.032 159.03 447.985 158.918C447.817 158.461 447.584 158.139 447.285 157.952C446.996 157.756 446.627 157.658 446.179 157.658C445.591 157.658 445.124 157.84 444.779 158.204C444.434 158.568 444.247 159.123 444.219 159.87L444.205 160.36L444.219 160.85C444.247 161.597 444.434 162.152 444.779 162.516C445.124 162.88 445.591 163.062 446.179 163.062C446.636 163.062 447.01 162.969 447.299 162.782C447.588 162.586 447.817 162.259 447.985 161.802C448.032 161.69 448.078 161.615 448.125 161.578C448.172 161.531 448.242 161.508 448.335 161.508H448.951C449.035 161.508 449.11 161.541 449.175 161.606C449.25 161.671 449.282 161.746 449.273 161.83C449.254 162.175 449.128 162.525 448.895 162.88C448.671 163.235 448.326 163.533 447.859 163.776C447.402 164.019 446.837 164.14 446.165 164.14ZM453.834 164.14C452.882 164.14 452.122 163.846 451.552 163.258C450.983 162.661 450.67 161.849 450.614 160.822L450.6 160.346L450.614 159.884C450.67 158.876 450.983 158.073 451.552 157.476C452.122 156.879 452.882 156.58 453.834 156.58C454.861 156.58 455.654 156.907 456.214 157.56C456.784 158.213 457.068 159.1 457.068 160.22V160.472C457.068 160.565 457.036 160.645 456.97 160.71C456.914 160.766 456.84 160.794 456.746 160.794H451.888V160.92C451.916 161.527 452.103 162.045 452.448 162.474C452.794 162.903 453.251 163.118 453.82 163.118C454.259 163.118 454.614 163.034 454.884 162.866C455.164 162.689 455.374 162.507 455.514 162.32C455.598 162.208 455.664 162.143 455.71 162.124C455.757 162.096 455.836 162.082 455.948 162.082H456.564C456.648 162.082 456.718 162.105 456.774 162.152C456.84 162.199 456.872 162.259 456.872 162.334C456.872 162.539 456.746 162.787 456.494 163.076C456.242 163.365 455.883 163.617 455.416 163.832C454.959 164.037 454.432 164.14 453.834 164.14ZM455.794 159.842V159.8C455.794 159.147 455.617 158.615 455.262 158.204C454.908 157.793 454.432 157.588 453.834 157.588C453.228 157.588 452.752 157.793 452.406 158.204C452.061 158.615 451.888 159.147 451.888 159.8V159.842H455.794ZM459.009 159.1C458.915 159.1 458.841 159.072 458.785 159.016C458.729 158.951 458.701 158.871 458.701 158.778V157.84C458.701 157.737 458.729 157.658 458.785 157.602C458.841 157.537 458.915 157.504 459.009 157.504H459.975C460.077 157.504 460.157 157.537 460.213 157.602C460.278 157.658 460.311 157.737 460.311 157.84V158.778C460.311 158.871 460.278 158.951 460.213 159.016C460.147 159.072 460.068 159.1 459.975 159.1H459.009ZM459.009 164C458.915 164 458.841 163.972 458.785 163.916C458.729 163.851 458.701 163.771 458.701 163.678V162.74C458.701 162.637 458.729 162.558 458.785 162.502C458.841 162.437 458.915 162.404 459.009 162.404H459.975C460.077 162.404 460.157 162.437 460.213 162.502C460.278 162.558 460.311 162.637 460.311 162.74V163.678C460.311 163.771 460.278 163.851 460.213 163.916C460.147 163.972 460.068 164 459.975 164H459.009ZM468.794 165.4C468.701 165.4 468.622 165.372 468.556 165.316C468.5 165.26 468.472 165.181 468.472 165.078V164.098C467.819 164.042 467.254 163.893 466.778 163.65C466.312 163.398 465.952 163.09 465.7 162.726C465.458 162.353 465.327 161.956 465.308 161.536C465.308 161.461 465.336 161.396 465.392 161.34C465.448 161.284 465.518 161.256 465.602 161.256H466.274C466.452 161.256 466.573 161.349 466.638 161.536C466.722 161.928 466.96 162.269 467.352 162.558C467.754 162.838 468.323 162.978 469.06 162.978C469.854 162.978 470.446 162.838 470.838 162.558C471.23 162.278 471.426 161.891 471.426 161.396C471.426 161.079 471.328 160.817 471.132 160.612C470.946 160.407 470.661 160.229 470.278 160.08C469.905 159.921 469.34 159.73 468.584 159.506C467.866 159.301 467.292 159.081 466.862 158.848C466.433 158.615 466.111 158.33 465.896 157.994C465.682 157.649 465.574 157.215 465.574 156.692C465.574 155.992 465.831 155.404 466.344 154.928C466.858 154.452 467.567 154.172 468.472 154.088V153.122C468.472 153.019 468.5 152.94 468.556 152.884C468.622 152.828 468.701 152.8 468.794 152.8H469.298C469.392 152.8 469.466 152.833 469.522 152.898C469.578 152.954 469.606 153.029 469.606 153.122V154.102C470.204 154.177 470.717 154.345 471.146 154.606C471.576 154.867 471.898 155.175 472.112 155.53C472.336 155.875 472.458 156.225 472.476 156.58C472.476 156.664 472.448 156.734 472.392 156.79C472.336 156.846 472.266 156.874 472.182 156.874H471.482C471.408 156.874 471.333 156.851 471.258 156.804C471.193 156.757 471.151 156.687 471.132 156.594C471.076 156.193 470.852 155.861 470.46 155.6C470.068 155.339 469.578 155.208 468.99 155.208C468.356 155.208 467.852 155.334 467.478 155.586C467.105 155.829 466.918 156.193 466.918 156.678C466.918 157.005 467.002 157.271 467.17 157.476C467.348 157.681 467.614 157.863 467.968 158.022C468.332 158.181 468.855 158.363 469.536 158.568C470.33 158.792 470.955 159.016 471.412 159.24C471.87 159.464 472.21 159.744 472.434 160.08C472.658 160.407 472.77 160.831 472.77 161.354C472.77 162.147 472.486 162.787 471.916 163.272C471.356 163.757 470.586 164.037 469.606 164.112V165.078C469.606 165.171 469.578 165.246 469.522 165.302C469.466 165.367 469.392 165.4 469.298 165.4H468.794ZM477.422 164.14C476.722 164.14 476.115 164.014 475.602 163.762C475.088 163.51 474.696 163.183 474.426 162.782C474.155 162.371 474.01 161.933 473.992 161.466V161.438C473.992 161.363 474.02 161.303 474.076 161.256C474.132 161.209 474.197 161.186 474.272 161.186H474.958C475.154 161.186 475.28 161.289 475.336 161.494C475.476 161.998 475.732 162.376 476.106 162.628C476.488 162.871 476.927 162.992 477.422 162.992C478.056 162.992 478.584 162.801 479.004 162.418C479.424 162.026 479.634 161.489 479.634 160.808C479.634 160.183 479.424 159.688 479.004 159.324C478.584 158.951 478.056 158.764 477.422 158.764C477.086 158.764 476.815 158.806 476.61 158.89C476.404 158.974 476.194 159.095 475.98 159.254C475.858 159.347 475.756 159.417 475.672 159.464C475.597 159.501 475.513 159.52 475.42 159.52H474.748C474.664 159.52 474.589 159.492 474.524 159.436C474.458 159.371 474.43 159.296 474.44 159.212L474.874 154.55C474.902 154.317 475.018 154.2 475.224 154.2H480.068C480.17 154.2 480.25 154.228 480.306 154.284C480.362 154.34 480.39 154.419 480.39 154.522V155.04C480.39 155.133 480.357 155.208 480.292 155.264C480.236 155.32 480.161 155.348 480.068 155.348H476.036L475.784 158.162C476.232 157.845 476.834 157.686 477.59 157.686C478.215 157.686 478.784 157.812 479.298 158.064C479.811 158.307 480.217 158.666 480.516 159.142C480.824 159.618 480.978 160.183 480.978 160.836C480.978 161.527 480.824 162.124 480.516 162.628C480.217 163.123 479.797 163.501 479.256 163.762C478.724 164.014 478.112 164.14 477.422 164.14ZM485.777 164.14C485.049 164.14 484.419 164.023 483.887 163.79C483.355 163.547 482.949 163.235 482.669 162.852C482.398 162.469 482.253 162.073 482.235 161.662C482.235 161.578 482.263 161.513 482.319 161.466C482.375 161.41 482.445 161.382 482.529 161.382H483.159C483.261 161.382 483.345 161.405 483.411 161.452C483.476 161.489 483.527 161.569 483.565 161.69C483.686 162.166 483.947 162.502 484.349 162.698C484.759 162.894 485.24 162.992 485.791 162.992C486.463 162.992 486.995 162.833 487.387 162.516C487.788 162.189 487.989 161.727 487.989 161.13C487.989 159.991 487.293 159.422 485.903 159.422H484.587C484.493 159.422 484.414 159.394 484.349 159.338C484.293 159.273 484.265 159.193 484.265 159.1V158.736C484.265 158.596 484.316 158.475 484.419 158.372L487.149 155.348H483.005C482.911 155.348 482.832 155.32 482.767 155.264C482.711 155.208 482.683 155.133 482.683 155.04V154.536C482.683 154.433 482.711 154.354 482.767 154.298C482.832 154.233 482.911 154.2 483.005 154.2H488.549C488.651 154.2 488.731 154.233 488.787 154.298C488.852 154.354 488.885 154.433 488.885 154.536V154.998C488.885 155.101 488.838 155.208 488.745 155.32L486.015 158.386H486.239C487.191 158.414 487.942 158.661 488.493 159.128C489.053 159.595 489.333 160.276 489.333 161.172C489.333 161.788 489.179 162.32 488.871 162.768C488.572 163.207 488.152 163.547 487.611 163.79C487.069 164.023 486.458 164.14 485.777 164.14Z" fill="#666666"/>
    <g filter="url(#filter2_d)">
        <rect x="50" y="45" width="308" height="65" rx="3.73297" fill="white"/>
    </g>
    <g clip-path="url(#clip0)">
        <path d="M83.3088 68H67.0034C66.4515 68 66 68.4524 66 69.0053V70.8148C66 71.3677 66.4515 71.8201 67.0034 71.8201H83.2586C83.8105 71.8201 84.262 71.3677 84.262 70.8148V69.0053C84.3122 68.4524 83.8607 68 83.3088 68ZM83.3088 78.1032H67.0034C66.4515 78.1032 66 78.5555 66 79.1085V80.918C66 81.4709 66.4515 81.9233 67.0034 81.9233H83.2586C83.8105 81.9233 84.262 81.4709 84.262 80.918V79.1085C84.3122 78.5555 83.8607 78.1032 83.3088 78.1032ZM76.1846 83.1799H67.0034C66.4515 83.1799 66 83.6323 66 84.1852V85.9947C66 86.5476 66.4515 87 67.0034 87H76.1846C76.7365 87 77.188 86.5476 77.188 85.9947V84.1852C77.188 83.6323 76.7365 83.1799 76.1846 83.1799ZM84.3122 73.0767H67.0034C66.4515 73.0767 66 73.5291 66 74.082V75.8915C66 76.4444 66.4515 76.8968 67.0034 76.8968H84.3122C84.8641 76.8968 85.3156 76.4444 85.3156 75.8915V74.082C85.3156 73.5291 84.8641 73.0767 84.3122 73.0767Z" fill="#0BA4DB"/>
    </g>
    <path d="M97.54 82C97.4467 82 97.372 81.972 97.316 81.916C97.26 81.8507 97.232 81.7713 97.232 81.678V72.536C97.232 72.4333 97.26 72.354 97.316 72.298C97.372 72.2327 97.4467 72.2 97.54 72.2H101.082C102.137 72.2 102.963 72.4567 103.56 72.97C104.167 73.474 104.47 74.2113 104.47 75.182C104.47 76.1527 104.167 76.89 103.56 77.394C102.963 77.898 102.137 78.15 101.082 78.15H98.562V81.678C98.562 81.7713 98.5293 81.8507 98.464 81.916C98.408 81.972 98.3333 82 98.24 82H97.54ZM101.012 77.016C102.421 77.016 103.126 76.4047 103.126 75.182C103.126 74.5847 102.949 74.1273 102.594 73.81C102.249 73.4927 101.721 73.334 101.012 73.334H98.562V77.016H101.012ZM107.898 82.14C107.441 82.14 107.016 82.0467 106.624 81.86C106.241 81.6733 105.933 81.4213 105.7 81.104C105.476 80.7773 105.364 80.418 105.364 80.026C105.364 79.41 105.616 78.906 106.12 78.514C106.624 78.122 107.31 77.8607 108.178 77.73L110.278 77.436V77.03C110.278 76.0687 109.723 75.588 108.612 75.588C108.183 75.588 107.837 75.6767 107.576 75.854C107.315 76.022 107.123 76.2227 107.002 76.456C106.965 76.5493 106.923 76.6147 106.876 76.652C106.839 76.68 106.783 76.694 106.708 76.694H106.162C106.078 76.694 106.003 76.666 105.938 76.61C105.882 76.5447 105.854 76.47 105.854 76.386C105.854 76.1713 105.952 75.924 106.148 75.644C106.353 75.3547 106.666 75.1073 107.086 74.902C107.506 74.6873 108.019 74.58 108.626 74.58C109.671 74.58 110.418 74.8227 110.866 75.308C111.323 75.7933 111.552 76.4 111.552 77.128V81.678C111.552 81.7713 111.519 81.8507 111.454 81.916C111.398 81.972 111.323 82 111.23 82H110.614C110.521 82 110.446 81.972 110.39 81.916C110.334 81.8507 110.306 81.7713 110.306 81.678V81.062C110.101 81.37 109.802 81.6267 109.41 81.832C109.018 82.0373 108.514 82.14 107.898 82.14ZM108.178 81.118C108.794 81.118 109.298 80.9173 109.69 80.516C110.082 80.1147 110.278 79.5313 110.278 78.766V78.374L108.64 78.612C107.968 78.7053 107.459 78.864 107.114 79.088C106.769 79.312 106.596 79.592 106.596 79.928C106.596 80.3107 106.75 80.6047 107.058 80.81C107.375 81.0153 107.749 81.118 108.178 81.118ZM114.703 84.66C114.619 84.66 114.549 84.632 114.493 84.576C114.437 84.52 114.409 84.4547 114.409 84.38C114.409 84.352 114.432 84.268 114.479 84.128L115.571 81.566L112.897 75.252C112.841 75.14 112.813 75.0607 112.813 75.014C112.822 74.93 112.855 74.86 112.911 74.804C112.967 74.748 113.032 74.72 113.107 74.72H113.751C113.9 74.72 114.012 74.7947 114.087 74.944L116.243 80.096L118.455 74.944C118.53 74.7947 118.642 74.72 118.791 74.72H119.421C119.496 74.72 119.561 74.748 119.617 74.804C119.673 74.86 119.701 74.9253 119.701 75C119.701 75.0653 119.678 75.1493 119.631 75.252L115.669 84.436C115.622 84.5107 115.571 84.5667 115.515 84.604C115.468 84.6413 115.403 84.66 115.319 84.66H114.703ZM123.386 82.14C122.742 82.14 122.196 82.0373 121.748 81.832C121.309 81.6173 120.982 81.3747 120.768 81.104C120.553 80.8333 120.446 80.6093 120.446 80.432C120.446 80.3387 120.478 80.2687 120.544 80.222C120.609 80.166 120.679 80.138 120.754 80.138H121.342C121.398 80.138 121.44 80.1473 121.468 80.166C121.505 80.1847 121.552 80.2267 121.608 80.292C121.822 80.5533 122.06 80.7587 122.322 80.908C122.592 81.0573 122.952 81.132 123.4 81.132C123.904 81.132 124.305 81.0387 124.604 80.852C124.912 80.6653 125.066 80.3947 125.066 80.04C125.066 79.8067 125 79.62 124.87 79.48C124.739 79.34 124.52 79.214 124.212 79.102C123.913 78.99 123.465 78.8687 122.868 78.738C122.056 78.5607 121.482 78.304 121.146 77.968C120.81 77.632 120.642 77.198 120.642 76.666C120.642 76.3207 120.744 75.9893 120.95 75.672C121.155 75.3453 121.458 75.084 121.86 74.888C122.27 74.6827 122.756 74.58 123.316 74.58C123.904 74.58 124.403 74.678 124.814 74.874C125.234 75.07 125.546 75.2987 125.752 75.56C125.966 75.8213 126.074 76.0407 126.074 76.218C126.074 76.302 126.041 76.372 125.976 76.428C125.92 76.484 125.85 76.512 125.766 76.512H125.234C125.103 76.512 125.01 76.4607 124.954 76.358C124.795 76.1807 124.66 76.0453 124.548 75.952C124.445 75.8493 124.291 75.7653 124.086 75.7C123.88 75.6253 123.624 75.588 123.316 75.588C122.858 75.588 122.508 75.686 122.266 75.882C122.023 76.0687 121.902 76.3207 121.902 76.638C121.902 76.834 121.953 77.002 122.056 77.142C122.158 77.2727 122.354 77.3987 122.644 77.52C122.933 77.632 123.362 77.7487 123.932 77.87C124.818 78.0567 125.444 78.3227 125.808 78.668C126.181 79.0133 126.368 79.4567 126.368 79.998C126.368 80.3993 126.251 80.7633 126.018 81.09C125.794 81.4167 125.453 81.6733 124.996 81.86C124.548 82.0467 124.011 82.14 123.386 82.14ZM130.789 82C129.343 82 128.619 81.1833 128.619 79.55V75.798H127.513C127.42 75.798 127.345 75.77 127.289 75.714C127.233 75.658 127.205 75.5833 127.205 75.49V75.042C127.205 74.9487 127.233 74.874 127.289 74.818C127.345 74.7527 127.42 74.72 127.513 74.72H128.619V72.382C128.619 72.2887 128.647 72.214 128.703 72.158C128.759 72.0927 128.834 72.06 128.927 72.06H129.543C129.637 72.06 129.711 72.0927 129.767 72.158C129.833 72.214 129.865 72.2887 129.865 72.382V74.72H131.601C131.695 74.72 131.769 74.7527 131.825 74.818C131.891 74.874 131.923 74.9487 131.923 75.042V75.49C131.923 75.5833 131.891 75.658 131.825 75.714C131.769 75.77 131.695 75.798 131.601 75.798H129.865V79.452C129.865 79.928 129.94 80.2873 130.089 80.53C130.248 80.7727 130.514 80.894 130.887 80.894H131.741C131.835 80.894 131.909 80.9267 131.965 80.992C132.021 81.048 132.049 81.1227 132.049 81.216V81.678C132.049 81.7713 132.021 81.8507 131.965 81.916C131.909 81.972 131.835 82 131.741 82H130.789ZM135.433 82.14C134.976 82.14 134.551 82.0467 134.159 81.86C133.777 81.6733 133.469 81.4213 133.235 81.104C133.011 80.7773 132.899 80.418 132.899 80.026C132.899 79.41 133.151 78.906 133.655 78.514C134.159 78.122 134.845 77.8607 135.713 77.73L137.813 77.436V77.03C137.813 76.0687 137.258 75.588 136.147 75.588C135.718 75.588 135.373 75.6767 135.111 75.854C134.85 76.022 134.659 76.2227 134.537 76.456C134.5 76.5493 134.458 76.6147 134.411 76.652C134.374 76.68 134.318 76.694 134.243 76.694H133.697C133.613 76.694 133.539 76.666 133.473 76.61C133.417 76.5447 133.389 76.47 133.389 76.386C133.389 76.1713 133.487 75.924 133.683 75.644C133.889 75.3547 134.201 75.1073 134.621 74.902C135.041 74.6873 135.555 74.58 136.161 74.58C137.207 74.58 137.953 74.8227 138.401 75.308C138.859 75.7933 139.087 76.4 139.087 77.128V81.678C139.087 81.7713 139.055 81.8507 138.989 81.916C138.933 81.972 138.859 82 138.765 82H138.149C138.056 82 137.981 81.972 137.925 81.916C137.869 81.8507 137.841 81.7713 137.841 81.678V81.062C137.636 81.37 137.337 81.6267 136.945 81.832C136.553 82.0373 136.049 82.14 135.433 82.14ZM135.713 81.118C136.329 81.118 136.833 80.9173 137.225 80.516C137.617 80.1147 137.813 79.5313 137.813 78.766V78.374L136.175 78.612C135.503 78.7053 134.995 78.864 134.649 79.088C134.304 79.312 134.131 79.592 134.131 79.928C134.131 80.3107 134.285 80.6047 134.593 80.81C134.911 81.0153 135.284 81.118 135.713 81.118ZM144.026 82.14C143.028 82.14 142.248 81.86 141.688 81.3C141.128 80.7307 140.834 79.9373 140.806 78.92L140.792 78.36L140.806 77.8C140.834 76.7827 141.128 75.994 141.688 75.434C142.248 74.8647 143.028 74.58 144.026 74.58C144.698 74.58 145.263 74.7013 145.72 74.944C146.187 75.1773 146.532 75.4713 146.756 75.826C146.99 76.1807 147.116 76.5353 147.134 76.89C147.144 76.974 147.111 77.0487 147.036 77.114C146.971 77.1793 146.896 77.212 146.812 77.212H146.196C146.103 77.212 146.033 77.1933 145.986 77.156C145.94 77.1093 145.893 77.03 145.846 76.918C145.678 76.4607 145.445 76.1387 145.146 75.952C144.857 75.756 144.488 75.658 144.04 75.658C143.452 75.658 142.986 75.84 142.64 76.204C142.295 76.568 142.108 77.1233 142.08 77.87L142.066 78.36L142.08 78.85C142.108 79.5967 142.295 80.152 142.64 80.516C142.986 80.88 143.452 81.062 144.04 81.062C144.498 81.062 144.871 80.9687 145.16 80.782C145.45 80.586 145.678 80.2593 145.846 79.802C145.893 79.69 145.94 79.6153 145.986 79.578C146.033 79.5313 146.103 79.508 146.196 79.508H146.812C146.896 79.508 146.971 79.5407 147.036 79.606C147.111 79.6713 147.144 79.746 147.134 79.83C147.116 80.1753 146.99 80.5253 146.756 80.88C146.532 81.2347 146.187 81.5333 145.72 81.776C145.263 82.0187 144.698 82.14 144.026 82.14ZM149.148 82C149.054 82 148.975 81.972 148.91 81.916C148.854 81.8507 148.826 81.7713 148.826 81.678V72.382C148.826 72.2793 148.854 72.2 148.91 72.144C148.975 72.088 149.054 72.06 149.148 72.06H149.75C149.843 72.06 149.918 72.0927 149.974 72.158C150.039 72.214 150.072 72.2887 150.072 72.382V77.268L152.872 74.958C153.012 74.8553 153.11 74.79 153.166 74.762C153.222 74.734 153.31 74.72 153.432 74.72H154.132C154.216 74.72 154.281 74.748 154.328 74.804C154.384 74.8507 154.412 74.9207 154.412 75.014C154.412 75.098 154.36 75.1867 154.258 75.28L150.982 77.968L154.608 81.44C154.71 81.5427 154.762 81.6313 154.762 81.706C154.762 81.79 154.734 81.86 154.678 81.916C154.631 81.972 154.566 82 154.482 82H153.796C153.656 82 153.553 81.986 153.488 81.958C153.432 81.93 153.348 81.8647 153.236 81.762L150.072 78.766V81.678C150.072 81.7713 150.039 81.8507 149.974 81.916C149.918 81.972 149.843 82 149.75 82H149.148Z" fill="#666666"/>
    <defs>
        <filter id="filter0_d" x="0.00274086" y="162.736" width="405.995" height="160.995" filterUnits="userSpaceOnUse" color-interpolation-filters="sRGB">
            <feFlood flood-opacity="0" result="BackgroundImageFix"/>
            <feColorMatrix in="SourceAlpha" type="matrix" values="0 0 0 0 0 0 0 0 0 0 0 0 0 0 0 0 0 0 127 0" result="hardAlpha"/>
            <feMorphology radius="20" operator="dilate" in="SourceAlpha" result="effect1_dropShadow"/>
            <feOffset dy="3.73297"/>
            <feGaussianBlur stdDeviation="13.9986"/>
            <feColorMatrix type="matrix" values="0 0 0 0 0 0 0 0 0 0 0 0 0 0 0 0 0 0 0.04 0"/>
            <feBlend mode="normal" in2="BackgroundImageFix" result="effect1_dropShadow"/>
            <feBlend mode="normal" in="SourceGraphic" in2="effect1_dropShadow" result="shape"/>
        </filter>
        <filter id="filter1_d" x="150.003" y="81.7357" width="403.995" height="160.995" filterUnits="userSpaceOnUse" color-interpolation-filters="sRGB">
            <feFlood flood-opacity="0" result="BackgroundImageFix"/>
            <feColorMatrix in="SourceAlpha" type="matrix" values="0 0 0 0 0 0 0 0 0 0 0 0 0 0 0 0 0 0 127 0" result="hardAlpha"/>
            <feMorphology radius="20" operator="dilate" in="SourceAlpha" result="effect1_dropShadow"/>
            <feOffset dy="3.73297"/>
            <feGaussianBlur stdDeviation="13.9986"/>
            <feColorMatrix type="matrix" values="0 0 0 0 0 0 0 0 0 0 0 0 0 0 0 0 0 0 0.04 0"/>
            <feBlend mode="normal" in2="BackgroundImageFix" result="effect1_dropShadow"/>
            <feBlend mode="normal" in="SourceGraphic" in2="effect1_dropShadow" result="shape"/>
        </filter>
        <filter id="filter2_d" x="2.00274" y="0.735709" width="403.995" height="160.995" filterUnits="userSpaceOnUse" color-interpolation-filters="sRGB">
            <feFlood flood-opacity="0" result="BackgroundImageFix"/>
            <feColorMatrix in="SourceAlpha" type="matrix" values="0 0 0 0 0 0 0 0 0 0 0 0 0 0 0 0 0 0 127 0" result="hardAlpha"/>
            <feMorphology radius="20" operator="dilate" in="SourceAlpha" result="effect1_dropShadow"/>
            <feOffset dy="3.73297"/>
            <feGaussianBlur stdDeviation="13.9986"/>
            <feColorMatrix type="matrix" values="0 0 0 0 0 0 0 0 0 0 0 0 0 0 0 0 0 0 0.04 0"/>
            <feBlend mode="normal" in2="BackgroundImageFix" result="effect1_dropShadow"/>
            <feBlend mode="normal" in="SourceGraphic" in2="effect1_dropShadow" result="shape"/>
        </filter>
        <clipPath id="clip0">
            <rect width="19.3156" height="19" fill="white" transform="translate(66 68)"/>
        </clipPath>
    </defs>
</svg>