<svg width="100" height="32" viewBox="0 0 100 32" fill="none" xmlns="http://www.w3.org/2000/svg">
    <path
        d="M21.83 0.649379C22.5355 0.649379 23.2444 0.649379 23.9528 0.644444C23.9449 3.20146 23.9782 5.75898 23.9371 8.316C23.919 9.96638 23.2287 11.7254 21.7293 12.5441C20.0346 13.4147 17.886 13.4098 16.2246 12.4637C14.8102 11.6286 14.1229 9.9116 14.161 8.31057C14.1689 5.75601 14.1635 3.20146 14.1664 0.646912H16.2265C16.2319 2.85845 16.2216 5.06753 16.229 7.27907C16.2652 8.29527 16.2676 9.40128 16.8733 10.2674C17.6873 11.3981 19.3952 11.5047 20.5424 10.8681C21.5805 10.2364 21.8022 8.9191 21.8227 7.79383C21.8403 5.41301 21.8247 3.03021 21.83 0.649379ZM31.0264 0.696265C32.8111 0.16127 34.8027 0.486018 36.3922 1.44496C36.3824 2.19317 36.3824 2.9389 36.3824 3.68513C35.0483 2.68177 33.2734 1.94393 31.6169 2.52828C30.9007 2.74445 30.432 3.61406 30.7769 4.3139C31.0601 4.98412 31.8307 5.17907 32.4402 5.4288C33.7538 5.95639 35.2684 6.23968 36.2425 7.35952C37.4944 8.88504 37.1773 11.601 35.3433 12.5288C33.2797 13.6072 30.7011 13.2642 28.7227 12.1414C28.7202 11.372 28.7202 10.6055 28.7124 9.83609C30.2016 10.9929 32.2675 11.679 34.0914 10.9747C35.0859 10.6109 35.2122 9.04989 34.3105 8.51094C32.9114 7.65614 31.1932 7.48192 29.8513 6.51261C28.6718 5.65681 28.3239 3.96052 28.8137 2.62452C29.1791 1.65521 30.0631 0.982024 31.0264 0.696265ZM50.1783 0.462329C52.986 3.0613 55.7168 5.74861 58.4731 8.40434V0.646912H60.5337V13.1941C57.7231 10.5014 54.9903 7.72868 52.1641 5.05075V12.9202C51.4973 12.9251 50.8324 12.9251 50.1681 12.9276C50.1715 8.7735 50.151 4.62038 50.1783 0.462329ZM65.9469 0.644444C68.4331 0.644444 70.9164 0.657276 73.3996 0.636547C73.4148 1.26828 73.4148 1.89951 73.4148 2.53124C71.6326 2.53124 69.8523 2.52828 68.0696 2.53124V5.44953C69.6591 5.45496 71.2461 5.44953 72.8356 5.45496V7.33632C71.2459 7.33863 69.6573 7.33863 68.0696 7.33632C68.0696 8.57017 68.0696 9.80796 68.075 11.0423C69.8523 11.0344 71.6326 11.0423 73.4075 11.0369C73.4099 11.6869 73.4124 12.3388 73.4124 12.9888H65.942C65.9469 8.87468 65.9395 4.76104 65.9469 0.644444ZM79.4532 1.12762C81.3852 -0.000116378 83.8533 0.34536 85.749 1.38524C85.7852 2.14924 85.7852 2.91521 85.7828 3.6797C84.4071 2.64031 82.5539 1.89704 80.8651 2.57812C79.9067 2.9236 79.7957 4.38151 80.6665 4.88541C82.0852 5.70666 83.8195 5.87249 85.1463 6.88128C86.929 8.22222 86.7974 11.4682 84.7598 12.5076C82.6963 13.5993 80.0922 13.277 78.1186 12.1231C78.1186 11.3641 78.1186 10.6055 78.1059 9.84646C79.5432 10.8829 81.3724 11.5877 83.1449 11.1045C83.799 10.9382 84.3992 10.3454 84.3063 9.61795C84.3195 9.06173 83.933 8.57313 83.4487 8.34462C82.0573 7.61665 80.4155 7.41134 79.1543 6.42673C77.5081 5.14008 77.6167 2.1907 79.4532 1.12762ZM91.8183 1.16957C93.7345 -0.000116378 96.2437 0.314267 98.137 1.38228C98.1448 2.13888 98.1448 2.89251 98.1502 3.64861C96.7872 2.60922 94.9272 1.90494 93.261 2.59096C92.3314 2.95469 92.2253 4.37115 93.0751 4.88541C94.528 5.73825 96.3367 5.87249 97.6659 6.96222C98.8097 7.87181 99.0386 9.55823 98.5954 10.8888C98.1805 12.0733 96.9981 12.7643 95.8362 13.0169C94.0535 13.3886 92.1499 13.0559 90.5658 12.1572C90.5399 11.3853 90.5399 10.6134 90.5375 9.84152C92.0364 10.9643 94.0794 11.6839 95.9008 10.9767C96.8924 10.6129 97.0446 9.0795 96.1508 8.52328C94.713 7.61616 92.8994 7.48685 91.5521 6.41045C89.9636 5.12478 90.038 2.2514 91.8183 1.16957ZM0.962891 0.646912C3.12279 0.774244 5.36586 0.326606 7.45581 1.01361C9.77666 1.76428 10.1064 5.42633 7.98906 6.61625C9.91854 7.4222 10.3613 10.1821 9.03745 11.7101C8.22339 12.6873 6.89419 12.9469 5.6912 12.9834C4.11444 13.0095 2.54062 12.9834 0.963869 12.9913V0.646912M3.0274 2.53371C3.02479 3.61488 3.02479 4.6959 3.0274 5.77674C4.13499 5.72245 5.28416 5.9327 6.36583 5.61832C7.67204 5.23632 7.68232 3.06623 6.38393 2.6714C5.28906 2.39058 4.14282 2.58306 3.0274 2.53371ZM3.0274 7.59888C3.0225 8.76808 3.02495 9.93776 3.0274 11.103C4.29937 11.0122 5.66527 11.3552 6.86826 10.8172C8.06097 10.2299 7.95286 8.22864 6.70339 7.77903C5.5185 7.4064 4.24849 7.68032 3.0274 7.59888ZM42.2452 0.646912H44.3077V12.9913H42.2452V0.646912ZM33.8008 19.813C35.7249 18.5836 38.2908 18.9246 40.1919 20.0341C40.1816 20.7773 40.1816 21.5206 40.1841 22.2634C38.7932 21.2373 36.8819 20.4447 35.2073 21.2319C34.3805 21.6297 34.2724 22.8689 35.0165 23.4069C36.5419 24.3841 38.5692 24.431 39.8852 25.767C40.7658 26.606 40.9125 27.9445 40.6865 29.088C40.4238 30.2315 39.4346 31.0839 38.3446 31.4076C36.4367 31.9999 34.2954 31.6806 32.5797 30.6747C32.585 29.9132 32.5875 29.1522 32.5797 28.3906C34.0302 29.4898 36.0008 30.2123 37.7835 29.5677C38.8598 29.2765 39.0741 27.6084 38.1 27.0625C36.6602 26.1554 34.8286 26.0414 33.5043 24.9186C32.0029 23.6384 32.1007 20.8834 33.8008 19.813ZM9.14313 19.2933H11.2013C11.2062 23.363 11.207 27.4343 11.2037 31.5073H9.14313V19.2933ZM17.0616 19.0075C19.8027 21.6474 22.5375 24.2982 25.3025 26.913C25.3128 24.3505 25.305 21.7906 25.3074 19.2311C25.9923 19.2281 26.6794 19.2271 27.3685 19.2281C27.3734 23.3941 27.3631 27.5571 27.3734 31.723C24.5785 29.0505 21.8379 26.3178 19.064 23.6216C19.0508 26.2492 19.064 28.8788 19.0586 31.5088H17.0621C17.0595 27.3404 17.0593 23.1733 17.0616 19.0075ZM46.0444 19.2933H48.1055V31.5073H46.0444V19.2933ZM54.0329 19.2933C55.692 19.2933 57.3528 19.2915 59.0151 19.2878C60.903 19.2646 62.853 20.2394 63.7757 21.9416C64.7674 23.7292 64.8314 25.9511 64.216 27.8769C63.5565 29.9004 61.5933 31.3316 59.5019 31.4683C57.6805 31.5621 55.8567 31.4817 54.0329 31.5073V19.2933ZM56.1556 21.1771V29.6205C57.6316 29.5662 59.2211 29.8495 60.5938 29.1532C61.9147 28.4666 62.5184 26.9076 62.4798 25.4728C62.5336 24.0228 62.0263 22.3961 60.7024 21.6529C59.3135 20.8706 57.6678 21.2763 56.1556 21.1771ZM68.8426 19.2933C71.3102 19.291 73.7789 19.291 76.2488 19.2933C76.2488 19.922 76.2459 20.5508 76.2459 21.1801C74.4638 21.1748 72.6829 21.1748 70.9031 21.1801V24.0332C72.4902 24.0362 74.0788 24.0371 75.6691 24.0362V25.8553C74.0797 25.8553 72.4892 25.8524 70.9031 25.8553V29.6181C72.6834 29.6235 74.4661 29.6181 76.2488 29.621V31.5049H68.8426V19.2933ZM82.3049 19.2908C83.9765 19.3061 85.6487 19.275 87.3179 19.3012C88.7367 19.3372 90.2366 20.1614 90.6446 21.606C91.0106 22.8615 90.923 24.3505 90.1241 25.4235C89.6349 26.0651 88.8413 26.3074 88.0997 26.5127C89.5471 28.1625 90.9836 29.824 92.4092 31.4975C91.5939 31.5133 90.7816 31.5133 89.9724 31.4975C88.5914 29.8421 87.1839 28.21 85.7965 26.565C85.3381 26.568 84.8821 26.568 84.4266 26.568C84.4217 28.213 84.4242 29.8579 84.4242 31.5034C83.7158 31.5057 83.0074 31.5057 82.299 31.5034V19.2868M84.4242 21.1129C84.4193 22.3241 84.4217 23.5352 84.4242 24.7459C85.5244 24.6837 86.6746 24.9201 87.7396 24.5746C89.0561 24.0416 89.0845 21.9095 87.7886 21.3414C86.723 20.9303 85.5455 21.1722 84.4301 21.1149"
        fill="white" />
</svg>