<svg width="115" height="32" viewBox="0 0 115 32" fill="none" xmlns="http://www.w3.org/2000/svg">
    <g clip-path="url(#clip0_1_11012)">
        <path fill-rule="evenodd" clip-rule="evenodd"
            d="M21.51 7.92214H14.7321L10.7599 17.3778L6.78768 7.92214H0.00976562C2.47189 13.7831 4.93304 19.645 7.39613 25.5052L4.6677 32H11.4456C14.8351 23.9314 18.1424 15.9383 21.5098 7.92231L21.51 7.92214ZM107.696 0.0504235H114.99L108.394 15.9809H101.1L107.696 0.0504235ZM102.893 17.5172C105.164 17.5172 107.005 19.3574 107.005 21.6276C107.005 23.8978 105.164 25.7381 102.893 25.7381C100.622 25.7381 98.7804 23.8978 98.7804 21.6276C98.7804 19.3576 100.622 17.5172 102.893 17.5172ZM88.5506 7.44393C93.6582 7.44393 97.7986 11.5824 97.7986 16.6873C97.7986 21.7923 93.6581 25.9306 88.5506 25.9306C83.443 25.9306 79.3027 21.7922 79.3027 16.6873C79.3027 11.5822 83.4432 7.44393 88.5506 7.44393ZM88.5506 13.0781C90.545 13.0781 92.1617 14.6941 92.1617 16.6874C92.1617 18.6808 90.545 20.2967 88.5506 20.2967C86.5563 20.2967 84.9395 18.6808 84.9395 16.6874C84.9395 14.6941 86.5563 13.0781 88.5506 13.0781ZM68.6966 7.44393C73.8042 7.44393 77.9446 11.5824 77.9446 16.6873C77.9446 21.7923 73.8041 25.9306 68.6966 25.9306C63.589 25.9306 59.4487 21.7922 59.4487 16.6873C59.4487 11.5822 63.5892 7.44393 68.6966 7.44393ZM68.6966 13.0781C70.691 13.0781 72.3077 14.6941 72.3077 16.6874C72.3077 18.6808 70.691 20.2967 68.6966 20.2967C66.7023 20.2967 65.0855 18.6808 65.0855 16.6874C65.0855 14.6941 66.7023 13.0781 68.6966 13.0781ZM41.3939 0.000161614H47.5093V9.50273C47.5093 9.50273 48.5792 7.44393 52.1136 7.44393C55.6479 7.44393 57.9147 8.99817 57.96 15.3624V25.7381H51.8445V15.3624C51.8445 14.1658 50.874 13.1958 49.6768 13.1958C48.452 13.1958 47.4796 14.2023 47.5101 15.4238L47.5092 25.7381H41.3937V0L41.3939 0.000161614ZM33.0668 7.92214H39.1822V25.7383H33.0668V24.0588C31.6972 25.2334 29.9905 25.9309 28.1398 25.9309C23.6298 25.9309 19.9737 21.7925 19.9737 16.6876C19.9737 11.5825 23.6298 7.44425 28.1398 7.44425C29.9905 7.44425 31.6974 8.14161 33.0668 9.31639V7.92247V7.92214ZM29.6222 13.0781C31.6165 13.0781 33.2333 14.6941 33.2333 16.6874C33.2333 18.6808 31.6165 20.2967 29.6222 20.2967C27.6278 20.2967 26.0111 18.6808 26.0111 16.6874C26.0111 14.6941 27.6278 13.0781 29.6222 13.0781Z"
            fill="white" />
    </g>
    <defs>
        <clipPath id="clip0_1_11012">
            <rect width="115" height="32" fill="white" />
        </clipPath>
    </defs>
</svg>