<svg width="71" height="71" viewBox="0 0 71 71" fill="none" xmlns="http://www.w3.org/2000/svg">
    <path d="M29.8661 45.2615L20.0894 35.4849C19.7229 35.1184 19.2734 34.9226 18.7412 34.8974C18.2089 34.8723 17.7344 35.0681 17.3177 35.4849C16.9009 35.9017 16.6925 36.3637 16.6925 36.8708C16.6925 37.378 16.9009 37.8399 17.3177 38.2567L27.6516 48.5907C28.2843 49.2234 29.0224 49.5398 29.8661 49.5398C30.7097 49.5398 31.4478 49.2234 32.0805 48.5907L53.5317 27.1394C53.8983 26.7729 54.0941 26.3234 54.1192 25.7912C54.1444 25.2589 53.9485 24.7844 53.5317 24.3677C53.1149 23.9509 52.653 23.7425 52.1458 23.7425C51.6387 23.7425 51.1767 23.9509 50.7599 24.3677L29.8661 45.2615ZM35.5131 70.75C30.6386 70.75 26.0558 69.8251 21.7646 67.9751C17.4735 66.1252 13.7407 63.6145 10.5664 60.4432C7.39214 57.2719 4.87917 53.5426 3.0275 49.2555C1.17583 44.9683 0.25 40.3875 0.25 35.5131C0.25 30.6386 1.17495 26.0558 3.02486 21.7646C4.87483 17.4735 7.38548 13.7407 10.5568 10.5664C13.7281 7.39214 17.4574 4.87918 21.7445 3.02751C26.0317 1.17584 30.6125 0.25 35.4869 0.25C40.3614 0.25 44.9442 1.17495 49.2354 3.02486C53.5265 4.87483 57.2593 7.38548 60.4336 10.5568C63.6079 13.7281 66.1208 17.4574 67.9725 21.7445C69.8242 26.0317 70.75 30.6125 70.75 35.4869C70.75 40.3614 69.8251 44.9442 67.9751 49.2354C66.1252 53.5265 63.6145 57.2593 60.4432 60.4336C57.2719 63.6079 53.5426 66.1208 49.2555 67.9725C44.9683 69.8242 40.3875 70.75 35.5131 70.75Z" fill="#5CBF90"/>
    </svg>