<svg width="726" height="338" viewBox="0 0 726 338" fill="none" xmlns="http://www.w3.org/2000/svg">
    <rect x="0.5" y="0.5" width="725" height="337" rx="9.5" fill="white"/>
    <rect x="0.5" y="0.5" width="725" height="337" rx="9.5" stroke="#E8E8E8"/>
    <path d="M28.056 105.144C27.496 105.144 26.976 105.04 26.496 104.832C26.016 104.616 25.608 104.324 25.272 103.956C24.936 103.588 24.688 103.164 24.528 102.684L25.728 102.18C25.944 102.732 26.26 103.156 26.676 103.452C27.092 103.748 27.572 103.896 28.116 103.896C28.436 103.896 28.716 103.848 28.956 103.752C29.196 103.648 29.38 103.504 29.508 103.32C29.644 103.136 29.712 102.924 29.712 102.684C29.712 102.356 29.62 102.096 29.436 101.904C29.252 101.712 28.98 101.56 28.62 101.448L26.94 100.92C26.268 100.712 25.756 100.396 25.404 99.972C25.052 99.54 24.876 99.036 24.876 98.46C24.876 97.956 25 97.516 25.248 97.14C25.496 96.756 25.836 96.456 26.268 96.24C26.708 96.024 27.208 95.916 27.768 95.916C28.304 95.916 28.792 96.012 29.232 96.204C29.672 96.388 30.048 96.644 30.36 96.972C30.68 97.3 30.912 97.68 31.056 98.112L29.88 98.628C29.704 98.156 29.428 97.792 29.052 97.536C28.684 97.28 28.256 97.152 27.768 97.152C27.472 97.152 27.212 97.204 26.988 97.308C26.764 97.404 26.588 97.548 26.46 97.74C26.34 97.924 26.28 98.14 26.28 98.388C26.28 98.676 26.372 98.932 26.556 99.156C26.74 99.38 27.02 99.548 27.396 99.66L28.956 100.152C29.668 100.368 30.204 100.68 30.564 101.088C30.924 101.488 31.104 101.988 31.104 102.588C31.104 103.084 30.972 103.524 30.708 103.908C30.452 104.292 30.096 104.596 29.64 104.82C29.184 105.036 28.656 105.144 28.056 105.144ZM27.504 106.2V94.86H28.464V106.2H27.504ZM33.6415 105V97.26H31.9255V96.06H35.0455V105H33.6415ZM39.5768 105.144C39.1048 105.144 38.6608 105.06 38.2448 104.892C37.8288 104.716 37.4688 104.472 37.1648 104.16C36.8608 103.848 36.6448 103.472 36.5168 103.032L37.7048 102.576C37.8568 103 38.1048 103.324 38.4488 103.548C38.7928 103.772 39.1688 103.884 39.5768 103.884C39.9128 103.884 40.2088 103.808 40.4648 103.656C40.7208 103.504 40.9208 103.296 41.0648 103.032C41.2168 102.768 41.2928 102.468 41.2928 102.132C41.2928 101.788 41.2168 101.488 41.0648 101.232C40.9208 100.968 40.7208 100.764 40.4648 100.62C40.2088 100.468 39.9128 100.392 39.5768 100.392C39.2408 100.392 38.9328 100.468 38.6528 100.62C38.3728 100.772 38.1688 100.976 38.0408 101.232L36.9008 100.98L37.5968 96.06H42.3608V97.26H38.1488L38.6888 96.672L38.1728 100.44L37.7288 100.14C37.9688 99.804 38.2608 99.56 38.6048 99.408C38.9488 99.256 39.3408 99.18 39.7808 99.18C40.3648 99.18 40.8728 99.312 41.3048 99.576C41.7448 99.832 42.0848 100.184 42.3248 100.632C42.5728 101.072 42.6968 101.572 42.6968 102.132C42.6968 102.7 42.5608 103.212 42.2888 103.668C42.0168 104.124 41.6448 104.484 41.1728 104.748C40.7088 105.012 40.1768 105.144 39.5768 105.144ZM43.9236 105V95.916H45.2796V102L44.7516 101.868L48.0036 98.508H49.6956L47.2476 101.112L49.8036 105H48.2436L45.9636 101.556L46.7676 101.448L44.8476 103.488L45.2796 102.588V105H43.9236Z" fill="#14171F" fill-opacity="0.6"/>
    <path d="M28.056 143.144C27.496 143.144 26.976 143.04 26.496 142.832C26.016 142.616 25.608 142.324 25.272 141.956C24.936 141.588 24.688 141.164 24.528 140.684L25.728 140.18C25.944 140.732 26.26 141.156 26.676 141.452C27.092 141.748 27.572 141.896 28.116 141.896C28.436 141.896 28.716 141.848 28.956 141.752C29.196 141.648 29.38 141.504 29.508 141.32C29.644 141.136 29.712 140.924 29.712 140.684C29.712 140.356 29.62 140.096 29.436 139.904C29.252 139.712 28.98 139.56 28.62 139.448L26.94 138.92C26.268 138.712 25.756 138.396 25.404 137.972C25.052 137.54 24.876 137.036 24.876 136.46C24.876 135.956 25 135.516 25.248 135.14C25.496 134.756 25.836 134.456 26.268 134.24C26.708 134.024 27.208 133.916 27.768 133.916C28.304 133.916 28.792 134.012 29.232 134.204C29.672 134.388 30.048 134.644 30.36 134.972C30.68 135.3 30.912 135.68 31.056 136.112L29.88 136.628C29.704 136.156 29.428 135.792 29.052 135.536C28.684 135.28 28.256 135.152 27.768 135.152C27.472 135.152 27.212 135.204 26.988 135.308C26.764 135.404 26.588 135.548 26.46 135.74C26.34 135.924 26.28 136.14 26.28 136.388C26.28 136.676 26.372 136.932 26.556 137.156C26.74 137.38 27.02 137.548 27.396 137.66L28.956 138.152C29.668 138.368 30.204 138.68 30.564 139.088C30.924 139.488 31.104 139.988 31.104 140.588C31.104 141.084 30.972 141.524 30.708 141.908C30.452 142.292 30.096 142.596 29.64 142.82C29.184 143.036 28.656 143.144 28.056 143.144ZM27.504 144.2V132.86H28.464V144.2H27.504ZM33.6415 143V135.26H31.9255V134.06H35.0455V143H33.6415ZM40.2968 143.144C39.5848 143.144 38.9608 142.952 38.4248 142.568C37.8888 142.176 37.4688 141.636 37.1648 140.948C36.8688 140.252 36.7208 139.444 36.7208 138.524C36.7208 137.596 36.8688 136.788 37.1648 136.1C37.4688 135.412 37.8848 134.876 38.4128 134.492C38.9488 134.108 39.5728 133.916 40.2848 133.916C40.9968 133.916 41.6168 134.108 42.1448 134.492C42.6808 134.876 43.0968 135.416 43.3928 136.112C43.6968 136.8 43.8488 137.604 43.8488 138.524C43.8488 139.444 43.7008 140.252 43.4048 140.948C43.1088 141.636 42.6928 142.176 42.1568 142.568C41.6288 142.952 41.0088 143.144 40.2968 143.144ZM40.2968 141.848C40.7368 141.848 41.1168 141.712 41.4368 141.44C41.7568 141.168 42.0048 140.784 42.1808 140.288C42.3568 139.792 42.4448 139.204 42.4448 138.524C42.4448 137.844 42.3568 137.256 42.1808 136.76C42.0048 136.264 41.7568 135.88 41.4368 135.608C41.1168 135.336 40.7328 135.2 40.2848 135.2C39.8448 135.2 39.4648 135.336 39.1448 135.608C38.8248 135.88 38.5768 136.264 38.4008 136.76C38.2248 137.256 38.1368 137.844 38.1368 138.524C38.1368 139.196 38.2248 139.784 38.4008 140.288C38.5768 140.784 38.8248 141.168 39.1448 141.44C39.4728 141.712 39.8568 141.848 40.2968 141.848ZM45.1306 143V133.916H46.4866V140L45.9586 139.868L49.2106 136.508H50.9026L48.4546 139.112L51.0106 143H49.4506L47.1706 139.556L47.9746 139.448L46.0546 141.488L46.4866 140.588V143H45.1306Z" fill="#14171F" fill-opacity="0.6"/>
    <path d="M28.056 181.144C27.496 181.144 26.976 181.04 26.496 180.832C26.016 180.616 25.608 180.324 25.272 179.956C24.936 179.588 24.688 179.164 24.528 178.684L25.728 178.18C25.944 178.732 26.26 179.156 26.676 179.452C27.092 179.748 27.572 179.896 28.116 179.896C28.436 179.896 28.716 179.848 28.956 179.752C29.196 179.648 29.38 179.504 29.508 179.32C29.644 179.136 29.712 178.924 29.712 178.684C29.712 178.356 29.62 178.096 29.436 177.904C29.252 177.712 28.98 177.56 28.62 177.448L26.94 176.92C26.268 176.712 25.756 176.396 25.404 175.972C25.052 175.54 24.876 175.036 24.876 174.46C24.876 173.956 25 173.516 25.248 173.14C25.496 172.756 25.836 172.456 26.268 172.24C26.708 172.024 27.208 171.916 27.768 171.916C28.304 171.916 28.792 172.012 29.232 172.204C29.672 172.388 30.048 172.644 30.36 172.972C30.68 173.3 30.912 173.68 31.056 174.112L29.88 174.628C29.704 174.156 29.428 173.792 29.052 173.536C28.684 173.28 28.256 173.152 27.768 173.152C27.472 173.152 27.212 173.204 26.988 173.308C26.764 173.404 26.588 173.548 26.46 173.74C26.34 173.924 26.28 174.14 26.28 174.388C26.28 174.676 26.372 174.932 26.556 175.156C26.74 175.38 27.02 175.548 27.396 175.66L28.956 176.152C29.668 176.368 30.204 176.68 30.564 177.088C30.924 177.488 31.104 177.988 31.104 178.588C31.104 179.084 30.972 179.524 30.708 179.908C30.452 180.292 30.096 180.596 29.64 180.82C29.184 181.036 28.656 181.144 28.056 181.144ZM27.504 182.2V170.86H28.464V182.2H27.504ZM35.1175 181.144C34.6455 181.144 34.2015 181.06 33.7855 180.892C33.3695 180.716 33.0095 180.472 32.7055 180.16C32.4015 179.848 32.1855 179.472 32.0575 179.032L33.2455 178.576C33.3975 179 33.6455 179.324 33.9895 179.548C34.3335 179.772 34.7095 179.884 35.1175 179.884C35.4535 179.884 35.7495 179.808 36.0055 179.656C36.2615 179.504 36.4615 179.296 36.6055 179.032C36.7575 178.768 36.8335 178.468 36.8335 178.132C36.8335 177.788 36.7575 177.488 36.6055 177.232C36.4615 176.968 36.2615 176.764 36.0055 176.62C35.7495 176.468 35.4535 176.392 35.1175 176.392C34.7815 176.392 34.4735 176.468 34.1935 176.62C33.9135 176.772 33.7095 176.976 33.5815 177.232L32.4415 176.98L33.1375 172.06H37.9015V173.26H33.6895L34.2295 172.672L33.7135 176.44L33.2695 176.14C33.5095 175.804 33.8015 175.56 34.1455 175.408C34.4895 175.256 34.8815 175.18 35.3215 175.18C35.9055 175.18 36.4135 175.312 36.8455 175.576C37.2855 175.832 37.6255 176.184 37.8655 176.632C38.1135 177.072 38.2375 177.572 38.2375 178.132C38.2375 178.7 38.1015 179.212 37.8295 179.668C37.5575 180.124 37.1855 180.484 36.7135 180.748C36.2495 181.012 35.7175 181.144 35.1175 181.144ZM39.4643 181V171.916H40.8203V178L40.2923 177.868L43.5443 174.508H45.2363L42.7883 177.112L45.3443 181H43.7843L41.5043 177.556L42.3083 177.448L40.3883 179.488L40.8203 178.588V181H39.4643Z" fill="#14171F" fill-opacity="0.6"/>
    <path d="M28.056 219.144C27.496 219.144 26.976 219.04 26.496 218.832C26.016 218.616 25.608 218.324 25.272 217.956C24.936 217.588 24.688 217.164 24.528 216.684L25.728 216.18C25.944 216.732 26.26 217.156 26.676 217.452C27.092 217.748 27.572 217.896 28.116 217.896C28.436 217.896 28.716 217.848 28.956 217.752C29.196 217.648 29.38 217.504 29.508 217.32C29.644 217.136 29.712 216.924 29.712 216.684C29.712 216.356 29.62 216.096 29.436 215.904C29.252 215.712 28.98 215.56 28.62 215.448L26.94 214.92C26.268 214.712 25.756 214.396 25.404 213.972C25.052 213.54 24.876 213.036 24.876 212.46C24.876 211.956 25 211.516 25.248 211.14C25.496 210.756 25.836 210.456 26.268 210.24C26.708 210.024 27.208 209.916 27.768 209.916C28.304 209.916 28.792 210.012 29.232 210.204C29.672 210.388 30.048 210.644 30.36 210.972C30.68 211.3 30.912 211.68 31.056 212.112L29.88 212.628C29.704 212.156 29.428 211.792 29.052 211.536C28.684 211.28 28.256 211.152 27.768 211.152C27.472 211.152 27.212 211.204 26.988 211.308C26.764 211.404 26.588 211.548 26.46 211.74C26.34 211.924 26.28 212.14 26.28 212.388C26.28 212.676 26.372 212.932 26.556 213.156C26.74 213.38 27.02 213.548 27.396 213.66L28.956 214.152C29.668 214.368 30.204 214.68 30.564 215.088C30.924 215.488 31.104 215.988 31.104 216.588C31.104 217.084 30.972 217.524 30.708 217.908C30.452 218.292 30.096 218.596 29.64 218.82C29.184 219.036 28.656 219.144 28.056 219.144ZM27.504 220.2V208.86H28.464V220.2H27.504ZM33.6415 219V211.26H31.9255V210.06H35.0455V219H33.6415ZM36.7808 219V209.916H38.1368V216L37.6088 215.868L40.8608 212.508H42.5528L40.1048 215.112L42.6608 219H41.1008L38.8208 215.556L39.6248 215.448L37.7048 217.488L38.1368 216.588V219H36.7808Z" fill="#14171F" fill-opacity="0.6"/>
    <path d="M28.056 257.144C27.496 257.144 26.976 257.04 26.496 256.832C26.016 256.616 25.608 256.324 25.272 255.956C24.936 255.588 24.688 255.164 24.528 254.684L25.728 254.18C25.944 254.732 26.26 255.156 26.676 255.452C27.092 255.748 27.572 255.896 28.116 255.896C28.436 255.896 28.716 255.848 28.956 255.752C29.196 255.648 29.38 255.504 29.508 255.32C29.644 255.136 29.712 254.924 29.712 254.684C29.712 254.356 29.62 254.096 29.436 253.904C29.252 253.712 28.98 253.56 28.62 253.448L26.94 252.92C26.268 252.712 25.756 252.396 25.404 251.972C25.052 251.54 24.876 251.036 24.876 250.46C24.876 249.956 25 249.516 25.248 249.14C25.496 248.756 25.836 248.456 26.268 248.24C26.708 248.024 27.208 247.916 27.768 247.916C28.304 247.916 28.792 248.012 29.232 248.204C29.672 248.388 30.048 248.644 30.36 248.972C30.68 249.3 30.912 249.68 31.056 250.112L29.88 250.628C29.704 250.156 29.428 249.792 29.052 249.536C28.684 249.28 28.256 249.152 27.768 249.152C27.472 249.152 27.212 249.204 26.988 249.308C26.764 249.404 26.588 249.548 26.46 249.74C26.34 249.924 26.28 250.14 26.28 250.388C26.28 250.676 26.372 250.932 26.556 251.156C26.74 251.38 27.02 251.548 27.396 251.66L28.956 252.152C29.668 252.368 30.204 252.68 30.564 253.088C30.924 253.488 31.104 253.988 31.104 254.588C31.104 255.084 30.972 255.524 30.708 255.908C30.452 256.292 30.096 256.596 29.64 256.82C29.184 257.036 28.656 257.144 28.056 257.144ZM27.504 258.2V246.86H28.464V258.2H27.504ZM35.1175 257.144C34.6455 257.144 34.2015 257.06 33.7855 256.892C33.3695 256.716 33.0095 256.472 32.7055 256.16C32.4015 255.848 32.1855 255.472 32.0575 255.032L33.2455 254.576C33.3975 255 33.6455 255.324 33.9895 255.548C34.3335 255.772 34.7095 255.884 35.1175 255.884C35.4535 255.884 35.7495 255.808 36.0055 255.656C36.2615 255.504 36.4615 255.296 36.6055 255.032C36.7575 254.768 36.8335 254.468 36.8335 254.132C36.8335 253.788 36.7575 253.488 36.6055 253.232C36.4615 252.968 36.2615 252.764 36.0055 252.62C35.7495 252.468 35.4535 252.392 35.1175 252.392C34.7815 252.392 34.4735 252.468 34.1935 252.62C33.9135 252.772 33.7095 252.976 33.5815 253.232L32.4415 252.98L33.1375 248.06H37.9015V249.26H33.6895L34.2295 248.672L33.7135 252.44L33.2695 252.14C33.5095 251.804 33.8015 251.56 34.1455 251.408C34.4895 251.256 34.8815 251.18 35.3215 251.18C35.9055 251.18 36.4135 251.312 36.8455 251.576C37.2855 251.832 37.6255 252.184 37.8655 252.632C38.1135 253.072 38.2375 253.572 38.2375 254.132C38.2375 254.7 38.1015 255.212 37.8295 255.668C37.5575 256.124 37.1855 256.484 36.7135 256.748C36.2495 257.012 35.7175 257.144 35.1175 257.144ZM42.9803 257.144C42.2683 257.144 41.6443 256.952 41.1083 256.568C40.5723 256.176 40.1523 255.636 39.8483 254.948C39.5523 254.252 39.4043 253.444 39.4043 252.524C39.4043 251.596 39.5523 250.788 39.8483 250.1C40.1523 249.412 40.5683 248.876 41.0963 248.492C41.6323 248.108 42.2563 247.916 42.9683 247.916C43.6803 247.916 44.3003 248.108 44.8283 248.492C45.3643 248.876 45.7803 249.416 46.0763 250.112C46.3803 250.8 46.5323 251.604 46.5323 252.524C46.5323 253.444 46.3843 254.252 46.0883 254.948C45.7923 255.636 45.3763 256.176 44.8403 256.568C44.3123 256.952 43.6923 257.144 42.9803 257.144ZM42.9803 255.848C43.4203 255.848 43.8003 255.712 44.1203 255.44C44.4403 255.168 44.6883 254.784 44.8643 254.288C45.0403 253.792 45.1283 253.204 45.1283 252.524C45.1283 251.844 45.0403 251.256 44.8643 250.76C44.6883 250.264 44.4403 249.88 44.1203 249.608C43.8003 249.336 43.4163 249.2 42.9683 249.2C42.5283 249.2 42.1483 249.336 41.8283 249.608C41.5083 249.88 41.2603 250.264 41.0843 250.76C40.9083 251.256 40.8203 251.844 40.8203 252.524C40.8203 253.196 40.9083 253.784 41.0843 254.288C41.2603 254.784 41.5083 255.168 41.8283 255.44C42.1563 255.712 42.5403 255.848 42.9803 255.848ZM51.3302 257.144C50.6182 257.144 49.9942 256.952 49.4582 256.568C48.9222 256.176 48.5022 255.636 48.1982 254.948C47.9022 254.252 47.7542 253.444 47.7542 252.524C47.7542 251.596 47.9022 250.788 48.1982 250.1C48.5022 249.412 48.9182 248.876 49.4462 248.492C49.9822 248.108 50.6062 247.916 51.3182 247.916C52.0302 247.916 52.6502 248.108 53.1782 248.492C53.7142 248.876 54.1302 249.416 54.4262 250.112C54.7302 250.8 54.8822 251.604 54.8822 252.524C54.8822 253.444 54.7342 254.252 54.4382 254.948C54.1422 255.636 53.7262 256.176 53.1902 256.568C52.6622 256.952 52.0422 257.144 51.3302 257.144ZM51.3302 255.848C51.7702 255.848 52.1502 255.712 52.4702 255.44C52.7902 255.168 53.0382 254.784 53.2142 254.288C53.3902 253.792 53.4782 253.204 53.4782 252.524C53.4782 251.844 53.3902 251.256 53.2142 250.76C53.0382 250.264 52.7902 249.88 52.4702 249.608C52.1502 249.336 51.7662 249.2 51.3182 249.2C50.8782 249.2 50.4982 249.336 50.1782 249.608C49.8582 249.88 49.6102 250.264 49.4342 250.76C49.2582 251.256 49.1702 251.844 49.1702 252.524C49.1702 253.196 49.2582 253.784 49.4342 254.288C49.6102 254.784 49.8582 255.168 50.1782 255.44C50.5062 255.712 50.8902 255.848 51.3302 255.848Z" fill="#14171F" fill-opacity="0.6"/>
    <path d="M68.9336 100H702" stroke="#F0F0F0"/>
    <path d="M68.9336 138H702" stroke="#F0F0F0"/>
    <path d="M68.9336 176H702" stroke="#F0F0F0"/>
    <path d="M68.9336 214H702" stroke="#F0F0F0"/>
    <path d="M68.9336 252H702" stroke="#F0F0F0"/>
    <path d="M90.112 307V299.26H88.396V298.06H91.516V307H90.112ZM93.3832 307V298.06H94.7992V301.996H98.9392V298.06H100.343V307H98.9392V303.256H94.7992V307H93.3832Z" fill="#14171F" fill-opacity="0.6"/>
    <path d="M142.112 307V299.26H140.396V298.06H143.516V307H142.112ZM145.059 307V305.98L147.507 303.364C147.987 302.852 148.363 302.44 148.635 302.128C148.915 301.808 149.115 301.528 149.235 301.288C149.363 301.048 149.427 300.796 149.427 300.532C149.427 300.1 149.295 299.768 149.031 299.536C148.767 299.296 148.427 299.176 148.011 299.176C147.579 299.176 147.207 299.3 146.895 299.548C146.583 299.788 146.367 300.14 146.247 300.604L144.999 300.244C145.095 299.772 145.287 299.364 145.575 299.02C145.863 298.668 146.215 298.396 146.631 298.204C147.055 298.012 147.511 297.916 147.999 297.916C148.567 297.916 149.063 298.024 149.487 298.24C149.911 298.448 150.239 298.74 150.471 299.116C150.711 299.492 150.831 299.928 150.831 300.424C150.831 300.752 150.767 301.072 150.639 301.384C150.519 301.688 150.331 302.012 150.075 302.356C149.819 302.692 149.491 303.072 149.091 303.496L146.931 305.8H150.999V307H145.059ZM152.315 307V298.06H153.731V301.996H157.871V298.06H159.275V307H157.871V303.256H153.731V307H152.315Z" fill="#14171F" fill-opacity="0.6"/>
    <path d="M194.6 307V305.98L197.048 303.364C197.528 302.852 197.904 302.44 198.176 302.128C198.456 301.808 198.656 301.528 198.776 301.288C198.904 301.048 198.968 300.796 198.968 300.532C198.968 300.1 198.836 299.768 198.572 299.536C198.308 299.296 197.968 299.176 197.552 299.176C197.12 299.176 196.748 299.3 196.436 299.548C196.124 299.788 195.908 300.14 195.788 300.604L194.54 300.244C194.636 299.772 194.828 299.364 195.116 299.02C195.404 298.668 195.756 298.396 196.172 298.204C196.596 298.012 197.052 297.916 197.54 297.916C198.108 297.916 198.604 298.024 199.028 298.24C199.452 298.448 199.78 298.74 200.012 299.116C200.252 299.492 200.372 299.928 200.372 300.424C200.372 300.752 200.308 301.072 200.18 301.384C200.06 301.688 199.872 302.012 199.616 302.356C199.36 302.692 199.032 303.072 198.632 303.496L196.472 305.8H200.54V307H194.6ZM205.543 307V304.984H201.283V303.808L205.483 298.06H206.887V303.808H208.123V304.984H206.887V307H205.543ZM202.327 304.324L202.099 303.808H205.543V299.188L205.927 299.308L202.327 304.324ZM209.257 307V298.06H210.673V301.996H214.813V298.06H216.217V307H214.813V303.256H210.673V307H209.257Z" fill="#14171F" fill-opacity="0.6"/>
    <path d="M246.112 307V299.26H244.396V298.06H247.516V307H246.112ZM249.383 307V298.06H252.311C253.239 298.06 254.043 298.248 254.723 298.624C255.411 298.992 255.943 299.512 256.319 300.184C256.695 300.856 256.883 301.636 256.883 302.524C256.883 303.404 256.695 304.184 256.319 304.864C255.943 305.536 255.411 306.06 254.723 306.436C254.043 306.812 253.239 307 252.311 307H249.383ZM250.799 305.74H252.335C252.967 305.74 253.515 305.608 253.979 305.344C254.451 305.08 254.815 304.708 255.071 304.228C255.327 303.748 255.455 303.18 255.455 302.524C255.455 301.868 255.323 301.304 255.059 300.832C254.803 300.352 254.443 299.98 253.979 299.716C253.515 299.452 252.967 299.32 252.335 299.32H250.799V305.74Z" fill="#14171F" fill-opacity="0.6"/>
    <path d="M297.112 307V299.26H295.396V298.06H298.516V307H297.112ZM302.051 307L299.591 298.06H301.091L303.083 305.8H302.711L304.775 298.06H306.251L308.315 305.8H307.931L309.935 298.06H311.423L308.975 307H307.379L305.303 299.38H305.723L303.635 307H302.051Z" fill="#14171F" fill-opacity="0.6"/>
    <rect x="338" y="291" width="38" height="23" rx="4" fill="#323232" fill-opacity="0.1"/>
    <path d="M350.076 307V299.452H348.348V298.06H351.708V307H350.076ZM353.464 307V298.06H355.024L358.372 302.608H357.628L360.904 298.06H362.464V307H360.82V299.92L361.456 300.076L358.06 304.6H357.868L354.556 300.076L355.096 299.92V307H353.464Z" fill="#14171F"/>
    <path d="M404.112 307V299.26H402.396V298.06H405.516V307H404.112ZM409.651 307V302.968L406.591 298.06H408.187L410.635 302.032H410.071L412.507 298.06H414.103L411.055 302.968V307H409.651Z" fill="#14171F" fill-opacity="0.6"/>
    <path d="M451.6 307V305.98L454.048 303.364C454.528 302.852 454.904 302.44 455.176 302.128C455.456 301.808 455.656 301.528 455.776 301.288C455.904 301.048 455.968 300.796 455.968 300.532C455.968 300.1 455.836 299.768 455.572 299.536C455.308 299.296 454.968 299.176 454.552 299.176C454.12 299.176 453.748 299.3 453.436 299.548C453.124 299.788 452.908 300.14 452.788 300.604L451.54 300.244C451.636 299.772 451.828 299.364 452.116 299.02C452.404 298.668 452.756 298.396 453.172 298.204C453.596 298.012 454.052 297.916 454.54 297.916C455.108 297.916 455.604 298.024 456.028 298.24C456.452 298.448 456.78 298.74 457.012 299.116C457.252 299.492 457.372 299.928 457.372 300.424C457.372 300.752 457.308 301.072 457.18 301.384C457.06 301.688 456.872 302.012 456.616 302.356C456.36 302.692 456.032 303.072 455.632 303.496L453.472 305.8H457.54V307H451.6ZM461.124 307V302.968L458.064 298.06H459.66L462.108 302.032H461.544L463.98 298.06H465.576L462.528 302.968V307H461.124Z" fill="#14171F" fill-opacity="0.6"/>
    <path d="M506.516 307.144C506.036 307.144 505.584 307.056 505.16 306.88C504.744 306.704 504.384 306.456 504.08 306.136C503.784 305.816 503.572 305.44 503.444 305.008L504.644 304.552C504.804 304.976 505.048 305.304 505.376 305.536C505.704 305.768 506.084 305.884 506.516 305.884C506.868 305.884 507.172 305.816 507.428 305.68C507.692 305.544 507.896 305.352 508.04 305.104C508.192 304.856 508.268 304.556 508.268 304.204C508.268 303.86 508.192 303.564 508.04 303.316C507.896 303.068 507.692 302.88 507.428 302.752C507.172 302.624 506.868 302.56 506.516 302.56C506.372 302.56 506.224 302.572 506.072 302.596C505.928 302.62 505.8 302.652 505.688 302.692L505.376 302.032L507.728 299.26H503.924V298.06H509.312V299.2L507.008 301.96L506.972 301.504C507.508 301.512 507.98 301.632 508.388 301.864C508.796 302.088 509.112 302.4 509.336 302.8C509.568 303.192 509.684 303.648 509.684 304.168C509.684 304.728 509.548 305.236 509.276 305.692C509.004 306.14 508.628 306.496 508.148 306.76C507.676 307.016 507.132 307.144 506.516 307.144ZM513.288 307V302.968L510.228 298.06H511.824L514.272 302.032H513.708L516.144 298.06H517.74L514.692 302.968V307H513.288Z" fill="#14171F" fill-opacity="0.6"/>
    <path d="M559.728 307V304.984H555.468V303.808L559.668 298.06H561.072V303.808H562.308V304.984H561.072V307H559.728ZM556.512 304.324L556.284 303.808H559.728V299.188L560.112 299.308L556.512 304.324ZM565.71 307V302.968L562.65 298.06H564.246L566.694 302.032H566.13L568.566 298.06H570.162L567.114 302.968V307H565.71Z" fill="#14171F" fill-opacity="0.6"/>
    <path d="M609.588 307.144C609.116 307.144 608.672 307.06 608.256 306.892C607.84 306.716 607.48 306.472 607.176 306.16C606.872 305.848 606.656 305.472 606.528 305.032L607.716 304.576C607.868 305 608.116 305.324 608.46 305.548C608.804 305.772 609.18 305.884 609.588 305.884C609.924 305.884 610.22 305.808 610.476 305.656C610.732 305.504 610.932 305.296 611.076 305.032C611.228 304.768 611.304 304.468 611.304 304.132C611.304 303.788 611.228 303.488 611.076 303.232C610.932 302.968 610.732 302.764 610.476 302.62C610.22 302.468 609.924 302.392 609.588 302.392C609.252 302.392 608.944 302.468 608.664 302.62C608.384 302.772 608.18 302.976 608.052 303.232L606.912 302.98L607.608 298.06H612.372V299.26H608.16L608.7 298.672L608.184 302.44L607.74 302.14C607.98 301.804 608.272 301.56 608.616 301.408C608.96 301.256 609.352 301.18 609.792 301.18C610.376 301.18 610.884 301.312 611.316 301.576C611.756 301.832 612.096 302.184 612.336 302.632C612.584 303.072 612.708 303.572 612.708 304.132C612.708 304.7 612.572 305.212 612.3 305.668C612.028 306.124 611.656 306.484 611.184 306.748C610.72 307.012 610.188 307.144 609.588 307.144ZM616.335 307V302.968L613.275 298.06H614.871L617.319 302.032H616.755L619.191 298.06H620.787L617.739 302.968V307H616.335Z" fill="#14171F" fill-opacity="0.6"/>
    <path d="M661.612 307.144C661.028 307.144 660.508 307.016 660.052 306.76C659.596 306.504 659.236 306.152 658.972 305.704C658.716 305.256 658.588 304.748 658.588 304.18C658.588 303.884 658.62 303.588 658.684 303.292C658.748 302.996 658.86 302.688 659.02 302.368C659.188 302.048 659.412 301.704 659.692 301.336L662.188 298.06H663.88L660.82 302.02L660.58 301.864C660.692 301.736 660.812 301.636 660.94 301.564C661.076 301.492 661.216 301.44 661.36 301.408C661.512 301.376 661.672 301.36 661.84 301.36C662.376 301.36 662.856 301.484 663.28 301.732C663.704 301.98 664.036 302.316 664.276 302.74C664.524 303.164 664.648 303.652 664.648 304.204C664.648 304.764 664.516 305.268 664.252 305.716C663.988 306.156 663.628 306.504 663.172 306.76C662.724 307.016 662.204 307.144 661.612 307.144ZM661.612 305.884C661.924 305.884 662.2 305.812 662.44 305.668C662.68 305.524 662.872 305.328 663.016 305.08C663.16 304.824 663.232 304.536 663.232 304.216C663.232 303.888 663.16 303.6 663.016 303.352C662.88 303.104 662.688 302.912 662.44 302.776C662.2 302.632 661.924 302.56 661.612 302.56C661.308 302.56 661.032 302.632 660.784 302.776C660.544 302.912 660.352 303.104 660.208 303.352C660.064 303.6 659.992 303.888 659.992 304.216C659.992 304.536 660.064 304.824 660.208 305.08C660.352 305.328 660.544 305.524 660.784 305.668C661.032 305.812 661.308 305.884 661.612 305.884ZM668.159 307V302.968L665.099 298.06H666.695L669.143 302.032H668.579L671.015 298.06H672.611L669.563 302.968V307H668.159Z" fill="#14171F" fill-opacity="0.6"/>
    <path d="M99.181 224.525H82C80.3431 224.525 79 225.868 79 227.525V254C79 255.657 80.3431 257 82 257H699C700.657 257 702 255.657 702 254V88.0641L680.441 119.965C679.028 122.056 675.821 121.574 675.086 119.159L664.111 83.1306C663.726 81.8678 662.561 81.0049 661.241 81.0049H627.812C627.242 81.0049 626.684 81.1672 626.203 81.473L604.318 95.3834C602.985 96.2303 601.224 95.8996 600.29 94.6271L575.006 60.1914C573.497 58.1364 570.275 58.781 569.672 61.2583L549.229 145.349C548.713 147.471 546.175 148.348 544.459 146.998L523.53 130.528C522.244 129.517 520.386 129.721 519.351 130.988L518.164 132.441C516.845 134.055 514.322 133.866 513.26 132.072L502.141 113.308C501.112 111.572 498.696 111.326 497.339 112.821L481.93 129.797C481.254 130.542 480.249 130.899 479.255 130.747L460.27 127.842C458.83 127.621 457.44 128.467 456.974 129.847L435.234 194.225C434.909 195.188 434.118 195.92 433.133 196.172L402.176 204.066C400.94 204.382 399.639 203.881 398.934 202.817L377.371 170.301C376.254 168.617 373.826 168.496 372.547 170.061L364.239 180.231C363.817 180.747 363.236 181.108 362.586 181.257L342.062 185.968C341.097 186.19 340.304 186.872 339.942 187.793L328.211 217.568C327.586 219.154 325.766 219.902 324.206 219.212L297.059 207.208C296.568 206.991 296.144 206.646 295.832 206.209L275.454 177.697C275.262 177.428 275.026 177.192 274.757 177L259.352 166C258.438 165.347 257.236 165.259 256.237 165.773L211.433 188.808C210.434 189.321 209.232 189.234 208.318 188.581L193.921 178.301C193.046 177.676 191.903 177.567 190.926 178.016L177.917 183.987C177.401 184.224 176.963 184.602 176.654 185.077L147.985 229.105C147.09 230.48 145.257 230.881 143.87 230.005L117.426 213.314C116.342 212.63 114.944 212.71 113.946 213.512L101.06 223.864C100.527 224.291 99.8643 224.525 99.181 224.525Z" fill="url(#paint0_linear_126_2768)"/>
    <path d="M79 224.907H99.5329C99.9884 224.907 100.43 224.752 100.785 224.466L114.502 213.447C115.168 212.913 116.1 212.859 116.822 213.315L144.704 230.914C145.629 231.497 146.851 231.23 147.447 230.314L176.812 185.217C177.018 184.9 177.31 184.648 177.654 184.49L191.453 178.156C192.104 177.857 192.866 177.93 193.449 178.346L208.814 189.318C209.423 189.753 210.225 189.811 210.891 189.469L256.779 165.877C257.445 165.534 258.246 165.592 258.856 166.028L274.893 177.479C275.072 177.607 275.229 177.764 275.357 177.944L295.991 206.814C296.199 207.105 296.481 207.335 296.809 207.48L325.159 220.016C326.199 220.475 327.412 219.977 327.829 218.92L340.135 187.685C340.376 187.071 340.905 186.616 341.548 186.469L362.92 181.563C363.353 181.464 363.741 181.223 364.022 180.879L373.406 169.392C374.258 168.349 375.877 168.43 376.621 169.552L399.327 203.792C399.797 204.5 400.664 204.834 401.488 204.624L433.659 196.42C434.316 196.252 434.843 195.764 435.06 195.122L457.242 129.434C457.553 128.514 458.48 127.95 459.44 128.097L479.785 131.21C480.448 131.312 481.118 131.074 481.569 130.577L498.249 112.201C499.154 111.204 500.765 111.368 501.451 112.525L513.989 133.686C514.697 134.881 516.379 135.008 517.259 133.932L519.972 130.61C520.662 129.765 521.901 129.629 522.758 130.303L545.681 148.342C546.826 149.243 548.518 148.658 548.862 147.243L570.18 59.5545C570.581 57.903 572.729 57.4733 573.735 58.8433L600.844 95.7631C601.466 96.6114 602.64 96.8319 603.528 96.2673L626.449 81.6993C626.769 81.4954 627.142 81.3872 627.522 81.3872H661.982C662.862 81.3872 663.638 81.9625 663.895 82.8044L675.697 121.547C676.187 123.157 678.325 123.479 679.267 122.084L702 88.4464" stroke="white" stroke-width="2" stroke-linecap="round"/>
    <g clip-path="url(#clip0_126_2768)">
    <g filter="url(#filter0_iii_126_2768)">
    <path d="M67.3457 40.3222C67.3459 40.3222 67.346 40.3224 67.346 40.3225C64.4072 52.1081 52.4682 59.2799 40.6798 56.3416C28.8968 53.4032 21.7233 41.4655 24.6627 29.6805C27.6 17.8933 39.5384 10.72 51.3235 13.6583C63.1112 16.5967 70.284 28.5355 67.3455 40.3219C67.3454 40.322 67.3456 40.3222 67.3457 40.3222Z" fill="#F1AA3D"/>
    </g>
    <path d="M40.5588 56.8267L40.5588 56.8267C52.6151 59.8318 64.8255 52.4971 67.8312 40.4435L67.8314 40.4425C67.8334 40.4343 67.8353 40.426 67.8369 40.4178C70.8257 28.3717 63.4917 16.1762 51.4444 13.1732C39.3914 10.168 27.1817 17.5044 24.1775 29.5594C21.1713 41.6125 28.5079 53.8215 40.5588 56.8267ZM67.2197 40.8062C67.2196 40.8063 67.2196 40.8064 67.2196 40.8064C67.2596 40.8167 67.3018 40.8222 67.3457 40.8222C67.3021 40.8222 67.2598 40.8166 67.2197 40.8062ZM67.8306 40.4428C67.8307 40.4427 67.8307 40.4425 67.8307 40.4424C67.8307 40.4426 67.8306 40.4429 67.8306 40.4431L67.8306 40.4428Z" stroke="url(#paint1_linear_126_2768)" stroke-opacity="0.66" style="mix-blend-mode:overlay"/>
    <path fill-rule="evenodd" clip-rule="evenodd" d="M52.9635 33.04C53.2544 30.9386 51.7718 29.8089 49.7446 29.0553L50.4022 26.2086L48.7962 25.7768L48.156 28.5484C47.7343 28.4349 47.3008 28.3278 46.8701 28.2217L47.5148 25.4318L45.9102 25L45.2521 27.8457C44.9028 27.7598 44.5598 27.6749 44.2269 27.5856L44.2287 27.5767L42.0145 26.98L41.5874 28.8307C41.5874 28.8307 42.7786 29.1254 42.7535 29.1436C43.4038 29.3188 43.5217 29.7832 43.5016 30.1514L42.7526 33.3943C42.7974 33.4067 42.8555 33.4244 42.9195 33.4521L42.7503 33.4067L41.6999 37.9495C41.6203 38.1627 41.4186 38.4825 40.9641 38.3611C40.9801 38.3863 39.7971 38.0468 39.7971 38.0468L39 40.0307L41.0898 40.5928C41.3257 40.6566 41.5587 40.7222 41.7891 40.7871L41.7893 40.7872C41.9386 40.8292 42.0868 40.8709 42.234 40.9117L41.5695 43.7914L43.1733 44.2232L43.8318 41.3746C44.2694 41.5029 44.6947 41.6213 45.1108 41.7329L44.4551 44.5682L46.0606 45L46.7251 42.1262C49.4629 42.6854 51.5221 42.4598 52.3878 39.7879C53.0861 37.6361 52.3535 36.3949 50.913 35.5851C51.962 35.323 52.7522 34.5783 52.9631 33.04H52.9635ZM49.2947 38.5916C48.8389 40.5665 45.9739 39.7493 44.6643 39.3758L44.6642 39.3758C44.547 39.3423 44.4422 39.3124 44.3527 39.2884L45.2343 35.474C45.3437 35.5035 45.4774 35.5358 45.6287 35.5725C46.9837 35.9006 49.7603 36.5731 49.2951 38.5916H49.2947ZM45.9011 33.8027C46.9939 34.1173 49.3759 34.8031 49.7908 33.0091C50.2151 31.1737 47.8988 30.6205 46.7676 30.3504C46.6404 30.32 46.5282 30.2932 46.4366 30.2686L45.6372 33.7281C45.7128 33.7485 45.8016 33.774 45.9011 33.8027Z" fill="white"/>
    <path d="M80.3914 35H87.2557C90.5643 35 92.616 33.3027 92.616 30.585V30.5635C92.616 28.5332 91.0584 27.0078 88.8992 26.8467V26.7822C90.6072 26.5566 91.8963 25.1064 91.8963 23.4092V23.3877C91.8963 21.0029 90.0594 19.499 87.1375 19.499H80.3914V35ZM86.2996 21.9053C87.8143 21.9053 88.7059 22.6143 88.7059 23.8496V23.8711C88.7059 25.2139 87.7283 25.9766 85.9021 25.9766H83.6355V21.9053H86.2996ZM86.2889 28.1787C88.2762 28.1787 89.3074 28.9414 89.3074 30.3594V30.3809C89.3074 31.8203 88.2869 32.583 86.4285 32.583H83.6355V28.1787H86.2889ZM96.1779 22.002C97.1232 22.002 97.8537 21.2607 97.8537 20.3691C97.8537 19.4775 97.1232 18.7363 96.1779 18.7363C95.2326 18.7363 94.5021 19.4775 94.5021 20.3691C94.5021 21.2607 95.2326 22.002 96.1779 22.002ZM94.6096 35H97.7463V23.4844H94.6096V35ZM104.778 35.2363C105.433 35.2363 105.938 35.1719 106.293 35.1182V32.8193C106.099 32.8408 105.895 32.873 105.616 32.873C104.671 32.873 104.187 32.5078 104.187 31.4336V25.8477H106.293V23.4844H104.187V20.6699H101.018V23.4844H99.4176V25.8477H101.018V31.7773C101.018 34.248 102.221 35.2363 104.778 35.2363ZM113.464 35.2363C116.536 35.2363 118.523 33.3242 118.674 30.8105V30.7461H115.752L115.741 30.8428C115.526 32.0029 114.742 32.7764 113.485 32.7764C111.938 32.7764 110.972 31.498 110.972 29.2422V29.2314C110.972 27.0293 111.938 25.708 113.475 25.708C114.774 25.708 115.537 26.5459 115.73 27.6416L115.752 27.7383H118.663V27.6631C118.545 25.1709 116.558 23.248 113.432 23.248C109.983 23.248 107.781 25.5361 107.781 29.2207V29.2314C107.781 32.9482 109.951 35.2363 113.464 35.2363ZM125.824 35.2363C129.304 35.2363 131.528 33.002 131.528 29.2422V29.2207C131.528 25.4932 129.261 23.248 125.813 23.248C122.375 23.248 120.12 25.5146 120.12 29.2207V29.2422C120.12 32.9912 122.322 35.2363 125.824 35.2363ZM125.834 32.7764C124.288 32.7764 123.31 31.498 123.31 29.2422V29.2207C123.31 26.9971 124.298 25.708 125.813 25.708C127.338 25.708 128.337 26.9971 128.337 29.2207V29.2422C128.337 31.4873 127.36 32.7764 125.834 32.7764ZM135.133 22.002C136.078 22.002 136.808 21.2607 136.808 20.3691C136.808 19.4775 136.078 18.7363 135.133 18.7363C134.187 18.7363 133.457 19.4775 133.457 20.3691C133.457 21.2607 134.187 22.002 135.133 22.002ZM133.564 35H136.701V23.4844H133.564V35ZM139.156 35H142.293V28.3828C142.293 26.8789 143.185 25.8477 144.592 25.8477C145.999 25.8477 146.708 26.707 146.708 28.2109V35H149.845V27.5664C149.845 24.8701 148.405 23.248 145.87 23.248C144.13 23.248 142.948 24.0537 142.358 25.375H142.293V23.4844H139.156V35Z" fill="black"/>
    <path d="M80.4824 56H85.0015C87.2573 56 88.6343 54.8574 88.6343 53.0044V52.9897C88.6343 51.6201 87.6528 50.5947 86.2319 50.4629V50.3311C87.2939 50.1626 88.1143 49.1812 88.1143 48.0752V48.0605C88.1143 46.4419 86.9058 45.4312 84.8989 45.4312H80.4824V56ZM84.4375 46.9033C85.5801 46.9033 86.2466 47.4526 86.2466 48.3901V48.4048C86.2466 49.3643 85.5361 49.8843 84.1958 49.8843H82.3721V46.9033H84.4375ZM84.4961 51.2246C85.939 51.2246 86.7007 51.7886 86.7007 52.8579V52.8726C86.7007 53.9492 85.9609 54.5278 84.5693 54.5278H82.3721V51.2246H84.4961ZM92.8218 56H94.7114V47.0205H97.9707V45.4312H89.5698V47.0205H92.8218V56ZM103.462 56.2637C105.901 56.2637 107.651 54.8501 107.93 52.7334V52.6821H106.077L106.069 52.7188C105.798 53.8833 104.802 54.6304 103.462 54.6304C101.66 54.6304 100.54 53.1289 100.54 50.7192V50.7046C100.54 48.3022 101.66 46.8008 103.455 46.8008C104.788 46.8008 105.798 47.6284 106.069 48.8809L106.077 48.9102H107.93V48.8516C107.681 46.6909 105.857 45.1675 103.455 45.1675C100.459 45.1675 98.606 47.2842 98.606 50.7119V50.7266C98.606 54.1396 100.466 56.2637 103.462 56.2637Z" fill="#3C3C43" fill-opacity="0.6"/>
    </g>
    <path d="M533.202 30.5H541.03V28.8281H535.928V28.6641L538.186 26.4766C540.241 24.5 540.858 23.4844 540.858 22.2031V22.1797C540.858 20.2812 539.28 18.9453 537.085 18.9453C534.733 18.9453 533.092 20.4141 533.092 22.5156L533.1 22.5391L534.975 22.5469L534.983 22.5156C534.983 21.3516 535.788 20.5625 536.983 20.5625C538.155 20.5625 538.866 21.3125 538.866 22.3516V22.375C538.866 23.2422 538.436 23.8125 536.905 25.3594L533.202 29.1406V30.5ZM546.944 18.9453C544.499 18.9453 542.757 20.6172 542.757 22.9062V22.9219C542.757 25.0625 544.272 26.6406 546.437 26.6406C547.983 26.6406 548.968 25.8516 549.382 24.9609H549.538C549.538 25.0469 549.53 25.1328 549.53 25.2188C549.444 27.375 548.687 29.125 546.897 29.125C545.905 29.125 545.21 28.6094 544.913 27.8203L544.89 27.7422H542.905L542.921 27.8281C543.28 29.5547 544.827 30.7812 546.897 30.7812C549.733 30.7812 551.444 28.5312 551.444 24.7344V24.7188C551.444 20.6562 549.351 18.9453 546.944 18.9453ZM546.937 25.0938C545.655 25.0938 544.726 24.1562 544.726 22.8516V22.8359C544.726 21.5781 545.718 20.5859 546.96 20.5859C548.21 20.5859 549.187 21.5938 549.187 22.8828V22.8984C549.187 24.1719 548.21 25.0938 546.937 25.0938ZM552.296 33.4766H553.624L554.984 28.7812H552.976L552.296 33.4766ZM561.078 30.7266C563.672 30.7266 565.476 29.3828 565.476 27.4531V27.4375C565.476 25.9922 564.429 24.875 562.922 24.5703V24.5234C564.211 24.1797 565.07 23.2344 565.07 22.0234V22.0078C565.07 20.2734 563.414 19 561.078 19C558.742 19 557.086 20.2734 557.086 22.0078V22.0234C557.086 23.2344 557.945 24.1797 559.234 24.5234V24.5703C557.734 24.875 556.679 25.9922 556.679 27.4375V27.4531C556.679 29.3828 558.484 30.7266 561.078 30.7266ZM561.078 23.8828C559.898 23.8828 559.078 23.1953 559.078 22.2109V22.1953C559.078 21.2109 559.898 20.5234 561.078 20.5234C562.257 20.5234 563.078 21.2109 563.078 22.1953V22.2109C563.078 23.1953 562.257 23.8828 561.078 23.8828ZM561.078 29.1875C559.726 29.1875 558.765 28.4062 558.765 27.3203V27.3047C558.765 26.2109 559.711 25.4219 561.078 25.4219C562.437 25.4219 563.39 26.2109 563.39 27.3047V27.3203C563.39 28.4062 562.429 29.1875 561.078 29.1875ZM571.398 30.7812C573.836 30.7812 575.547 29.1797 575.547 26.8359V26.8203C575.547 24.6641 574.023 23.1016 571.922 23.1016C570.859 23.1016 569.984 23.5547 569.516 24.3125H569.383L569.695 20.8828H574.891V19.2266H568.125L567.578 25.8281H569.305C569.438 25.5781 569.625 25.3594 569.828 25.1875C570.242 24.8125 570.789 24.625 571.422 24.625C572.711 24.625 573.633 25.5469 573.633 26.8594V26.875C573.633 28.2031 572.727 29.1328 571.406 29.1328C570.25 29.1328 569.398 28.3984 569.25 27.4766L569.242 27.4219H567.383L567.391 27.5234C567.539 29.375 569.094 30.7812 571.398 30.7812ZM581.5 30.7812C584.18 30.7812 585.805 28.5078 585.805 24.8672V24.8516C585.805 21.2109 584.18 18.9453 581.5 18.9453C578.821 18.9453 577.211 21.2109 577.211 24.8516V24.8672C577.211 28.5078 578.821 30.7812 581.5 30.7812ZM581.5 29.1484C580.063 29.1484 579.243 27.5391 579.243 24.8672V24.8516C579.243 22.1797 580.063 20.5859 581.5 20.5859C582.938 20.5859 583.774 22.1797 583.774 24.8516V24.8672C583.774 27.5391 582.938 29.1484 581.5 29.1484ZM588.391 30.6562C589.11 30.6562 589.633 30.1172 589.633 29.4219C589.633 28.7266 589.11 28.1875 588.391 28.1875C587.68 28.1875 587.149 28.7266 587.149 29.4219C587.149 30.1172 587.68 30.6562 588.391 30.6562ZM593.97 30.5H595.985V19.2266H593.977L591.032 21.2969V23.1953L593.837 21.2109H593.97V30.5ZM602.868 30.7812C605.306 30.7812 607.017 29.1797 607.017 26.8359V26.8203C607.017 24.6641 605.493 23.1016 603.392 23.1016C602.329 23.1016 601.454 23.5547 600.986 24.3125H600.853L601.165 20.8828H606.361V19.2266H599.595L599.048 25.8281H600.775C600.908 25.5781 601.095 25.3594 601.298 25.1875C601.712 24.8125 602.259 24.625 602.892 24.625C604.181 24.625 605.103 25.5469 605.103 26.8594V26.875C605.103 28.2031 604.197 29.1328 602.876 29.1328C601.72 29.1328 600.868 28.3984 600.72 27.4766L600.712 27.4219H598.853L598.861 27.5234C599.009 29.375 600.564 30.7812 602.868 30.7812Z" fill="black"/>
    <rect x="656" y="13" width="54" height="24" rx="8" fill="white" fill-opacity="0.4"/>
    <path d="M664.789 26.1758H667.379V28.7773H668.539V26.1758H671.135V25.0098H668.539V22.4082H667.379V25.0098H664.789V26.1758ZM676.033 29H681.729V27.8809H677.82V27.7637L679.613 25.9766C681.148 24.4531 681.594 23.7148 681.594 22.7539V22.7363C681.594 21.3418 680.434 20.3398 678.857 20.3398C677.158 20.3398 675.963 21.4297 675.957 22.9766L675.969 22.9883H677.199L677.205 22.9707C677.205 22.0449 677.838 21.4238 678.787 21.4238C679.713 21.4238 680.281 22.0332 680.281 22.8594V22.877C680.281 23.5625 679.959 23.9961 678.84 25.1621L676.033 28.1094V29ZM686.434 29.2051C688.379 29.2051 689.557 27.5 689.557 24.7754V24.7637C689.557 22.0391 688.379 20.3398 686.434 20.3398C684.482 20.3398 683.311 22.0391 683.311 24.7637V24.7754C683.311 27.5 684.482 29.2051 686.434 29.2051ZM686.434 28.1152C685.297 28.1152 684.635 26.8438 684.635 24.7754V24.7637C684.635 22.6953 685.297 21.4355 686.434 21.4355C687.564 21.4355 688.232 22.6953 688.232 24.7637V24.7754C688.232 26.8438 687.564 28.1152 686.434 28.1152ZM692.932 25.0625C694.068 25.0625 694.76 24.166 694.76 22.7422V22.7363C694.76 21.3125 694.068 20.4277 692.932 20.4277C691.795 20.4277 691.104 21.3125 691.104 22.7363V22.7422C691.104 24.166 691.795 25.0625 692.932 25.0625ZM693.805 29L699.535 20.5449H698.439L692.709 29H693.805ZM692.932 24.2773C692.375 24.2773 692.059 23.709 692.059 22.7422V22.7363C692.059 21.7754 692.375 21.2129 692.932 21.2129C693.488 21.2129 693.811 21.7754 693.811 22.7363V22.7422C693.811 23.709 693.488 24.2773 692.932 24.2773ZM699.307 29.1172C700.443 29.1172 701.135 28.2266 701.135 26.8027V26.7969C701.135 25.373 700.443 24.4824 699.307 24.4824C698.17 24.4824 697.479 25.373 697.479 26.7969V26.8027C697.479 28.2266 698.17 29.1172 699.307 29.1172ZM699.307 28.332C698.75 28.332 698.434 27.7637 698.434 26.8027V26.7969C698.434 25.8301 698.75 25.2676 699.307 25.2676C699.863 25.2676 700.18 25.8301 700.18 26.7969V26.8027C700.18 27.7637 699.863 28.332 699.307 28.332Z" fill="#34C759"/>
    <path d="M533.028 47H538.044V46.1299H534.371V46.0439L536.132 44.2231C537.534 42.7783 537.915 42.1338 537.915 41.2476V41.2368C537.915 39.9854 536.879 39.0669 535.525 39.0669C534.043 39.0669 532.979 40.0552 532.974 41.4302L532.985 41.4355L533.909 41.4409L533.914 41.4302C533.914 40.5171 534.532 39.9102 535.461 39.9102C536.374 39.9102 536.927 40.5225 536.927 41.3389V41.3496C536.927 42.0264 536.637 42.4292 535.649 43.498L533.028 46.334V47ZM540.339 47.0537C540.726 47.0537 541.038 46.7368 541.038 46.3555C541.038 45.9688 540.726 45.6572 540.339 45.6572C539.958 45.6572 539.641 45.9688 539.641 46.3555C539.641 46.7368 539.958 47.0537 540.339 47.0537ZM542.849 47H543.864L547.313 40.1465V39.2495H542.183V40.1143H546.33V40.1895L542.849 47ZM551.332 47.1289C552.884 47.1289 554.023 46.1729 554.023 44.8784V44.8677C554.023 43.7666 553.255 43.063 552.127 42.9663V42.9448C553.093 42.7407 553.77 42.0854 553.77 41.1294V41.1187C553.77 39.9424 552.798 39.1206 551.321 39.1206C549.871 39.1206 548.872 39.9639 548.748 41.2261L548.743 41.2798H549.672L549.677 41.2261C549.758 40.4419 550.408 39.9585 551.321 39.9585C552.266 39.9585 552.798 40.4258 552.798 41.2368V41.2476C552.798 42.021 552.154 42.5903 551.23 42.5903H550.3V43.4067H551.273C552.358 43.4067 553.04 43.9385 553.04 44.8892V44.8999C553.04 45.7217 552.347 46.291 551.332 46.291C550.3 46.291 549.597 45.7646 549.522 45.002L549.516 44.9482H548.587L548.592 45.0127C548.695 46.2373 549.731 47.1289 551.332 47.1289ZM558.94 47H561.964C563.613 47 564.591 46.189 564.591 44.8301V44.8193C564.591 43.7988 563.919 43.0737 562.861 42.9395V42.8535C563.608 42.7192 564.199 41.9888 564.199 41.1885V41.1777C564.199 39.9961 563.328 39.2495 561.905 39.2495H558.94V47ZM561.701 40.1035C562.662 40.1035 563.221 40.5601 563.221 41.3442V41.355C563.221 42.1714 562.625 42.5903 561.454 42.5903H559.907V40.1035H561.701ZM561.728 43.4229C562.963 43.4229 563.597 43.8794 563.597 44.771V44.7817C563.597 45.6733 562.985 46.146 561.819 46.146H559.907V43.4229H561.728ZM568.25 47H569.217V40.1196H571.714V39.2495H565.752V40.1196H568.25V47ZM576.072 47.1826C577.721 47.1826 578.945 46.2642 579.203 44.8462V44.8354H578.226L578.215 44.8462C577.973 45.7378 577.151 46.291 576.072 46.291C574.579 46.291 573.644 45.0718 573.644 43.1328V43.1221C573.644 41.1831 574.579 39.9585 576.066 39.9585C577.135 39.9585 577.962 40.5869 578.22 41.5806L578.226 41.5913H579.198L579.203 41.5806C578.972 40.0928 577.699 39.0669 576.066 39.0669C573.961 39.0669 572.65 40.6245 572.65 43.1221V43.1328C572.65 45.625 573.966 47.1826 576.072 47.1826Z" fill="black"/>
    <defs>
    <filter id="filter0_iii_126_2768" x="19.0039" y="7.99976" width="54" height="54.0005" filterUnits="userSpaceOnUse" color-interpolation-filters="sRGB">
    <feFlood flood-opacity="0" result="BackgroundImageFix"/>
    <feBlend mode="normal" in="SourceGraphic" in2="BackgroundImageFix" result="shape"/>
    <feColorMatrix in="SourceAlpha" type="matrix" values="0 0 0 0 0 0 0 0 0 0 0 0 0 0 0 0 0 0 127 0" result="hardAlpha"/>
    <feOffset dx="4" dy="4"/>
    <feGaussianBlur stdDeviation="7"/>
    <feComposite in2="hardAlpha" operator="arithmetic" k2="-1" k3="1"/>
    <feColorMatrix type="matrix" values="0 0 0 0 0 0 0 0 0 0 0 0 0 0 0 0 0 0 0.5 0"/>
    <feBlend mode="overlay" in2="shape" result="effect1_innerShadow_126_2768"/>
    <feColorMatrix in="SourceAlpha" type="matrix" values="0 0 0 0 0 0 0 0 0 0 0 0 0 0 0 0 0 0 127 0" result="hardAlpha"/>
    <feOffset dx="-4" dy="-4"/>
    <feGaussianBlur stdDeviation="4.5"/>
    <feComposite in2="hardAlpha" operator="arithmetic" k2="-1" k3="1"/>
    <feColorMatrix type="matrix" values="0 0 0 0 1 0 0 0 0 1 0 0 0 0 1 0 0 0 0.2 0"/>
    <feBlend mode="normal" in2="effect1_innerShadow_126_2768" result="effect2_innerShadow_126_2768"/>
    <feColorMatrix in="SourceAlpha" type="matrix" values="0 0 0 0 0 0 0 0 0 0 0 0 0 0 0 0 0 0 127 0" result="hardAlpha"/>
    <feOffset dx="2" dy="2"/>
    <feGaussianBlur stdDeviation="2"/>
    <feComposite in2="hardAlpha" operator="arithmetic" k2="-1" k3="1"/>
    <feColorMatrix type="matrix" values="0 0 0 0 0 0 0 0 0 0 0 0 0 0 0 0 0 0 0.1 0"/>
    <feBlend mode="normal" in2="effect2_innerShadow_126_2768" result="effect3_innerShadow_126_2768"/>
    </filter>
    <linearGradient id="paint0_linear_126_2768" x1="391.331" y1="75.3487" x2="391.331" y2="251.109" gradientUnits="userSpaceOnUse">
    <stop stop-color="#646464" stop-opacity="0.5"/>
    <stop offset="1" stop-color="#646464" stop-opacity="0"/>
    </linearGradient>
    <linearGradient id="paint1_linear_126_2768" x1="35.9745" y1="13" x2="56.5307" y2="26.1028" gradientUnits="userSpaceOnUse">
    <stop stop-color="#D6E3F3"/>
    <stop offset="1" stop-color="white"/>
    </linearGradient>
    <clipPath id="clip0_126_2768">
    <rect x="24" y="13" width="126.957" height="48" rx="8" fill="white"/>
    </clipPath>
    </defs>
    </svg>