<svg width="20" height="14" viewBox="0 0 20 14" fill="none" xmlns="http://www.w3.org/2000/svg">
    <path d="M6 7.052C7.995 7.052 9.5 5.547 9.5 3.552C9.5 1.557 7.995 0.052002 6 0.052002C4.005 0.052002 2.5 1.557 2.5 3.552C2.5 5.547 4.005 7.052 6 7.052ZM7 8H5C2.243 8 0 10.243 0 13V14H12V13C12 10.243 9.757 8 7 8ZM18.293 3.293L16 5.586L13.707 3.293L12.293 4.707L14.585 6.999L12.292 9.292L13.706 10.706L15.999 8.413L18.293 10.707L19.707 9.293L17.414 7L19.707 4.707L18.293 3.293Z" fill="#292D32"/>
    </svg>