<svg width="24" height="24" viewBox="0 0 24 24" fill="none" xmlns="http://www.w3.org/2000/svg">
    <path d="M3.34301 7.79383C2.93 7.79383 2.57957 7.93786 2.29151 8.22592C2.00345 8.51398 1.85938 8.85964 1.85938 9.26308V15.4574C1.85938 15.871 2.0034 16.2211 2.29151 16.5092C2.57957 16.7973 2.93 16.9413 3.34301 16.9413C3.75573 16.9413 4.10403 16.7973 4.38763 16.5092C4.67066 16.2211 4.81256 15.871 4.81256 15.4574V9.26308C4.81256 8.8596 4.66853 8.51398 4.38043 8.22592C4.09233 7.93786 3.74645 7.79383 3.34301 7.79383ZM15.271 2.23316L16.2938 0.346343C16.3609 0.221428 16.337 0.125639 16.2219 0.0582839C16.097 0.000203958 16.001 0.029634 15.9339 0.144494L14.8968 2.04639C13.9842 1.64291 13.0189 1.4408 12.0011 1.4408C10.9831 1.4408 10.0178 1.64295 9.10554 2.04639L8.06838 0.144494C8.00098 0.029634 7.90497 0.00046402 7.78032 0.0582839C7.66494 0.125943 7.64106 0.221428 7.70845 0.346343L8.73131 2.23316C7.69415 2.76208 6.86812 3.49869 6.25351 4.44462C5.6389 5.39106 5.33147 6.42531 5.33147 7.5492H18.6563C18.6563 6.42557 18.3488 5.39128 17.7343 4.44462C17.1196 3.49869 16.2983 2.76208 15.271 2.23316ZM9.35753 4.97756C9.24692 5.08844 9.11481 5.14361 8.96125 5.14361C8.80738 5.14361 8.67795 5.08844 8.57237 4.97756C8.46679 4.86721 8.414 4.73562 8.414 4.58154C8.414 4.42797 8.46679 4.29612 8.57237 4.18551C8.67795 4.07516 8.80768 4.01998 8.96125 4.01998C9.11481 4.01998 9.24692 4.07516 9.35753 4.18551C9.46788 4.29638 9.52332 4.42797 9.52332 4.58154C9.52302 4.73536 9.46762 4.86721 9.35753 4.97756ZM15.4293 4.97756C15.3235 5.08844 15.1938 5.14361 15.0405 5.14361C14.8866 5.14361 14.7545 5.08844 14.6441 4.97756C14.5335 4.86721 14.4784 4.73562 14.4784 4.58154C14.4784 4.42797 14.5335 4.29612 14.6441 4.18551C14.7545 4.07516 14.8866 4.01998 15.0405 4.01998C15.194 4.01998 15.3235 4.07516 15.4293 4.18551C15.535 4.29638 15.5877 4.42797 15.5877 4.58154C15.5877 4.73536 15.5349 4.86721 15.4293 4.97756ZM5.38868 17.6615C5.38868 18.1037 5.54225 18.478 5.84942 18.7852C6.15685 19.0923 6.53117 19.2459 6.97305 19.2459H8.03912L8.05373 22.5163C8.05373 22.9293 8.19775 23.28 8.48581 23.5681C8.77387 23.8562 9.1198 24.0002 9.52297 24.0002C9.93573 24.0002 10.2864 23.8562 10.5745 23.5681C10.8626 23.28 11.0066 22.9293 11.0066 22.5163V19.2462H12.9945V22.5163C12.9945 22.9293 13.1385 23.28 13.4266 23.5681C13.7147 23.8562 14.065 24.0002 14.4781 24.0002C14.8909 24.0002 15.2415 23.8562 15.5296 23.5681C15.8177 23.28 15.9617 22.9293 15.9617 22.5163V19.2462H17.0422C17.4742 19.2462 17.8437 19.0926 18.1515 18.7854C18.4586 18.4782 18.6123 18.1039 18.6123 17.6618V8.06728H5.38868V17.6615ZM20.6587 7.79383C20.2552 7.79383 19.9096 7.93574 19.6215 8.21877C19.3334 8.50232 19.1894 8.85063 19.1894 9.26308V15.4574C19.1894 15.871 19.3334 16.2211 19.6215 16.5092C19.9096 16.7973 20.2554 16.9413 20.6587 16.9413C21.0714 16.9413 21.4221 16.7973 21.7102 16.5092C21.9983 16.2211 22.1423 15.871 22.1423 15.4574V9.26308C22.1423 8.85058 21.9983 8.50232 21.7102 8.21877C21.4221 7.93574 21.0714 7.79383 20.6587 7.79383Z" fill="white"/>
    </svg>