<svg xmlns="http://www.w3.org/2000/svg"
    xmlns:xlink="http://www.w3.org/1999/xlink" fill="none" height="468" viewBox="0 0 509 468" width="509">
    <filter id="a" color-interpolation-filters="sRGB" filterUnits="userSpaceOnUse" height="466.995" width="508.995" x=".002741" y=".735709">
        <feFlood flood-opacity="0" result="BackgroundImageFix"/>
        <feColorMatrix in="SourceAlpha" result="hardAlpha" type="matrix" values="0 0 0 0 0 0 0 0 0 0 0 0 0 0 0 0 0 0 127 0"/>
        <feMorphology in="SourceAlpha" operator="dilate" radius="20" result="effect1_dropShadow"/>
        <feOffset dy="3.73297"/>
        <feGaussianBlur stdDeviation="13.9986"/>
        <feColorMatrix type="matrix" values="0 0 0 0 0 0 0 0 0 0 0 0 0 0 0 0 0 0 0.04 0"/>
        <feBlend in2="BackgroundImageFix" mode="normal" result="effect1_dropShadow"/>
        <feBlend in="SourceGraphic" in2="effect1_dropShadow" mode="normal" result="shape"/>
    </filter>
    <g filter="url(#a)">
        <rect fill="#fff" height="371" rx="3.73297" width="413" x="48" y="45"/>
    </g>
    <g fill="#000">
        <path d="m77.76 153c-.1173 0-.208-.032-.272-.096-.064-.075-.096-.165-.096-.272v-10.448c0-.117.032-.208.096-.272.064-.075.1547-.112.272-.112h4.064c.7893 0 1.472.128 2.048.384.5867.256 1.04.64 1.36 1.152.32.501.48 1.131.48 1.888s-.16 1.387-.48 1.888-.7733.88-1.36 1.136c-.576.256-1.2587.384-2.048.384h-2.832v4c0 .107-.0373.197-.112.272-.064.064-.1547.096-.272.096zm1.216-5.712h2.768c.7893 0 1.3813-.176 1.776-.528s.592-.864.592-1.536c0-.661-.192-1.173-.576-1.536s-.9813-.544-1.792-.544h-2.768zm8.8416 5.712c-.1066 0-.1973-.032-.272-.096-.064-.075-.096-.165-.096-.272v-7.568c0-.107.032-.197.096-.272.0747-.075.1654-.112.272-.112h.736c.1067 0 .1974.037.272.112.0747.075.112.165.112.272v.704c.2134-.363.5067-.635.88-.816.3734-.181.8214-.272 1.344-.272h.64c.1067 0 .192.037.256.112.064.064.096.149.096.256v.656c0 .107-.032.192-.096.256s-.1493.096-.256.096h-.96c-.576 0-1.0293.171-1.36.512-.3306.331-.496.784-.496 1.36v4.704c0 .107-.0373.197-.112.272-.0746.064-.1653.096-.272.096zm6.0782 0c-.1067 0-.1974-.032-.272-.096-.064-.075-.096-.165-.096-.272v-7.584c0-.107.032-.192.096-.256.0746-.075.1653-.112.272-.112h.768c.1066 0 .192.037.256.112.064.064.096.149.096.256v7.584c0 .107-.032.197-.096.272-.064.064-.1494.096-.256.096zm-.128-9.872c-.1067 0-.1974-.032-.272-.096-.064-.075-.0961-.165-.0961-.272v-.864c0-.107.0321-.192.0961-.256.0746-.075.1653-.112.272-.112h1.008c.1066 0 .192.037.256.112.0746.064.112.149.112.256v.864c0 .107-.0374.197-.112.272-.064.064-.1494.096-.256.096zm6.9952 10.032c-.758 0-1.4136-.144-1.9682-.432-.544-.299-.9654-.72-1.264-1.264-.2987-.555-.4587-1.216-.48-1.984-.0107-.16-.016-.373-.016-.64s.0053-.48.016-.64c.0213-.768.1813-1.424.48-1.968.2986-.555.72-.976 1.264-1.264.5546-.299 1.2102-.448 1.9682-.448.618 0 1.146.085 1.584.256.448.171.816.389 1.104.656s.501.555.64.864c.149.309.229.603.24.88.01.107-.022.192-.096.256-.075.064-.166.096-.272.096h-.768c-.107 0-.187-.021-.24-.064-.054-.053-.107-.139-.16-.256-.192-.523-.454-.891-.784-1.104-.331-.213-.742-.32-1.232-.32-.64 0-1.1629.197-1.5682.592-.3947.395-.608 1.029-.6401 1.904-.0106.384-.0106.757 0 1.12.0321.885.2454 1.525.6401 1.92.4053.384.9282.576 1.5682.576.49 0 .901-.107 1.232-.32.33-.213.592-.581.784-1.104.053-.117.106-.197.16-.24.053-.053.133-.08.24-.08h.768c.106 0 .197.032.272.096.074.064.106.149.096.256-.011.224-.059.453-.144.688-.086.235-.224.475-.416.72-.182.235-.411.448-.688.64-.278.181-.614.331-1.008.448-.384.107-.822.16-1.312.16zm8.78 0c-1.099 0-1.973-.336-2.624-1.008-.651-.683-1.008-1.611-1.072-2.784-.011-.139-.016-.315-.016-.528 0-.224.005-.405.016-.544.043-.757.219-1.419.528-1.984.309-.576.731-1.019 1.264-1.328.544-.309 1.179-.464 1.904-.464.811 0 1.488.171 2.032.512.555.341.976.827 1.264 1.456s.432 1.365.432 2.208v.272c0 .117-.037.208-.112.272-.064.064-.149.096-.256.096h-5.536v.064.08c.021.437.117.848.288 1.232.171.373.416.677.736.912s.704.352 1.152.352c.384 0 .704-.059.96-.176s.464-.245.624-.384c.16-.149.267-.261.32-.336.096-.139.171-.219.224-.24.053-.032.139-.048.256-.048h.768c.107 0 .192.032.256.096.075.053.107.133.096.24-.011.16-.096.357-.256.592-.16.224-.389.448-.688.672s-.661.411-1.088.56c-.427.139-.917.208-1.472.208zm-2.176-4.928h4.384v-.048c0-.48-.091-.907-.272-1.28-.171-.373-.421-.667-.752-.88-.331-.224-.725-.336-1.184-.336s-.853.112-1.184.336c-.32.213-.565.507-.736.88s-.256.8-.256 1.28zm15.147 4.928c-.811 0-1.488-.155-2.032-.464s-.96-.736-1.248-1.28c-.288-.555-.448-1.184-.48-1.888-.011-.181-.016-.411-.016-.688 0-.288.005-.517.016-.688.032-.715.192-1.344.48-1.888.299-.544.72-.971 1.264-1.28s1.216-.464 2.016-.464 1.472.155 2.016.464.96.736 1.248 1.28c.299.544.464 1.173.496 1.888.011.171.016.4.016.688 0 .277-.005.507-.016.688-.032.704-.192 1.333-.48 1.888-.288.544-.704.971-1.248 1.28s-1.221.464-2.032.464zm0-1.232c.661 0 1.189-.208 1.584-.624.395-.427.608-1.045.64-1.856.011-.16.016-.363.016-.608s-.005-.448-.016-.608c-.032-.811-.245-1.424-.64-1.84-.395-.427-.923-.64-1.584-.64s-1.195.213-1.6.64c-.395.416-.603 1.029-.624 1.84-.011.16-.016.363-.016.608s.005.448.016.608c.021.811.229 1.429.624 1.856.405.416.939.624 1.6.624zm6.87 1.072c-.107 0-.197-.032-.272-.096-.064-.075-.096-.165-.096-.272v-6.672h-1.36c-.107 0-.197-.032-.272-.096-.064-.075-.096-.165-.096-.272v-.544c0-.107.032-.192.096-.256.075-.075.165-.112.272-.112h1.36v-.8c0-.544.091-1.019.272-1.424.181-.416.469-.736.864-.96.405-.224.944-.336 1.616-.336h.96c.107 0 .192.037.256.112.064.064.096.149.096.256v.544c0 .107-.032.197-.096.272-.064.064-.149.096-.256.096h-.928c-.501 0-.843.133-1.024.4-.181.256-.272.629-.272 1.12v.72h2.064c.107 0 .192.037.256.112.064.064.096.149.096.256v.544c0 .107-.032.197-.096.272-.064.064-.149.096-.256.096h-2.064v6.672c0 .107-.037.197-.112.272-.064.064-.149.096-.256.096zm11.383.16c-.597 0-1.109-.075-1.536-.224s-.773-.331-1.04-.544-.469-.427-.608-.64c-.128-.213-.197-.384-.208-.512-.011-.117.027-.208.112-.272s.171-.096.256-.096h.704c.064 0 .112.011.144.032.043.011.096.053.16.128.139.149.293.299.464.448s.379.272.624.368c.256.096.571.144.944.144.544 0 .992-.101 1.344-.304.352-.213.528-.523.528-.928 0-.267-.075-.48-.224-.64-.139-.16-.395-.304-.768-.432-.363-.128-.864-.261-1.504-.4-.64-.149-1.147-.331-1.52-.544-.373-.224-.64-.485-.8-.784-.16-.309-.24-.656-.24-1.04 0-.395.117-.773.352-1.136.235-.373.576-.677 1.024-.912.459-.235 1.029-.352 1.712-.352.555 0 1.029.069 1.424.208s.72.315.976.528c.256.203.448.405.576.608s.197.373.208.512c.011.107-.021.197-.096.272-.075.064-.16.096-.256.096h-.672c-.075 0-.139-.016-.192-.048-.043-.032-.085-.069-.128-.112-.107-.139-.235-.277-.384-.416-.139-.139-.325-.251-.56-.336-.224-.096-.523-.144-.896-.144-.533 0-.933.112-1.2.336s-.4.507-.4.848c0 .203.059.384.176.544s.341.304.672.432.821.267 1.472.416c.704.139 1.259.325 1.664.56s.693.507.864.816.256.667.256 1.072c0 .448-.133.859-.4 1.232-.256.373-.64.672-1.152.896-.501.213-1.125.32-1.872.32zm5.66-.16c-.106 0-.197-.032-.272-.096-.064-.075-.096-.165-.096-.272v-10.624c0-.107.032-.192.096-.256.075-.075.166-.112.272-.112h.8c.118 0 .208.037.272.112.064.064.096.149.096.256v3.728c.288-.363.64-.656 1.056-.88s.944-.336 1.584-.336c.694 0 1.28.155 1.76.464.491.299.859.72 1.104 1.264.256.533.384 1.157.384 1.872v4.512c0 .107-.032.197-.096.272-.064.064-.154.096-.272.096h-.8c-.106 0-.197-.032-.272-.096-.064-.075-.096-.165-.096-.272v-4.432c0-.747-.181-1.328-.544-1.744-.362-.427-.896-.64-1.6-.64-.661 0-1.194.213-1.6.64-.405.416-.608.997-.608 1.744v4.432c0 .107-.032.197-.096.272-.064.064-.154.096-.272.096zm9.734 0c-.106 0-.197-.032-.272-.096-.064-.075-.096-.165-.096-.272v-7.584c0-.107.032-.192.096-.256.075-.075.166-.112.272-.112h.768c.107 0 .192.037.256.112.064.064.096.149.096.256v7.584c0 .107-.032.197-.096.272-.064.064-.149.096-.256.096zm-.128-9.872c-.106 0-.197-.032-.272-.096-.064-.075-.096-.165-.096-.272v-.864c0-.107.032-.192.096-.256.075-.075.166-.112.272-.112h1.008c.107 0 .192.037.256.112.075.064.112.149.112.256v.864c0 .107-.037.197-.112.272-.064.064-.149.096-.256.096zm4.019 12.912c-.106 0-.197-.037-.272-.112-.064-.064-.096-.149-.096-.256v-10.624c0-.107.032-.192.096-.256.075-.075.166-.112.272-.112h.736c.107 0 .192.037.256.112.075.064.112.149.112.256v.704c.256-.352.598-.645 1.024-.88.427-.235.96-.352 1.6-.352.598 0 1.104.101 1.52.304.427.203.774.48 1.04.832.278.352.486.752.624 1.2.139.448.214.928.224 1.44.011.171.016.352.016.544s-.005.373-.016.544c-.01.501-.085.981-.224 1.44-.138.448-.346.848-.624 1.2-.266.341-.613.619-1.04.832-.416.203-.922.304-1.52.304-.618 0-1.141-.112-1.568-.336-.416-.235-.757-.523-1.024-.864v3.712c0 .107-.032.192-.096.256-.064.075-.154.112-.272.112zm3.392-4.176c.555 0 .987-.117 1.296-.352.32-.245.55-.56.688-.944.139-.395.219-.816.24-1.264.011-.309.011-.619 0-.928-.021-.448-.101-.864-.24-1.248-.138-.395-.368-.709-.688-.944-.309-.245-.741-.368-1.296-.368-.522 0-.949.123-1.28.368-.32.245-.56.56-.72.944-.149.373-.234.757-.256 1.152-.01.171-.016.373-.016.608s.006.443.016.624c.011.373.096.741.256 1.104.171.363.422.661.752.896.331.235.747.352 1.248.352zm6.124 1.136c-.107 0-.198-.032-.272-.096-.064-.075-.096-.165-.096-.272v-7.584c0-.107.032-.192.096-.256.074-.075.165-.112.272-.112h.768c.106 0 .192.037.256.112.064.064.096.149.096.256v7.584c0 .107-.032.197-.096.272-.064.064-.15.096-.256.096zm-.128-9.872c-.107 0-.198-.032-.272-.096-.064-.075-.096-.165-.096-.272v-.864c0-.107.032-.192.096-.256.074-.075.165-.112.272-.112h1.008c.106 0 .192.037.256.112.074.064.112.149.112.256v.864c0 .107-.038.197-.112.272-.064.064-.15.096-.256.096zm4.003 9.872c-.107 0-.198-.032-.272-.096-.064-.075-.096-.165-.096-.272v-7.584c0-.107.032-.192.096-.256.074-.075.165-.112.272-.112h.752c.106 0 .192.037.256.112.074.064.112.149.112.256v.704c.277-.363.624-.656 1.04-.88.426-.235.97-.352 1.632-.352.693 0 1.28.155 1.76.464.49.299.858.72 1.104 1.264.245.533.368 1.157.368 1.872v4.512c0 .107-.032.197-.096.272-.064.064-.15.096-.256.096h-.8c-.107 0-.198-.032-.272-.096-.064-.075-.096-.165-.096-.272v-4.432c0-.747-.182-1.328-.544-1.744-.363-.427-.896-.64-1.6-.64-.662 0-1.195.213-1.6.64-.395.416-.592.997-.592 1.744v4.432c0 .107-.038.197-.112.272-.064.064-.15.096-.256.096zm12.743 3.52c-.726 0-1.323-.096-1.792-.288-.459-.192-.822-.427-1.088-.704-.256-.267-.443-.539-.56-.816-.107-.267-.166-.48-.176-.64-.011-.107.021-.197.096-.272.085-.075.176-.112.272-.112h.768c.096 0 .176.021.24.064s.117.133.16.272c.064.16.16.336.288.528.128.203.325.373.592.512.266.149.64.224 1.12.224.501 0 .922-.069 1.264-.208.341-.128.597-.363.768-.704.181-.331.272-.789.272-1.376v-1.088c-.256.331-.592.608-1.008.832-.416.213-.939.32-1.568.32-.598 0-1.11-.101-1.536-.304-.427-.213-.779-.496-1.056-.848-.267-.363-.47-.773-.608-1.232-.128-.459-.203-.939-.224-1.44-.011-.299-.011-.592 0-.88.021-.501.096-.981.224-1.44.138-.459.341-.869.608-1.232.277-.363.629-.645 1.056-.848.426-.213.938-.32 1.536-.32.64 0 1.168.123 1.584.368.426.235.773.523 1.04.864v-.688c0-.107.032-.197.096-.272.074-.075.165-.112.272-.112h.736c.106 0 .197.037.272.112.074.075.112.165.112.272v7.76c0 .715-.123 1.349-.368 1.904-.235.555-.63.992-1.184 1.312-.544.32-1.28.48-2.208.48zm-.032-4.736c.533 0 .96-.123 1.28-.368.33-.245.57-.555.72-.928.16-.373.245-.752.256-1.136.01-.149.016-.331.016-.544 0-.224-.006-.411-.016-.56-.011-.384-.096-.763-.256-1.136-.15-.373-.39-.683-.72-.928-.32-.245-.747-.368-1.28-.368-.534 0-.96.123-1.28.368-.32.235-.55.549-.688.944-.139.384-.219.8-.24 1.248-.011.277-.011.56 0 .848.021.448.101.869.24 1.264.138.384.368.699.688.944.32.235.746.352 1.28.352zm13.325 1.216c-.107 0-.198-.032-.272-.096-.064-.075-.096-.165-.096-.272v-8.96l-2.656 2.048c-.086.064-.176.091-.272.08s-.176-.059-.24-.144l-.416-.528c-.064-.096-.091-.192-.08-.288.021-.096.074-.176.16-.24l3.488-2.688c.074-.053.144-.085.208-.096s.133-.016.208-.016h.816c.106 0 .192.037.256.112.064.064.096.149.096.256v10.464c0 .107-.032.197-.096.272-.064.064-.15.096-.256.096zm3.995 0c-.106 0-.197-.032-.272-.096-.064-.075-.096-.165-.096-.272v-10.624c0-.107.032-.192.096-.256.075-.075.166-.112.272-.112h.752c.118 0 .208.037.272.112.064.064.096.149.096.256v10.624c0 .107-.032.197-.096.272-.064.064-.154.096-.272.096zm7.619.16c-.64 0-1.173-.112-1.6-.336-.427-.235-.768-.523-1.024-.864v.672c0 .107-.037.197-.112.272-.064.064-.149.096-.256.096h-.736c-.107 0-.197-.032-.272-.096-.064-.075-.096-.165-.096-.272v-10.624c0-.107.032-.192.096-.256.075-.075.165-.112.272-.112h.768c.117 0 .208.037.272.112.064.064.096.149.096.256v3.68c.267-.331.608-.608 1.024-.832.427-.224.949-.336 1.568-.336.597 0 1.104.107 1.52.32.427.203.773.485 1.04.848.277.363.485.773.624 1.232s.213.939.224 1.44c.011.171.016.331.016.48s-.005.309-.016.48c-.011.512-.085.997-.224 1.456s-.347.869-.624 1.232c-.267.352-.613.635-1.04.848-.416.203-.923.304-1.52.304zm-.336-1.296c.555 0 .987-.117 1.296-.352.32-.245.549-.56.688-.944.139-.395.219-.816.24-1.264.011-.309.011-.619 0-.928-.021-.448-.101-.864-.24-1.248-.139-.395-.368-.709-.688-.944-.309-.245-.741-.368-1.296-.368-.501 0-.917.117-1.248.352s-.581.533-.752.896c-.16.363-.245.731-.256 1.104-.011.171-.016.379-.016.624 0 .235.005.437.016.608.021.395.107.784.256 1.168.16.373.4.683.72.928.331.245.757.368 1.28.368zm8.62 1.296c-.598 0-1.11-.075-1.536-.224-.427-.149-.774-.331-1.04-.544-.267-.213-.47-.427-.608-.64-.128-.213-.198-.384-.208-.512-.011-.117.026-.208.112-.272.085-.064.17-.096.256-.096h.704c.064 0 .112.011.144.032.042.011.096.053.16.128.138.149.293.299.464.448.17.149.378.272.624.368.256.096.57.144.944.144.544 0 .992-.101 1.344-.304.352-.213.528-.523.528-.928 0-.267-.075-.48-.224-.64-.139-.16-.395-.304-.768-.432-.363-.128-.864-.261-1.504-.4-.64-.149-1.147-.331-1.52-.544-.374-.224-.64-.485-.8-.784-.16-.309-.24-.656-.24-1.04 0-.395.117-.773.352-1.136.234-.373.576-.677 1.024-.912.458-.235 1.029-.352 1.712-.352.554 0 1.029.069 1.424.208.394.139.72.315.976.528.256.203.448.405.576.608s.197.373.208.512c.01.107-.022.197-.096.272-.075.064-.16.096-.256.096h-.672c-.075 0-.139-.016-.192-.048-.043-.032-.086-.069-.128-.112-.107-.139-.235-.277-.384-.416-.139-.139-.326-.251-.56-.336-.224-.096-.523-.144-.896-.144-.534 0-.934.112-1.2.336-.267.224-.4.507-.4.848 0 .203.058.384.176.544.117.16.341.304.672.432.33.128.821.267 1.471.416.705.139 1.259.325 1.665.56.405.235.693.507.864.816.17.309.256.667.256 1.072 0 .448-.134.859-.4 1.232-.256.373-.64.672-1.152.896-.502.213-1.126.32-1.872.32z"/>
        <path d="m421.691 155.6c-.107 0-.197-.032-.272-.096-.064-.064-.096-.155-.096-.272v-1.12c-.747-.064-1.392-.235-1.936-.512-.533-.288-.944-.64-1.232-1.056-.277-.427-.427-.88-.448-1.36 0-.085.032-.16.096-.224s.144-.096.24-.096h.768c.203 0 .341.107.416.32.096.448.368.837.816 1.168.459.32 1.109.48 1.952.48.907 0 1.584-.16 2.032-.48s.672-.763.672-1.328c0-.363-.112-.661-.336-.896-.213-.235-.539-.437-.976-.608-.427-.181-1.072-.4-1.936-.656-.821-.235-1.477-.485-1.968-.752s-.859-.592-1.104-.976c-.245-.395-.368-.891-.368-1.488 0-.8.293-1.472.88-2.016s1.397-.864 2.432-.96v-1.104c0-.117.032-.208.096-.272.075-.064.165-.096.272-.096h.576c.107 0 .192.037.256.112.064.064.096.149.096.256v1.12c.683.085 1.269.277 1.76.576s.859.651 1.104 1.056c.256.395.395.795.416 1.2 0 .096-.032.176-.096.24s-.144.096-.24.096h-.8c-.085 0-.171-.027-.256-.08-.075-.053-.123-.133-.144-.24-.064-.459-.32-.837-.768-1.136s-1.008-.448-1.68-.448c-.725 0-1.301.144-1.728.432-.427.277-.64.693-.64 1.248 0 .373.096.677.288.912.203.235.507.443.912.624.416.181 1.013.389 1.792.624.907.256 1.621.512 2.144.768s.912.576 1.168.96c.256.373.384.859.384 1.456 0 .907-.325 1.637-.976 2.192-.64.555-1.52.875-2.64.96v1.104c0 .107-.032.192-.096.256-.064.075-.149.112-.256.112zm9.86-1.44c-.8 0-1.493-.144-2.08-.432s-1.035-.661-1.344-1.12c-.309-.469-.475-.971-.496-1.504v-.032c0-.085.032-.155.096-.208s.139-.08.224-.08h.784c.224 0 .368.117.432.352.16.576.453 1.008.88 1.296.437.277.939.416 1.504.416.725 0 1.328-.219 1.808-.656.48-.448.72-1.061.72-1.84 0-.715-.24-1.28-.72-1.696-.48-.427-1.083-.64-1.808-.64-.384 0-.693.048-.928.144s-.475.235-.72.416c-.139.107-.256.187-.352.24-.085.043-.181.064-.288.064h-.768c-.096 0-.181-.032-.256-.096-.075-.075-.107-.16-.096-.256l.496-5.328c.032-.267.165-.4.4-.4h5.536c.117 0 .208.032.272.096s.096.155.096.272v.592c0 .107-.037.192-.112.256-.064.064-.149.096-.256.096h-4.608l-.288 3.216c.512-.363 1.2-.544 2.064-.544.715 0 1.365.144 1.952.432.587.277 1.051.688 1.392 1.232.352.544.528 1.189.528 1.936 0 .789-.176 1.472-.528 2.048-.341.565-.821.997-1.44 1.296-.608.288-1.307.432-2.096.432z"/>
        <path d="m113.76 238c-.107 0-.192-.032-.256-.096-.064-.075-.096-.165-.096-.272v-10.448c0-.117.032-.208.096-.272.064-.075.149-.112.256-.112h.768c.117 0 .208.037.272.112.075.064.112.155.112.272v4.448h5.568v-4.448c0-.117.032-.208.096-.272.075-.075.165-.112.272-.112h.768c.117 0 .208.037.272.112.075.064.112.155.112.272v10.448c0 .107-.037.197-.112.272-.075.064-.165.096-.272.096h-.768c-.107 0-.197-.032-.272-.096-.064-.075-.096-.165-.096-.272v-4.608h-5.568v4.608c0 .107-.037.197-.112.272-.075.064-.165.096-.272.096zm14.207.16c-1.174 0-2.08-.331-2.72-.992-.63-.661-.966-1.541-1.008-2.64l-.016-.688.016-.688c.042-1.099.384-1.979 1.024-2.64.65-.661 1.552-.992 2.704-.992s2.048.331 2.688.992c.65.661.997 1.541 1.04 2.64.021.235.032.464.032.688s-.011.453-.032.688c-.043 1.099-.384 1.979-1.024 2.64-.63.661-1.531.992-2.704.992zm0-1.2c.682 0 1.221-.213 1.616-.64.405-.437.624-1.061.656-1.872.01-.107.016-.309.016-.608s-.006-.501-.016-.608c-.032-.811-.251-1.429-.656-1.856-.395-.437-.934-.656-1.616-.656-.683 0-1.227.219-1.632.656-.395.427-.608 1.045-.64 1.856l-.016.608.016.608c.032.811.245 1.435.64 1.872.405.427.949.64 1.632.64zm6.148 1.04c-.107 0-.197-.032-.272-.096-.064-.075-.096-.165-.096-.272v-7.584c0-.107.032-.192.096-.256.075-.075.165-.112.272-.112h.672c.107 0 .192.037.256.112.064.064.096.149.096.256v.544c.576-.715 1.355-1.072 2.336-1.072 1.173 0 2.005.491 2.496 1.472.256-.448.619-.805 1.088-1.072.48-.267 1.013-.4 1.6-.4.875 0 1.589.299 2.144.896s.832 1.461.832 2.592v4.624c0 .107-.037.197-.112.272-.064.064-.149.096-.256.096h-.688c-.107 0-.197-.032-.272-.096-.064-.075-.096-.165-.096-.272v-4.48c0-.853-.176-1.461-.528-1.824-.352-.373-.816-.56-1.392-.56-.512 0-.955.192-1.328.576-.363.373-.544.976-.544 1.808v4.48c0 .107-.037.197-.112.272-.064.064-.149.096-.256.096h-.704c-.107 0-.197-.032-.272-.096-.064-.075-.096-.165-.096-.272v-4.48c0-.843-.187-1.451-.56-1.824-.363-.373-.816-.56-1.36-.56-.512 0-.955.187-1.328.56-.363.373-.544.976-.544 1.808v4.496c0 .107-.037.197-.112.272-.064.064-.149.096-.256.096zm17.131.16c-1.088 0-1.957-.336-2.608-1.008-.651-.683-1.008-1.611-1.072-2.784l-.016-.544.016-.528c.064-1.152.421-2.069 1.072-2.752s1.52-1.024 2.608-1.024c1.173 0 2.08.373 2.72 1.12.651.747.976 1.76.976 3.04v.288c0 .107-.037.197-.112.272-.064.064-.149.096-.256.096h-5.552v.144c.032.693.245 1.285.64 1.776s.917.736 1.568.736c.501 0 .907-.096 1.216-.288.32-.203.56-.411.72-.624.096-.128.171-.203.224-.224.053-.032.144-.048.272-.048h.704c.096 0 .176.027.24.08.075.053.112.123.112.208 0 .235-.144.517-.432.848s-.699.619-1.232.864c-.523.235-1.125.352-1.808.352zm2.24-4.912v-.048c0-.747-.203-1.355-.608-1.824s-.949-.704-1.632-.704c-.693 0-1.237.235-1.632.704s-.592 1.077-.592 1.824v.048zm10.379 4.912c-1.12 0-1.963-.363-2.528-1.088-.555-.725-.853-1.643-.896-2.752l-.016-.48.016-.48c.043-1.099.347-2.011.912-2.736.565-.736 1.403-1.104 2.512-1.104s1.973.395 2.592 1.184v-3.696c0-.107.032-.192.096-.256.075-.075.165-.112.272-.112h.72c.107 0 .192.037.256.112.075.064.112.149.112.256v10.624c0 .107-.037.197-.112.272-.064.064-.149.096-.256.096h-.688c-.107 0-.192-.032-.256-.096-.064-.075-.096-.165-.096-.272v-.688c-.608.811-1.488 1.216-2.64 1.216zm.304-1.248c.747 0 1.307-.245 1.68-.736.373-.501.576-1.093.608-1.776.011-.117.016-.32.016-.608 0-.299-.005-.507-.016-.624-.021-.651-.229-1.211-.624-1.68-.384-.48-.939-.72-1.664-.72-.768 0-1.328.24-1.68.72s-.544 1.109-.576 1.888l-.016.464c0 2.048.757 3.072 2.272 3.072zm9.452 1.248c-1.088 0-1.957-.336-2.608-1.008-.651-.683-1.008-1.611-1.072-2.784l-.016-.544.016-.528c.064-1.152.421-2.069 1.072-2.752s1.52-1.024 2.608-1.024c1.173 0 2.08.373 2.72 1.12.651.747.976 1.76.976 3.04v.288c0 .107-.037.197-.112.272-.064.064-.149.096-.256.096h-5.552v.144c.032.693.245 1.285.64 1.776s.917.736 1.568.736c.501 0 .907-.096 1.216-.288.32-.203.56-.411.72-.624.096-.128.171-.203.224-.224.053-.032.144-.048.272-.048h.704c.096 0 .176.027.24.08.075.053.112.123.112.208 0 .235-.144.517-.432.848s-.699.619-1.232.864c-.523.235-1.125.352-1.808.352zm2.24-4.912v-.048c0-.747-.203-1.355-.608-1.824s-.949-.704-1.632-.704c-.693 0-1.237.235-1.632.704s-.592 1.077-.592 1.824v.048zm3.786 4.752c-.107 0-.198-.032-.272-.096-.064-.075-.096-.165-.096-.272v-10.624c0-.117.032-.208.096-.272.074-.064.165-.096.272-.096h.704c.106 0 .192.037.256.112.074.064.112.149.112.256v10.624c0 .107-.038.197-.112.272-.064.064-.15.096-.256.096zm3.715-9.888c-.107 0-.197-.032-.272-.096-.064-.075-.096-.165-.096-.272v-.832c0-.107.032-.197.096-.272.075-.075.165-.112.272-.112h.944c.107 0 .197.037.272.112s.112.165.112.272v.832c0 .107-.037.197-.112.272-.075.064-.165.096-.272.096zm.128 9.888c-.107 0-.197-.032-.272-.096-.064-.075-.096-.165-.096-.272v-7.584c0-.107.032-.192.096-.256.075-.075.165-.112.272-.112h.704c.107 0 .192.037.256.112.075.064.112.149.112.256v7.584c0 .107-.037.197-.112.272-.064.064-.149.096-.256.096zm6.372 0c-.278 0-.475-.133-.592-.4l-2.976-7.424c-.011-.032-.016-.085-.016-.16 0-.096.032-.176.096-.24s.138-.096.224-.096h.736c.17 0 .298.085.384.256l2.464 6.384 2.464-6.384c.021-.064.064-.123.128-.176.074-.053.16-.08.256-.08h.736c.085 0 .16.032.224.096s.096.144.096.24l-.032.16-2.96 7.424c-.118.267-.315.4-.592.4zm8.931.16c-1.088 0-1.957-.336-2.608-1.008-.651-.683-1.008-1.611-1.072-2.784l-.016-.544.016-.528c.064-1.152.421-2.069 1.072-2.752s1.52-1.024 2.608-1.024c1.173 0 2.08.373 2.72 1.12.651.747.976 1.76.976 3.04v.288c0 .107-.037.197-.112.272-.064.064-.149.096-.256.096h-5.552v.144c.032.693.245 1.285.64 1.776s.917.736 1.568.736c.501 0 .907-.096 1.216-.288.32-.203.56-.411.72-.624.096-.128.171-.203.224-.224.053-.032.144-.048.272-.048h.704c.096 0 .176.027.24.08.075.053.112.123.112.208 0 .235-.144.517-.432.848s-.699.619-1.232.864c-.523.235-1.125.352-1.808.352zm2.24-4.912v-.048c0-.747-.203-1.355-.608-1.824s-.949-.704-1.632-.704c-.693 0-1.237.235-1.632.704s-.592 1.077-.592 1.824v.048zm3.769 4.752c-.106 0-.197-.032-.272-.096-.064-.075-.096-.165-.096-.272v-7.568c0-.107.032-.197.096-.272.075-.075.166-.112.272-.112h.672c.118 0 .208.037.272.112.075.064.112.155.112.272v.704c.438-.725 1.179-1.088 2.224-1.088h.624c.118 0 .208.032.272.096s.096.155.096.272v.592c0 .107-.032.197-.096.272-.064.064-.154.096-.272.096h-.912c-.586 0-1.05.171-1.392.512-.33.341-.496.805-.496 1.392v4.72c0 .107-.037.197-.112.272-.074.064-.165.096-.272.096zm7.104 3.04c-.096 0-.176-.032-.24-.096s-.096-.139-.096-.224c0-.032.027-.128.08-.288l1.248-2.928-3.056-7.216c-.064-.128-.096-.219-.096-.272.011-.096.048-.176.112-.24s.139-.096.224-.096h.736c.171 0 .299.085.384.256l2.464 5.888 2.528-5.888c.085-.171.213-.256.384-.256h.72c.085 0 .16.032.224.096s.096.139.096.224c0 .075-.027.171-.08.288l-4.528 10.496c-.053.085-.112.149-.176.192-.053.043-.128.064-.224.064z"/>
    </g>
    <path clip-rule="evenodd" d="m86.8364 243.673c5.9847 0 10.8363-4.852 10.8363-10.837 0-5.984-4.8516-10.836-10.8363-10.836-5.9848 0-10.8364 4.852-10.8364 10.836 0 5.985 4.8516 10.837 10.8364 10.837z" fill="#fff" fill-rule="evenodd"/>
    <path d="m96.9955 232.836c0 5.611-4.5484 10.159-10.1591 10.159s-10.1591-4.548-10.1591-10.159c0-5.61 4.5484-10.159 10.1591-10.159s10.1591 4.549 10.1591 10.159z" stroke="#0e1318" stroke-opacity=".3" stroke-width="1.35455"/>
    <path d="m414.238 240.6c-.107 0-.197-.032-.272-.096-.064-.064-.096-.155-.096-.272v-1.12c-.747-.064-1.392-.235-1.936-.512-.533-.288-.944-.64-1.232-1.056-.277-.427-.427-.88-.448-1.36 0-.085.032-.16.096-.224s.144-.096.24-.096h.768c.203 0 .341.107.416.32.096.448.368.837.816 1.168.459.32 1.109.48 1.952.48.907 0 1.584-.16 2.032-.48s.672-.763.672-1.328c0-.363-.112-.661-.336-.896-.213-.235-.539-.437-.976-.608-.427-.181-1.072-.4-1.936-.656-.821-.235-1.477-.485-1.968-.752s-.859-.592-1.104-.976c-.245-.395-.368-.891-.368-1.488 0-.8.293-1.472.88-2.016s1.397-.864 2.432-.96v-1.104c0-.117.032-.208.096-.272.075-.064.165-.096.272-.096h.576c.107 0 .192.037.256.112.064.064.096.149.096.256v1.12c.683.085 1.269.277 1.76.576s.859.651 1.104 1.056c.256.395.395.795.416 1.2 0 .096-.032.176-.096.24s-.144.096-.24.096h-.8c-.085 0-.171-.027-.256-.08-.075-.053-.123-.133-.144-.24-.064-.459-.32-.837-.768-1.136s-1.008-.448-1.68-.448c-.725 0-1.301.144-1.728.432-.427.277-.64.693-.64 1.248 0 .373.096.677.288.912.203.235.507.443.912.624.416.181 1.013.389 1.792.624.907.256 1.621.512 2.144.768s.912.576 1.168.96c.256.373.384.859.384 1.456 0 .907-.325 1.637-.976 2.192-.64.555-1.52.875-2.64.96v1.104c0 .107-.032.192-.096.256-.064.075-.149.112-.256.112zm9.62-1.6c-.107 0-.192-.032-.256-.096-.064-.075-.096-.165-.096-.272v-9.024l-2.688 2.064c-.075.064-.155.096-.24.096-.096 0-.187-.053-.272-.16l-.384-.496c-.054-.075-.08-.149-.08-.224 0-.117.053-.213.16-.288l3.472-2.688c.117-.075.256-.112.416-.112h.752c.106 0 .192.037.256.112.074.064.112.149.112.256v10.464c0 .107-.038.197-.112.272-.064.064-.15.096-.256.096zm7.437.16c-1.376 0-2.384-.4-3.024-1.2-.63-.811-.966-1.867-1.008-3.168l-.016-1.376.016-1.424c.032-1.291.368-2.336 1.008-3.136.65-.811 1.658-1.216 3.024-1.216 1.376 0 2.384.405 3.024 1.216.65.8.992 1.845 1.024 3.136.01.299.016.773.016 1.424 0 .629-.006 1.088-.016 1.376-.043 1.301-.384 2.357-1.024 3.168-.63.8-1.638 1.2-3.024 1.2zm0-1.328c.821 0 1.44-.272 1.856-.816s.634-1.312.656-2.304c.01-.309.016-.752.016-1.328 0-.587-.006-1.024-.016-1.312-.022-.981-.246-1.744-.672-2.288-.416-.555-1.03-.832-1.84-.832-.811 0-1.424.277-1.84.832-.416.544-.635 1.307-.656 2.288l-.016 1.312.016 1.328c.021.992.24 1.76.656 2.304s1.029.816 1.84.816z" fill="#000"/>
    <path clip-rule="evenodd" d="m86.8364 283.673c5.9847 0 10.8363-4.852 10.8363-10.837 0-5.984-4.8516-10.836-10.8363-10.836-5.9848 0-10.8364 4.852-10.8364 10.836 0 5.985 4.8516 10.837 10.8364 10.837z" fill="#fff" fill-rule="evenodd"/>
    <path d="m96.9955 272.836c0 5.611-4.5484 10.159-10.1591 10.159s-10.1591-4.548-10.1591-10.159c0-5.61 4.5484-10.159 10.1591-10.159s10.1591 4.549 10.1591 10.159z" stroke="#0e1318" stroke-opacity=".3" stroke-width="1.35455"/>
    <path d="m113.76 278c-.107 0-.192-.032-.256-.096-.064-.075-.096-.165-.096-.272v-10.448c0-.117.032-.208.096-.272.064-.075.149-.112.256-.112h4.048c1.205 0 2.149.293 2.832.88.693.576 1.04 1.419 1.04 2.528s-.347 1.952-1.04 2.528c-.683.576-1.627.864-2.832.864h-2.88v4.032c0 .107-.037.197-.112.272-.064.064-.149.096-.256.096zm3.968-5.696c1.611 0 2.416-.699 2.416-2.096 0-.683-.203-1.205-.608-1.568-.395-.363-.997-.544-1.808-.544h-2.8v4.208zm6.09 5.696c-.107 0-.197-.032-.272-.096-.064-.075-.096-.165-.096-.272v-7.568c0-.107.032-.197.096-.272.075-.075.165-.112.272-.112h.672c.117 0 .208.037.272.112.075.064.112.155.112.272v.704c.437-.725 1.179-1.088 2.224-1.088h.624c.117 0 .208.032.272.096s.096.155.096.272v.592c0 .107-.032.197-.096.272-.064.064-.155.096-.272.096h-.912c-.587 0-1.051.171-1.392.512-.331.341-.496.805-.496 1.392v4.72c0 .107-.037.197-.112.272-.075.064-.165.096-.272.096zm5.888-9.888c-.107 0-.198-.032-.272-.096-.064-.075-.096-.165-.096-.272v-.832c0-.107.032-.197.096-.272.074-.075.165-.112.272-.112h.944c.106 0 .197.037.272.112.074.075.112.165.112.272v.832c0 .107-.038.197-.112.272-.075.064-.166.096-.272.096zm.128 9.888c-.107 0-.198-.032-.272-.096-.064-.075-.096-.165-.096-.272v-7.584c0-.107.032-.192.096-.256.074-.075.165-.112.272-.112h.704c.106 0 .192.037.256.112.074.064.112.149.112.256v7.584c0 .107-.038.197-.112.272-.064.064-.15.096-.256.096zm6.803.16c-1.141 0-2.032-.32-2.672-.96-.64-.651-.976-1.557-1.008-2.72l-.016-.64.016-.64c.032-1.163.368-2.064 1.008-2.704.64-.651 1.531-.976 2.672-.976.768 0 1.414.139 1.936.416.534.267.928.603 1.184 1.008.267.405.411.811.432 1.216.011.096-.026.181-.112.256-.074.075-.16.112-.256.112h-.704c-.106 0-.186-.021-.24-.064-.053-.053-.106-.144-.16-.272-.192-.523-.458-.891-.8-1.104-.33-.224-.752-.336-1.264-.336-.672 0-1.205.208-1.6.624-.394.416-.608 1.051-.64 1.904l-.016.56.016.56c.032.853.246 1.488.64 1.904.395.416.928.624 1.6.624.523 0 .95-.107 1.28-.32.331-.224.592-.597.784-1.12.054-.128.107-.213.16-.256.054-.053.134-.08.24-.08h.704c.096 0 .182.037.256.112.086.075.123.16.112.256-.021.395-.165.795-.432 1.2-.256.405-.65.747-1.184 1.024-.522.277-1.168.416-1.936.416zm8.765 0c-1.088 0-1.957-.336-2.608-1.008-.65-.683-1.008-1.611-1.072-2.784l-.016-.544.016-.528c.064-1.152.422-2.069 1.072-2.752.651-.683 1.52-1.024 2.608-1.024 1.174 0 2.08.373 2.72 1.12.651.747.976 1.76.976 3.04v.288c0 .107-.037.197-.112.272-.064.064-.149.096-.256.096h-5.552v.144c.032.693.246 1.285.64 1.776.395.491.918.736 1.568.736.502 0 .907-.096 1.216-.288.32-.203.56-.411.72-.624.096-.128.171-.203.224-.224.054-.032.144-.048.272-.048h.704c.096 0 .176.027.24.08.075.053.112.123.112.208 0 .235-.144.517-.432.848s-.698.619-1.232.864c-.522.235-1.125.352-1.808.352zm2.24-4.912v-.048c0-.747-.202-1.355-.608-1.824-.405-.469-.949-.704-1.632-.704-.693 0-1.237.235-1.632.704-.394.469-.592 1.077-.592 1.824v.048zm10.715 4.912c-1.173 0-2.08-.331-2.72-.992-.629-.661-.965-1.541-1.008-2.64l-.016-.688.016-.688c.043-1.099.384-1.979 1.024-2.64.651-.661 1.552-.992 2.704-.992s2.048.331 2.688.992c.651.661.998 1.541 1.04 2.64.022.235.032.464.032.688s-.01.453-.032.688c-.042 1.099-.384 1.979-1.024 2.64-.629.661-1.53.992-2.704.992zm0-1.2c.683 0 1.222-.213 1.616-.64.406-.437.624-1.061.656-1.872.011-.107.016-.309.016-.608s-.005-.501-.016-.608c-.032-.811-.25-1.429-.656-1.856-.394-.437-.933-.656-1.616-.656-.682 0-1.226.219-1.632.656-.394.427-.608 1.045-.64 1.856l-.016.608.016.608c.032.811.246 1.435.64 1.872.406.427.95.64 1.632.64zm6.887 1.04c-.107 0-.198-.032-.272-.096-.064-.075-.096-.165-.096-.272v-6.72h-1.376c-.107 0-.198-.032-.272-.096-.064-.064-.096-.149-.096-.256v-.512c0-.107.032-.192.096-.256.074-.075.165-.112.272-.112h1.376v-.8c0-.864.208-1.531.624-2 .426-.48 1.12-.72 2.08-.72h.944c.106 0 .192.037.256.112.074.064.112.149.112.256v.512c0 .107-.038.192-.112.256-.064.064-.15.096-.256.096h-.912c-.491 0-.832.128-1.024.384s-.288.651-.288 1.184v.72h2.064c.106 0 .192.037.256.112.074.064.112.149.112.256v.512c0 .107-.038.192-.112.256-.064.064-.15.096-.256.096h-2.064v6.72c0 .107-.038.197-.112.272-.064.064-.15.096-.256.096zm11.335.16c-.736 0-1.36-.117-1.872-.352-.501-.245-.874-.523-1.12-.832-.245-.309-.368-.565-.368-.768 0-.107.038-.187.112-.24.075-.064.155-.096.24-.096h.672c.064 0 .112.011.144.032.043.021.096.069.16.144.246.299.518.533.816.704.31.171.72.256 1.232.256.576 0 1.035-.107 1.376-.32.352-.213.528-.523.528-.928 0-.267-.074-.48-.224-.64-.149-.16-.4-.304-.752-.432-.341-.128-.853-.267-1.536-.416-.928-.203-1.584-.496-1.968-.88s-.576-.88-.576-1.488c0-.395.118-.773.352-1.136.235-.373.582-.672 1.04-.896.47-.235 1.024-.352 1.664-.352.672 0 1.243.112 1.712.336.48.224.838.485 1.072.784.246.299.368.549.368.752 0 .096-.037.176-.112.24-.064.064-.144.096-.24.096h-.608c-.149 0-.256-.059-.32-.176-.181-.203-.336-.357-.464-.464-.117-.117-.293-.213-.528-.288-.234-.085-.528-.128-.88-.128-.522 0-.922.112-1.2.336-.277.213-.416.501-.416.864 0 .224.059.416.176.576.118.149.342.293.672.432.331.128.822.261 1.472.4 1.014.213 1.728.517 2.144.912.427.395.64.901.64 1.52 0 .459-.133.875-.4 1.248-.256.373-.645.667-1.168.88-.512.213-1.125.32-1.84.32zm5.661-.16c-.106 0-.197-.032-.272-.096-.064-.075-.096-.165-.096-.272v-10.624c0-.117.032-.208.096-.272.075-.064.166-.096.272-.096h.736c.118 0 .208.032.272.096s.096.155.096.272v3.728c.31-.395.672-.693 1.088-.896.427-.213.95-.32 1.568-.32 1.024 0 1.819.331 2.384.992.576.651.864 1.515.864 2.592v4.528c0 .107-.037.197-.112.272-.064.064-.149.096-.256.096h-.752c-.106 0-.197-.032-.272-.096-.064-.075-.096-.165-.096-.272v-4.432c0-.768-.186-1.365-.56-1.792-.373-.427-.912-.64-1.616-.64-.682 0-1.226.219-1.632.656-.405.427-.608 1.019-.608 1.776v4.432c0 .107-.037.197-.112.272-.064.064-.149.096-.256.096zm9.575-9.888c-.107 0-.197-.032-.272-.096-.064-.075-.096-.165-.096-.272v-.832c0-.107.032-.197.096-.272.075-.075.165-.112.272-.112h.944c.107 0 .197.037.272.112s.112.165.112.272v.832c0 .107-.037.197-.112.272-.075.064-.165.096-.272.096zm.128 9.888c-.107 0-.197-.032-.272-.096-.064-.075-.096-.165-.096-.272v-7.584c0-.107.032-.192.096-.256.075-.075.165-.112.272-.112h.704c.107 0 .192.037.256.112.075.064.112.149.112.256v7.584c0 .107-.037.197-.112.272-.064.064-.149.096-.256.096zm3.86 3.04c-.107 0-.198-.032-.272-.096-.064-.064-.096-.155-.096-.272v-10.624c0-.117.032-.208.096-.272.074-.064.165-.096.272-.096h.672c.117 0 .208.032.272.096s.096.155.096.272v.704c.618-.821 1.498-1.232 2.64-1.232 1.12 0 1.957.357 2.512 1.072.565.704.864 1.605.896 2.704.01.117.016.299.016.544s-.006.427-.016.544c-.032 1.088-.331 1.989-.896 2.704-.555.715-1.392 1.072-2.512 1.072-1.142 0-2.006-.405-2.592-1.216v3.728c0 .107-.038.192-.112.256-.064.075-.15.112-.256.112zm3.376-4.128c.768 0 1.328-.24 1.68-.72s.544-1.109.576-1.888c.01-.107.016-.261.016-.464 0-2.048-.758-3.072-2.272-3.072-.747 0-1.312.251-1.696.752-.374.491-.571 1.072-.592 1.744-.011.117-.016.325-.016.624s.005.507.016.624c.021.651.224 1.216.608 1.696.394.469.954.704 1.68.704zm5.98-8.8c-.107 0-.198-.032-.272-.096-.064-.075-.096-.165-.096-.272v-.832c0-.107.032-.197.096-.272.074-.075.165-.112.272-.112h.944c.106 0 .197.037.272.112.074.075.112.165.112.272v.832c0 .107-.038.197-.112.272-.075.064-.166.096-.272.096zm.128 9.888c-.107 0-.198-.032-.272-.096-.064-.075-.096-.165-.096-.272v-7.584c0-.107.032-.192.096-.256.074-.075.165-.112.272-.112h.704c.106 0 .192.037.256.112.074.064.112.149.112.256v7.584c0 .107-.038.197-.112.272-.064.064-.15.096-.256.096zm3.844 0c-.107 0-.198-.032-.272-.096-.064-.075-.096-.165-.096-.272v-7.584c0-.107.032-.192.096-.256.074-.075.165-.112.272-.112h.688c.117 0 .208.032.272.096s.096.155.096.272v.704c.32-.395.688-.699 1.104-.912.426-.213.954-.32 1.584-.32 1.024 0 1.818.331 2.384.992.565.651.848 1.515.848 2.592v4.528c0 .107-.038.197-.112.272-.064.064-.15.096-.256.096h-.736c-.107 0-.198-.032-.272-.096-.064-.075-.096-.165-.096-.272v-4.432c0-.768-.187-1.365-.56-1.792-.374-.427-.907-.64-1.6-.64-.683 0-1.227.219-1.632.656-.406.427-.608 1.019-.608 1.776v4.432c0 .107-.038.197-.112.272-.064.064-.15.096-.256.096zm12.664 3.52c-.886 0-1.595-.149-2.128-.448-.534-.299-.912-.64-1.136-1.024-.214-.384-.32-.715-.32-.992 0-.096.037-.181.112-.256.074-.064.16-.096.256-.096h.704c.096 0 .176.021.24.064.064.053.117.144.16.272.298.853.976 1.28 2.032 1.28.8 0 1.392-.171 1.776-.512s.576-.944.576-1.808v-1.104c-.619.789-1.483 1.184-2.592 1.184-1.131 0-1.979-.363-2.544-1.088-.555-.725-.848-1.643-.88-2.752l-.016-.448.016-.432c.032-1.099.325-2.011.88-2.736.565-.736 1.413-1.104 2.544-1.104 1.12 0 1.994.411 2.624 1.232v-.688c0-.107.032-.197.096-.272.074-.075.165-.112.272-.112h.688c.106 0 .192.037.256.112.074.075.112.165.112.272v7.76c0 2.464-1.243 3.696-3.728 3.696zm-.032-4.688c.746 0 1.306-.24 1.68-.72.384-.491.592-1.077.624-1.76.01-.096.016-.283.016-.56 0-.267-.006-.448-.016-.544-.032-.683-.24-1.264-.624-1.744-.374-.491-.934-.736-1.68-.736-.768 0-1.328.245-1.68.736-.342.48-.528 1.104-.56 1.872l-.016.416.016.432c.032.768.218 1.397.56 1.888.352.48.912.72 1.68.72zm13.325 1.168c-.107 0-.192-.032-.256-.096-.064-.075-.096-.165-.096-.272v-9.024l-2.688 2.064c-.075.064-.155.096-.24.096-.096 0-.187-.053-.272-.16l-.384-.496c-.053-.075-.08-.149-.08-.224 0-.117.053-.213.16-.288l3.472-2.688c.117-.075.256-.112.416-.112h.752c.107 0 .192.037.256.112.075.064.112.149.112.256v10.464c0 .107-.037.197-.112.272-.064.064-.149.096-.256.096zm3.965 0c-.107 0-.198-.032-.272-.096-.064-.075-.096-.165-.096-.272v-10.624c0-.117.032-.208.096-.272.074-.064.165-.096.272-.096h.704c.106 0 .192.037.256.112.074.064.112.149.112.256v10.624c0 .107-.038.197-.112.272-.064.064-.15.096-.256.096zm7.539.16c-1.152 0-2.032-.405-2.64-1.216v.688c0 .107-.037.197-.112.272-.064.064-.149.096-.256.096h-.672c-.107 0-.197-.032-.272-.096-.064-.075-.096-.165-.096-.272v-10.624c0-.117.032-.208.096-.272.075-.064.165-.096.272-.096h.72c.107 0 .192.037.256.112.075.064.112.149.112.256v3.696c.597-.789 1.461-1.184 2.592-1.184 1.12 0 1.957.368 2.512 1.104.565.725.864 1.637.896 2.736.011.117.016.277.016.48s-.005.363-.016.48c-.032 1.099-.331 2.016-.896 2.752-.555.725-1.392 1.088-2.512 1.088zm-.304-1.248c.768 0 1.328-.24 1.68-.72s.544-1.109.576-1.888c.011-.107.016-.261.016-.464 0-2.048-.757-3.072-2.272-3.072-.725 0-1.285.24-1.68.72-.384.469-.587 1.029-.608 1.68-.011.117-.016.325-.016.624 0 .288.005.491.016.608.021.683.219 1.275.592 1.776.384.491.949.736 1.696.736zm8.588 1.248c-.736 0-1.36-.117-1.872-.352-.501-.245-.875-.523-1.12-.832s-.368-.565-.368-.768c0-.107.037-.187.112-.24.075-.064.155-.096.24-.096h.672c.064 0 .112.011.144.032.043.021.096.069.16.144.245.299.517.533.816.704.309.171.72.256 1.232.256.576 0 1.035-.107 1.376-.32.352-.213.528-.523.528-.928 0-.267-.075-.48-.224-.64s-.4-.304-.752-.432c-.341-.128-.853-.267-1.536-.416-.928-.203-1.584-.496-1.968-.88s-.576-.88-.576-1.488c0-.395.117-.773.352-1.136.235-.373.581-.672 1.04-.896.469-.235 1.024-.352 1.664-.352.672 0 1.243.112 1.712.336.48.224.837.485 1.072.784.245.299.368.549.368.752 0 .096-.037.176-.112.24-.064.064-.144.096-.24.096h-.608c-.149 0-.256-.059-.32-.176-.181-.203-.336-.357-.464-.464-.117-.117-.293-.213-.528-.288-.235-.085-.528-.128-.88-.128-.523 0-.923.112-1.2.336-.277.213-.416.501-.416.864 0 .224.059.416.176.576.117.149.341.293.672.432.331.128.821.261 1.472.4 1.013.213 1.728.517 2.144.912.427.395.64.901.64 1.52 0 .459-.133.875-.4 1.248-.256.373-.645.667-1.168.88-.512.213-1.125.32-1.84.32z" fill="#000"/>
    <path d="m431.295 279.16c-1.376 0-2.384-.4-3.024-1.2-.63-.811-.966-1.867-1.008-3.168l-.016-1.376.016-1.424c.032-1.291.368-2.336 1.008-3.136.65-.811 1.658-1.216 3.024-1.216 1.376 0 2.384.405 3.024 1.216.65.8.992 1.845 1.024 3.136.01.299.016.773.016 1.424 0 .629-.006 1.088-.016 1.376-.043 1.301-.384 2.357-1.024 3.168-.63.8-1.638 1.2-3.024 1.2zm0-1.328c.821 0 1.44-.272 1.856-.816s.634-1.312.656-2.304c.01-.309.016-.752.016-1.328 0-.587-.006-1.024-.016-1.312-.022-.981-.246-1.744-.672-2.288-.416-.555-1.03-.832-1.84-.832-.811 0-1.424.277-1.84.832-.416.544-.635 1.307-.656 2.288l-.016 1.312.016 1.328c.021.992.24 1.76.656 2.304s1.029.816 1.84.816z" fill="#000"/>
    <rect fill="#f1c34e" height="33" rx="4" width="360" x="76" y="83"/>
    <rect fill="#e8e8e8" height="33" rx="4" width="360" x="76" y="350"/>
    <rect fill="#e8e8e8" height="11" rx="2" width="103" x="76" y="194"/>
    <rect fill="#e8e8e8" height="11" rx="2" width="103" x="76" y="327"/>
</svg>