<svg width="24" height="24" viewBox="0 0 24 24" fill="none" xmlns="http://www.w3.org/2000/svg">
    <path d="M19.0577 12.64C19.0465 10.7965 19.9726 9.40503 21.8472 8.38029C20.7984 7.02904 19.2139 6.2856 17.1217 6.13993C15.1411 5.99928 12.9764 7.17974 12.1841 7.17974C11.3472 7.17974 9.428 6.19016 7.92163 6.19016C4.80845 6.23537 1.5 8.4255 1.5 12.8811C1.5 14.1972 1.7678 15.5568 2.3034 16.96C3.01753 18.8035 5.59511 23.3244 8.28427 23.2491C9.69022 23.2189 10.6833 22.3499 12.5133 22.3499C14.2875 22.3499 15.208 23.2491 16.7758 23.2491C19.4872 23.2139 21.8193 19.1049 22.5 17.2563C18.8624 15.7142 19.0577 12.7354 19.0577 12.64ZM15.8998 4.39185C17.423 2.76432 17.2835 1.28246 17.2388 0.75C15.8943 0.820325 14.3377 1.57381 13.4506 2.50311C12.4742 3.49771 11.8996 4.7284 12.0223 6.11482C13.4785 6.21528 14.8063 5.54217 15.8998 4.39185Z" fill="white"/>
    </svg>